{
.appVersion = "1264";
copyright = "Copyright 2019 The Tomorrow Project Authors (https://github.com/MonicaRizzolli/Tomorrow)";
customParameters = (
{
name = panose;
value = (
0,
0,
8,
0,
0,
0,
0,
0,
0,
0
);
},
{
name = unicodeRanges;
value = (
0,
1,
2,
29
);
},
{
name = codePageRanges;
value = (
1252,
1250,
1257
);
},
{
name = blueScale;
value = 0.037;
},
{
name = glyphOrder;
value = (
.notdef,
CR,
space,
A,
Aacute,
Abreve,
uni1EAE,
uni1EB6,
uni1EB0,
uni1EB2,
uni1EB4,
Acircumflex,
uni1EA4,
uni1EAC,
uni1EA6,
uni1EA8,
uni1EAA,
uni0200,
Adieresis,
uni1EA0,
Agrave,
uni1EA2,
uni0202,
Amacron,
Aogonek,
Aring,
Aringacute,
Atilde,
AE,
AEacute,
B,
C,
Cacute,
Ccaron,
Ccedilla,
Ccircumflex,
Cdotaccent,
D,
uni01C4,
Eth,
Dcaron,
Dcroat,
uni01C5,
E,
Eacute,
Ebreve,
Ecaron,
Ecircumflex,
uni1EBE,
uni1EC6,
uni1EC0,
uni1EC2,
uni1EC4,
uni0204,
Edieresis,
Edotaccent,
uni1EB8,
Egrave,
uni1EBA,
uni0206,
Emacron,
Eogonek,
uni1EBC,
F,
G,
Gbreve,
Gcaron,
Gcircumflex,
uni0122,
Gdotaccent,
H,
Hbar,
Hcircumflex,
I,
Iacute,
Ibreve,
Icircumflex,
uni0208,
Idieresis,
Idotaccent,
uni1ECA,
Igrave,
uni1EC8,
uni020A,
Imacron,
Iogonek,
Itilde,
J,
Jcircumflex,
K,
uni0136,
L,
uni01C7,
Lacute,
Lcaron,
uni013B,
Ldot,
uni01C8,
Lslash,
M,
N,
uni01CA,
Nacute,
Ncaron,
uni0145,
Eng,
uni01CB,
Ntilde,
O,
Oacute,
Obreve,
Ocircumflex,
uni1ED0,
uni1ED8,
uni1ED2,
uni1ED4,
uni1ED6,
uni020C,
Odieresis,
uni022A,
uni0230,
uni1ECC,
Ograve,
uni1ECE,
Ohorn,
uni1EDA,
uni1EE2,
uni1EDC,
uni1EDE,
uni1EE0,
Ohungarumlaut,
uni020E,
Omacron,
uni01EA,
Oslash,
Oslashacute,
Otilde,
uni022C,
OE,
P,
Thorn,
Q,
R,
Racute,
Rcaron,
uni0156,
uni0210,
uni0212,
S,
Sacute,
Scaron,
Scedilla,
Scircumflex,
uni0218,
uni1E9E,
uni018F,
T,
Tbar,
Tcaron,
uni0162,
uni021A,
U,
Uacute,
Ubreve,
Ucircumflex,
uni0214,
Udieresis,
uni1EE4,
Ugrave,
uni1EE6,
Uhorn,
uni1EE8,
uni1EF0,
uni1EEA,
uni1EEC,
uni1EEE,
Uhungarumlaut,
uni0216,
Umacron,
Uogonek,
Uring,
Utilde,
V,
W,
Wacute,
Wcircumflex,
Wdieresis,
Wgrave,
X,
Y,
Yacute,
Ycircumflex,
Ydieresis,
uni1EF4,

glyphs = (
{
glyphname = .notdef;
lastChange = "2019-09-24 19:26:15 +0000";
layers = (
{
hints = (
{
horizontal = 1;
place = "{121, 109}";
type = Stem;
},
{
horizontal = 1;
place = "{345, 177}";
type = Stem;
},
{
place = "{180, 123}";
type = Stem;
},
{
place = "{416, 123}";
type = Stem;
},
{
place = "{65, 120}";
type = Stem;
},
{
place = "{535, 119}";
type = Stem;
}
);
layerId = "D215EC84-7FFD-4436-99F3-284D9B779A16";
paths = (
{
closed = 1;
nodes = (
"185 29 LINE",
"185 76 LINE",
"229 121 LINE",
"491 121 LINE",
"535 77 LINE",
"535 29 LINE",
"654 29 LINE",
"654 132 LINE",
"550 230 LINE",
"170 230 LINE",
"65 132 LINE",
"65 29 LINE"
);
},
{
closed = 1;
nodes = (
"303 345 LINE",
"303 522 LINE",
"180 522 LINE",
"180 345 LINE"
);
},
{
closed = 1;
nodes = (
"539 345 LINE",
"539 522 LINE",
"416 522 LINE",
"416 345 LINE"
);
}
);
width = 719;
}
);
note = .notdef;
},
{
glyphname = A;
lastChange = "2019-09-24 19:26:15 +0000";
layers = (
{
hints = (
{
horizontal = 1;
place = "{147, 144}";
type = Stem;
},
{
horizontal = 1;
place = "{596, 141}";
type = Stem;
},
{
place = "{0, 736}";
type = Stem;
}
);
layerId = "D215EC84-7FFD-4436-99F3-284D9B779A16";
paths = (
{
closed = 1;
nodes = (
"198 0 LINE",
"235.49 147 LINE",
"500.51 147 LINE",
"538 0 LINE",
"736 0 LINE",
"520 737 LINE",
"216 737 LINE",
"0 0 LINE"
);
},
{
closed = 1;
nodes = (
"350 596 LINE",
"386 596 LINE",
"463.78 291 LINE",
"272.21 291 LINE"
);
}
);
width = 736;
}
);
leftKerningGroup = A;
note = A;
rightKerningGroup = A;
unicode = 0041;
},
{
glyphname = Aacute;
lastChange = "2019-09-24 19:26:15 +0000";
layers = (
{
hints = (
{
horizontal = 1;
place = "{147, 144}";
type = Stem;
},
{
horizontal = 1;
place = "{596, 141}";
type = Stem;
},
{
horizontal = 1;
place = "{795, 157}";
type = Stem;
},
{
place = "{0, 736}";
type = Stem;
}
);
layerId = "D215EC84-7FFD-4436-99F3-284D9B779A16";
paths = (
{
closed = 1;
nodes = (
"198 0 LINE",
"235.49 147 LINE",
"500.51 147 LINE",
"538 0 LINE",
"736 0 LINE",
"520 737 LINE",
"216 737 LINE",
"0 0 LINE"
);
},
{
closed = 1;
nodes = (
"350 596 LINE",
"386 596 LINE",
"463.78 291 LINE",
"272.21 291 LINE"
);
},
{
closed = 1;
nodes = (
"440 795 LINE",
"590 952 LINE",
"408 952 LINE",
"303 795 LINE"
);
}
);
width = 736;
}
);
leftKerningGroup = A;
note = Aacute;
rightKerningGroup = A;
unicode = 00C1;
},
{
glyphname = Abreve;
lastChange = "2019-09-24 19:26:15 +0000";
layers = (
{
hints = (
{
horizontal = 1;
place = "{147, 144}";
type = Stem;
},
{
horizontal = 1;
place = "{596, 141}";
type = Stem;
},
{
horizontal = 1;
place = "{795, 94}";
type = Stem;
},
{
place = "{170.5, 132}";
type = Stem;
},
{
place = "{425.5, 132}";
type = Stem;
},
{
horizontal = 1;
place = "{873, 74}";
type = Stem;
}
);
layerId = "D215EC84-7FFD-4436-99F3-284D9B779A16";
paths = (
{
closed = 1;
nodes = (
"198 0 LINE",
"235.49 147 LINE",
"500.51 147 LINE",
"538 0 LINE",
"736 0 LINE",
"520 737 LINE",
"216 737 LINE",
"0 0 LINE"
);
},
{
closed = 1;
nodes = (
"350 596 LINE",
"386 596 LINE",
"463.78 291 LINE",
"272.21 291 LINE"
);
},
{
closed = 1;
nodes = (
"471.5 795 LINE",
"557.5 873 LINE",
"557.5 947 LINE",
"425.5 947 LINE",
"425.5 902 LINE",
"411.5 889 LINE",
"316.5 889 LINE",
"302.5 902 LINE",
"302.5 947 LINE",
"170.5 947 LINE",
"170.5 873 LINE",
"255.5 795 LINE"
);
}
);
width = 736;
}
);
leftKerningGroup = A;
note = Abreve;
rightKerningGroup = A;
unicode = 0102;
},
{
glyphname = uni1EAE;
lastChange = "2019-09-24 19:26:15 +0000";
layers = (
{
hints = (
{
horizontal = 1;
place = "{147, 144}";
type = Stem;
},
{
horizontal = 1;
place = "{596, 141}";
type = Stem;
},
{
horizontal = 1;
place = "{795, 94}";
type = Stem;
},
{
horizontal = 1;
place = "{979, 157}";
type = Stem;
},
{
place = "{170.5, 132}";
type = Stem;
},
{
place = "{425.5, 132}";
type = Stem;
},
{
horizontal = 1;
place = "{873, 74}";
type = Stem;
}
);
layerId = "D215EC84-7FFD-4436-99F3-284D9B779A16";
paths = (
{
closed = 1;
nodes = (
"198 0 LINE",
"235.49 147 LINE",
"500.51 147 LINE",
"538 0 LINE",
"736 0 LINE",
"520 737 LINE",
"216 737 LINE",
"0 0 LINE"
);
},
{
closed = 1;
nodes = (
"350 596 LINE",
"386 596 LINE",
"463.78 291 LINE",
"272.21 291 LINE"
);
},
{
closed = 1;
nodes = (
"471.5 795 LINE",
"557.5 873 LINE",
"557.5 947 LINE",
"425.5 947 LINE",
"425.5 902 LINE",
"411.5 889 LINE",
"316.5 889 LINE",
"302.5 902 LINE",
"302.5 947 LINE",
"170.5 947 LINE",
"170.5 873 LINE",
"255.5 795 LINE"
);
},
{
closed = 1;
nodes = (
"435.75 979 LINE",
"585.75 1136 LINE",
"403.75 1136 LINE",
"298.75 979 LINE"
);
}
);
width = 736;
}
);
leftKerningGroup = A;
note = uni1EAE;
rightKerningGroup = A;
unicode = 1EAE;
},
{
glyphname = uni1EB6;
lastChange = "2019-09-24 19:26:15 +0000";
layers = (
{
hints = (
{
horizontal = 1;
place = "{-197, 140}";
type = Stem;
},
{
horizontal = 1;
place = "{147, 144}";
type = Stem;
},
{
horizontal = 1;
place = "{596, 141}";
type = Stem;
},
{
horizontal = 1;
place = "{795, 94}";
type = Stem;
},
{
place = "{425.5, 132}";
type = Stem;
},
{
horizontal = 1;
place = "{873, 74}";
type = Stem;
},
{
place = "{170.5, 132}";
type = Stem;
},
{
place = "{270.5, 187}";
type = Stem;
}
);
layerId = "D215EC84-7FFD-4436-99F3-284D9B779A16";
paths = (
{
closed = 1;
nodes = (
"198 0 LINE",
"235.49 147 LINE",
"500.51 147 LINE",
"538 0 LINE",
"736 0 LINE",
"520 737 LINE",
"216 737 LINE",
"0 0 LINE"
);
},
{
closed = 1;
nodes = (
"457.5 -197 LINE",
"457.5 -57 LINE",
"270.5 -57 LINE",
"270.5 -197 LINE"
);
},
{
closed = 1;
nodes = (
"350 596 LINE",
"386 596 LINE",
"463.78 291 LINE",
"272.21 291 LINE"
);
},
{
closed = 1;
nodes = (
"471.5 795 LINE",
"557.5 873 LINE",
"557.5 947 LINE",
"425.5 947 LINE",
"425.5 902 LINE",
"411.5 889 LINE",
"316.5 889 LINE",
"302.5 902 LINE",
"302.5 947 LINE",
"170.5 947 LINE",
"170.5 873 LINE",
"255.5 795 LINE"
);
}
);
width = 736;
}
);
leftKerningGroup = A;
note = uni1EB6;
rightKerningGroup = A;
unicode = 1EB6;
},
{
glyphname = uni1EB0;
lastChange = "2019-09-24 19:26:15 +0000";
layers = (
{
hints = (
{
horizontal = 1;
place = "{147, 144}";
type = Stem;
},
{
horizontal = 1;
place = "{596, 141}";
type = Stem;
},
{
horizontal = 1;
place = "{795, 94}";
type = Stem;
},
{
horizontal = 1;
place = "{979, 157}";
type = Stem;
},
{
place = "{170.5, 132}";
type = Stem;
},
{
place = "{425.5, 132}";
type = Stem;
},
{
horizontal = 1;
place = "{873, 74}";
type = Stem;
}
);
layerId = "D215EC84-7FFD-4436-99F3-284D9B779A16";
paths = (
{
closed = 1;
nodes = (
"198 0 LINE",
"235.49 147 LINE",
"500.51 147 LINE",
"538 0 LINE",
"736 0 LINE",
"520 737 LINE",
"216 737 LINE",
"0 0 LINE"
);
},
{
closed = 1;
nodes = (
"350 596 LINE",
"386 596 LINE",
"463.78 291 LINE",
"272.21 291 LINE"
);
},
{
closed = 1;
nodes = (
"471.5 795 LINE",
"557.5 873 LINE",
"557.5 947 LINE",
"425.5 947 LINE",
"425.5 902 LINE",
"411.5 889 LINE",
"316.5 889 LINE",
"302.5 902 LINE",
"302.5 947 LINE",
"170.5 947 LINE",
"170.5 873 LINE",
"255.5 795 LINE"
);
},
{
closed = 1;
nodes = (
"421.5 979 LINE",
"316.5 1136 LINE",
"134.5 1136 LINE",
"284.5 979 LINE"
);
}
);
width = 736;
}
);
leftKerningGroup = A;
note = uni1EB0;
rightKerningGroup = A;
unicode = 1EB0;
},
{
glyphname = uni1EB2;
lastChange = "2019-09-24 19:26:15 +0000";
layers = (
{
hints = (
{
horizontal = 1;
place = "{147, 144}";
type = Stem;
},
{
horizontal = 1;
place = "{596, 141}";
type = Stem;
},
{
horizontal = 1;
place = "{795, 94}";
type = Stem;
},
{
horizontal = 1;
place = "{1105, 100}";
type = Stem;
},
{
place = "{299, 127}";
type = Stem;
},
{
horizontal = 1;
place = "{979, 80}";
type = Stem;
},
{
place = "{374, 125}";
type = Stem;
},
{
place = "{229, 113}";
type = Stem;
},
{
place = "{425.5, 132}";
type = Stem;
},
{
horizontal = 1;
place = "{873, 74}";
type = Stem;
},
{
place = "{170.5, 132}";
type = Stem;
}
);
layerId = "D215EC84-7FFD-4436-99F3-284D9B779A16";
paths = (
{
closed = 1;
nodes = (
"198 0 LINE",
"235.49 147 LINE",
"500.51 147 LINE",
"538 0 LINE",
"736 0 LINE",
"520 737 LINE",
"216 737 LINE",
"0 0 LINE"
);
},
{
closed = 1;
nodes = (
"350 596 LINE",
"386 596 LINE",
"463.78 291 LINE",
"272.21 291 LINE"
);
},
{
closed = 1;
nodes = (
"471.5 795 LINE",
"557.5 873 LINE",
"557.5 947 LINE",
"425.5 947 LINE",
"425.5 902 LINE",
"411.5 889 LINE",
"316.5 889 LINE",
"302.5 902 LINE",
"302.5 947 LINE",
"170.5 947 LINE",
"170.5 873 LINE",
"255.5 795 LINE"
);
},
{
closed = 1;
nodes = (
"426 979 LINE",
"426 1020 LINE",
"499 1062 LINE",
"499 1165 LINE",
"456 1205 LINE",
"272 1205 LINE",
"229 1165 LINE",
"229 1105 LINE",
"342 1105 LINE",
"342 1134 LINE",
"374 1134 LINE",
"374 1105 LINE",
"299 1059 LINE",
"299 979 LINE"
);
}
);
width = 736;
}
);
leftKerningGroup = A;
note = uni1EB2;
rightKerningGroup = A;
unicode = 1EB2;
},
{
glyphname = uni1EB4;
lastChange = "2019-09-24 19:26:15 +0000";
layers = (
{
hints = (
{
horizontal = 1;
place = "{147, 144}";
type = Stem;
},
{
horizontal = 1;
place = "{596, 141}";
type = Stem;
},
{
horizontal = 1;
place = "{795, 94}";
type = Stem;
},
{
horizontal = 1;
place = "{986, 150}";
type = Stem;
},
{
place = "{147, 125}";
type = Stem;
},
{
place = "{425.5, 132}";
type = Stem;
},
{
horizontal = 1;
place = "{979, 151}";
type = Stem;
},
{
place = "{170.5, 132}";
type = Stem;
},
{
place = "{474, 125.5}";
type = Stem;
},
{
horizontal = 1;
place = "{873, 74}";
type = Stem;
}
);
layerId = "D215EC84-7FFD-4436-99F3-284D9B779A16";
paths = (
{
closed = 1;
nodes = (
"198 0 LINE",
"235.49 147 LINE",
"500.51 147 LINE",
"538 0 LINE",
"736 0 LINE",
"520 737 LINE",
"216 737 LINE",
"0 0 LINE"
);
},
{
closed = 1;
nodes = (
"350 596 LINE",
"386 596 LINE",
"463.78 291 LINE",
"272.21 291 LINE"
);
},
{
closed = 1;
nodes = (
"471.5 795 LINE",
"557.5 873 LINE",
"557.5 947 LINE",
"425.5 947 LINE",
"425.5 902 LINE",
"411.5 889 LINE",
"316.5 889 LINE",
"302.5 902 LINE",
"302.5 947 LINE",
"170.5 947 LINE",
"170.5 873 LINE",
"255.5 795 LINE"
);
},
{
closed = 1;
nodes = (
"531 979 LINE",
"599 1051 LINE",
"600 1130 LINE",
"474 1130 LINE",
"474 1103 LINE",
"460 1077 LINE",
"440 1077 LINE",
"393 1136 LINE",
"215 1136 LINE",
"148 1067 LINE",
"146 986 LINE",
"272 986 LINE",
"272 1011 LINE",
"286 1042 LINE",
"306 1042 LINE",
"353 979 LINE"
);
}
);
width = 736;
}
);
leftKerningGroup = A;
note = uni1EB4;
rightKerningGroup = A;
unicode = 1EB4;
},
{
glyphname = Acircumflex;
lastChange = "2019-09-24 19:26:15 +0000";
layers = (
{
hints = (
{
horizontal = 1;
place = "{147, 144}";
type = Stem;
},
{
horizontal = 1;
place = "{596, 141}";
type = Stem;
},
{
horizontal = 1;
place = "{795, 152}";
type = Stem;
},
{
place = "{0, 736}";
type = Stem;
}
);
layerId = "D215EC84-7FFD-4436-99F3-284D9B779A16";
paths = (
{
closed = 1;
nodes = (
"198 0 LINE",
"235.49 147 LINE",
"500.51 147 LINE",
"538 0 LINE",
"736 0 LINE",
"520 737 LINE",
"216 737 LINE",
"0 0 LINE"
);
},
{
closed = 1;
nodes = (
"350 596 LINE",
"386 596 LINE",
"463.78 291 LINE",
"272.21 291 LINE"
);
},
{
closed = 1;
nodes = (
"293 795 LINE",
"364 867 LINE",
"434 795 LINE",
"576 795 LINE",
"463 947 LINE",
"265 947 LINE",
"152 795 LINE"
);
}
);
width = 736;
}
);
leftKerningGroup = A;
note = Acircumflex;
rightKerningGroup = A;
unicode = 00C2;
},
{
glyphname = uni1EA4;
lastChange = "2019-09-24 19:26:15 +0000";
layers = (
{
hints = (
{
horizontal = 1;
place = "{147, 144}";
type = Stem;
},
{
horizontal = 1;
place = "{596, 141}";
type = Stem;
},
{
horizontal = 1;
place = "{876.73, 157}";
type = Stem;
},
{
place = "{0, 848}";
type = Stem;
},
{
horizontal = 1;
place = "{795, 152}";
type = Stem;
}
);
layerId = "D215EC84-7FFD-4436-99F3-284D9B779A16";
paths = (
{
closed = 1;
nodes = (
"198 0 LINE",
"235.49 147 LINE",
"500.51 147 LINE",
"538 0 LINE",
"736 0 LINE",
"520 737 LINE",
"216 737 LINE",
"0 0 LINE"
);
},
{
closed = 1;
nodes = (
"350 596 LINE",
"386 596 LINE",
"463.78 291 LINE",
"272.21 291 LINE"
);
},
{
closed = 1;
nodes = (
"294 795 LINE",
"364 867 LINE",
"435 795 LINE",
"576 795 LINE",
"463 947 LINE",
"265 947 LINE",
"152 795 LINE"
);
},
{
closed = 1;
nodes = (
"698 876.73 LINE",
"848 1033.73 LINE",
"666 1033.73 LINE",
"561 876.73 LINE"
);
}
);
width = 736;
}
);
leftKerningGroup = A;
note = uni1EA4;
rightKerningGroup = A;
unicode = 1EA4;
},
{
glyphname = uni1EAC;
lastChange = "2019-09-24 19:26:15 +0000";
layers = (
{
hints = (
{
horizontal = 1;
place = "{-197, 140}";
type = Stem;
},
{
horizontal = 1;
place = "{147, 144}";
type = Stem;
},
{
horizontal = 1;
place = "{596, 141}";
type = Stem;
},
{
horizontal = 1;
place = "{795, 152}";
type = Stem;
},
{
place = "{270.5, 187}";
type = Stem;
}
);
layerId = "D215EC84-7FFD-4436-99F3-284D9B779A16";
paths = (
{
closed = 1;
nodes = (
"198 0 LINE",
"235.49 147 LINE",
"500.51 147 LINE",
"538 0 LINE",
"736 0 LINE",
"520 737 LINE",
"216 737 LINE",
"0 0 LINE"
);
},
{
closed = 1;
nodes = (
"457.5 -197 LINE",
"457.5 -57 LINE",
"270.5 -57 LINE",
"270.5 -197 LINE"
);
},
{
closed = 1;
nodes = (
"350 596 LINE",
"386 596 LINE",
"463.78 291 LINE",
"272.21 291 LINE"
);
},
{
closed = 1;
nodes = (
"293 795 LINE",
"364 867 LINE",
"434 795 LINE",
"576 795 LINE",
"463 947 LINE",
"265 947 LINE",
"152 795 LINE"
);
}
);
width = 736;
}
);
leftKerningGroup = A;
note = uni1EAC;
rightKerningGroup = A;
unicode = 1EAC;
},
{
glyphname = uni1EA6;
lastChange = "2019-09-24 19:26:15 +0000";
layers = (
{
hints = (
{
horizontal = 1;
place = "{147, 144}";
type = Stem;
},
{
horizontal = 1;
place = "{596, 141}";
type = Stem;
},
{
horizontal = 1;
place = "{876.77, 157}";
type = Stem;
},
{
place = "{-120, 856}";
type = Stem;
},
{
horizontal = 1;
place = "{795, 152}";
type = Stem;
}
);
layerId = "D215EC84-7FFD-4436-99F3-284D9B779A16";
paths = (
{
closed = 1;
nodes = (
"198 0 LINE",
"235.49 147 LINE",
"500.51 147 LINE",
"538 0 LINE",
"736 0 LINE",
"520 737 LINE",
"216 737 LINE",
"0 0 LINE"
);
},
{
closed = 1;
nodes = (
"350 596 LINE",
"386 596 LINE",
"463.78 291 LINE",
"272.21 291 LINE"
);
},
{
closed = 1;
nodes = (
"167 876.77 LINE",
"62 1033.77 LINE",
"-120 1033.77 LINE",
"30 876.77 LINE"
);
},
{
closed = 1;
nodes = (
"293 795 LINE",
"364 867 LINE",
"434 795 LINE",
"576 795 LINE",
"463 947 LINE",
"265 947 LINE",
"152 795 LINE"
);
}
);
width = 736;
}
);
leftKerningGroup = A;
note = uni1EA6;
rightKerningGroup = A;
unicode = 1EA6;
},
{
glyphname = uni1EA8;
lastChange = "2019-09-24 19:26:15 +0000";
layers = (
{
hints = (
{
horizontal = 1;
place = "{147, 144}";
type = Stem;
},
{
horizontal = 1;
place = "{596, 141}";
type = Stem;
},
{
horizontal = 1;
place = "{795, 152}";
type = Stem;
},
{
horizontal = 1;
place = "{1002.68, 100}";
type = Stem;
},
{
place = "{560, 127}";
type = Stem;
},
{
place = "{490, 113}";
type = Stem;
},
{
place = "{635, 125}";
type = Stem;
}
);
layerId = "D215EC84-7FFD-4436-99F3-284D9B779A16";
paths = (
{
closed = 1;
nodes = (
"198 0 LINE",
"235.49 147 LINE",
"500.51 147 LINE",
"538 0 LINE",
"736 0 LINE",
"520 737 LINE",
"216 737 LINE",
"0 0 LINE"
);
},
{
closed = 1;
nodes = (
"350 596 LINE",
"386 596 LINE",
"463.78 291 LINE",
"272.21 291 LINE"
);
},
{
closed = 1;
nodes = (
"293 795 LINE",
"364 867 LINE",
"434 795 LINE",
"576 795 LINE",
"463 947 LINE",
"265 947 LINE",
"152 795 LINE"
);
},
{
closed = 1;
nodes = (
"687 876.68 LINE",
"687 917.68 LINE",
"760 959.68 LINE",
"760 1062.68 LINE",
"717 1102.68 LINE",
"533 1102.68 LINE",
"490 1062.68 LINE",
"490 1002.68 LINE",
"603 1002.68 LINE",
"603 1031.68 LINE",
"635 1031.68 LINE",
"635 1002.68 LINE",
"560 956.68 LINE",
"560 876.68 LINE"
);
}
);
width = 736;
}
);
leftKerningGroup = A;
note = uni1EA8;
rightKerningGroup = A;
unicode = 1EA8;
},
{
glyphname = uni1EAA;
lastChange = "2019-09-24 19:26:15 +0000";
layers = (
{
hints = (
{
horizontal = 1;
place = "{147, 144}";
type = Stem;
},
{
horizontal = 1;
place = "{596, 141}";
type = Stem;
},
{
horizontal = 1;
place = "{795, 152}";
type = Stem;
},
{
horizontal = 1;
place = "{986, 150}";
type = Stem;
},
{
place = "{147, 125}";
type = Stem;
},
{
place = "{474, 125.5}";
type = Stem;
},
{
horizontal = 1;
place = "{979, 151}";
type = Stem;
}
);
layerId = "D215EC84-7FFD-4436-99F3-284D9B779A16";
paths = (
{
closed = 1;
nodes = (
"198 0 LINE",
"235.49 147 LINE",
"500.51 147 LINE",
"538 0 LINE",
"736 0 LINE",
"520 737 LINE",
"216 737 LINE",
"0 0 LINE"
);
},
{
closed = 1;
nodes = (
"350 596 LINE",
"386 596 LINE",
"463.78 291 LINE",
"272.21 291 LINE"
);
},
{
closed = 1;
nodes = (
"293 795 LINE",
"364 867 LINE",
"434 795 LINE",
"576 795 LINE",
"463 947 LINE",
"265 947 LINE",
"152 795 LINE"
);
},
{
closed = 1;
nodes = (
"531 979 LINE",
"599 1051 LINE",
"600 1130 LINE",
"474 1130 LINE",
"474 1103 LINE",
"460 1077 LINE",
"440 1077 LINE",
"393 1136 LINE",
"215 1136 LINE",
"148 1067 LINE",
"146 986 LINE",
"272 986 LINE",
"272 1011 LINE",
"286 1042 LINE",
"306 1042 LINE",
"353 979 LINE"
);
}
);
width = 736;
}
);
leftKerningGroup = A;
note = uni1EAA;
rightKerningGroup = A;
unicode = 1EAA;
},
{
glyphname = uni0200;
lastChange = "2019-09-24 19:26:15 +0000";
layers = (
{
hints = (
{
horizontal = 1;
place = "{147, 144}";
type = Stem;
},
{
horizontal = 1;
place = "{596, 141}";
type = Stem;
},
{
horizontal = 1;
place = "{795, 157}";
type = Stem;
},
{
place = "{0, 736}";
type = Stem;
}
);
layerId = "D215EC84-7FFD-4436-99F3-284D9B779A16";
paths = (
{
closed = 1;
nodes = (
"198 0 LINE",
"235.49 147 LINE",
"500.51 147 LINE",
"538 0 LINE",
"736 0 LINE",
"520 737 LINE",
"216 737 LINE",
"0 0 LINE"
);
},
{
closed = 1;
nodes = (
"350 596 LINE",
"386 596 LINE",
"463.78 291 LINE",
"272.21 291 LINE"
);
},
{
closed = 1;
nodes = (
"325 795 LINE",
"220 952 LINE",
"38 952 LINE",
"188 795 LINE"
);
},
{
closed = 1;
nodes = (
"535 795 LINE",
"430 952 LINE",
"248 952 LINE",
"398 795 LINE"
);
}
);
width = 736;
}
);
leftKerningGroup = A;
note = uni0200;
rightKerningGroup = A;
unicode = 0200;
},
{
glyphname = Adieresis;
lastChange = "2019-09-24 19:26:15 +0000";
layers = (
{
hints = (
{
horizontal = 1;
place = "{147, 144}";
type = Stem;
},
{
horizontal = 1;
place = "{596, 141}";
type = Stem;
},
{
horizontal = 1;
place = "{795, 140}";
type = Stem;
},
{
place = "{134, 175}";
type = Stem;
},
{
place = "{419, 175}";
type = Stem;
},
{
horizontal = 1;
place = "{795, 140}";
type = Stem;
},
{
place = "{261, 175}";
type = Stem;
},
{
place = "{546, 175}";
type = Stem;
},
{
horizontal = 1;
place = "{795, 118}";
type = Stem;
},
{
place = "{232, 460}";
type = Stem;
},
{
horizontal = 1;
place = "{795, 140}";
type = Stem;
},
{
place = "{-371, 175}";
type = Stem;
},
{
place = "{-86, 175}";
type = Stem;
},
{
horizontal = 1;
place = "{795, 140}";
type = Stem;
},
{
place = "{169, 187}";
type = Stem;
},
{
horizontal = 1;
place = "{795, 140}";
type = Stem;
},
{
place = "{-104, 187}";
type = Stem;
}
);
layerId = "D215EC84-7FFD-4436-99F3-284D9B779A16";
paths = (
{
closed = 1;
nodes = (
"198 0 LINE",
"235.49 147 LINE",
"500.51 147 LINE",
"538 0 LINE",
"736 0 LINE",
"520 737 LINE",
"216 737 LINE",
"0 0 LINE"
);
},
{
closed = 1;
nodes = (
"350 596 LINE",
"386 596 LINE",
"463.78 291 LINE",
"272.21 291 LINE"
);
},
{
closed = 1;
nodes = (
"598 795 LINE",
"598 935 LINE",
"411 935 LINE",
"411 795 LINE"
);
},
{
closed = 1;
nodes = (
"325 795 LINE",
"325 935 LINE",
"138 935 LINE",
"138 795 LINE"
);
}
);
width = 736;
}
);
leftKerningGroup = A;
note = Adieresis;
rightKerningGroup = A;
unicode = 00C4;
},
{
glyphname = uni1EA0;
lastChange = "2019-09-24 19:26:15 +0000";
layers = (
{
hints = (
{
horizontal = 1;
place = "{-197, 140}";
type = Stem;
},
{
horizontal = 1;
place = "{147, 144}";
type = Stem;
},
{
horizontal = 1;
place = "{596, 141}";
type = Stem;
},
{
place = "{270.5, 187}";
type = Stem;
}
);
layerId = "D215EC84-7FFD-4436-99F3-284D9B779A16";
paths = (
{
closed = 1;
nodes = (
"198 0 LINE",
"235.49 147 LINE",
"500.51 147 LINE",
"538 0 LINE",
"736 0 LINE",
"520 737 LINE",
"216 737 LINE",
"0 0 LINE"
);
},
{
closed = 1;
nodes = (
"457.5 -197 LINE",
"457.5 -57 LINE",
"270.5 -57 LINE",
"270.5 -197 LINE"
);
},
{
closed = 1;
nodes = (
"350 596 LINE",
"386 596 LINE",
"463.78 291 LINE",
"272.21 291 LINE"
);
}
);
width = 736;
}
);
leftKerningGroup = A;
note = uni1EA0;
rightKerningGroup = A;
unicode = 1EA0;
},
{
glyphname = Agrave;
lastChange = "2019-09-24 19:26:15 +0000";
layers = (
{
hints = (
{
horizontal = 1;
place = "{147, 144}";
type = Stem;
},
{
horizontal = 1;
place = "{596, 141}";
type = Stem;
},
{
horizontal = 1;
place = "{795, 157}";
type = Stem;
},
{
place = "{0, 736}";
type = Stem;
}
);
layerId = "D215EC84-7FFD-4436-99F3-284D9B779A16";
paths = (
{
closed = 1;
nodes = (
"198 0 LINE",
"235.49 147 LINE",
"500.51 147 LINE",
"538 0 LINE",
"736 0 LINE",
"520 737 LINE",
"216 737 LINE",
"0 0 LINE"
);
},
{
closed = 1;
nodes = (
"350 596 LINE",
"386 596 LINE",
"463.78 291 LINE",
"272.21 291 LINE"
);
},
{
closed = 1;
nodes = (
"427 795 LINE",
"322 952 LINE",
"140 952 LINE",
"290 795 LINE"
);
}
);
width = 736;
}
);
leftKerningGroup = A;
note = Agrave;
rightKerningGroup = A;
unicode = 00C0;
},
{
glyphname = uni1EA2;
lastChange = "2019-09-24 19:26:15 +0000";
layers = (
{
hints = (
{
horizontal = 1;
place = "{147, 144}";
type = Stem;
},
{
horizontal = 1;
place = "{596, 141}";
type = Stem;
},
{
horizontal = 1;
place = "{921, 100}";
type = Stem;
},
{
place = "{299, 127}";
type = Stem;
},
{
horizontal = 1;
place = "{795, 80}";
type = Stem;
},
{
place = "{374, 125}";
type = Stem;
},
{
place = "{229, 113}";
type = Stem;
}
);
layerId = "D215EC84-7FFD-4436-99F3-284D9B779A16";
paths = (
{
closed = 1;
nodes = (
"198 0 LINE",
"235.49 147 LINE",
"500.51 147 LINE",
"538 0 LINE",
"736 0 LINE",
"520 737 LINE",
"216 737 LINE",
"0 0 LINE"
);
},
{
closed = 1;
nodes = (
"350 596 LINE",
"386 596 LINE",
"463.78 291 LINE",
"272.21 291 LINE"
);
},
{
closed = 1;
nodes = (
"426 795 LINE",
"426 836 LINE",
"499 878 LINE",
"499 981 LINE",
"456 1021 LINE",
"272 1021 LINE",
"229 981 LINE",
"229 921 LINE",
"342 921 LINE",
"342 950 LINE",
"374 950 LINE",
"374 921 LINE",
"299 875 LINE",
"299 795 LINE"
);
}
);
width = 736;
}
);
leftKerningGroup = A;
note = uni1EA2;
rightKerningGroup = A;
unicode = 1EA2;
},
{
glyphname = uni0202;
lastChange = "2019-09-24 19:26:15 +0000";
layers = (
{
hints = (
{
horizontal = 1;
place = "{147, 144}";
type = Stem;
},
{
horizontal = 1;
place = "{596, 141}";
type = Stem;
},
{
horizontal = 1;
place = "{853, 93}";
type = Stem;
},
{
place = "{170.5, 132}";
type = Stem;
},
{
place = "{425.5, 132}";
type = Stem;
}
);
layerId = "D215EC84-7FFD-4436-99F3-284D9B779A16";
paths = (
{
closed = 1;
nodes = (
"198 0 LINE",
"235.49 147 LINE",
"500.51 147 LINE",
"538 0 LINE",
"736 0 LINE",
"520 737 LINE",
"216 737 LINE",
"0 0 LINE"
);
},
{
closed = 1;
nodes = (
"350 596 LINE",
"386 596 LINE",
"463.78 291 LINE",
"272.21 291 LINE"
);
},
{
closed = 1;
nodes = (
"302.5 795 LINE",
"302.5 840 LINE",
"316.5 853 LINE",
"411.5 853 LINE",
"425.5 840 LINE",
"425.5 795 LINE",
"557.5 795 LINE",
"557.5 868 LINE",
"471.5 946 LINE",
"255.5 946 LINE",
"170.5 868 LINE",
"170.5 795 LINE"
);
}
);
width = 736;
}
);
leftKerningGroup = A;
note = uni0202;
rightKerningGroup = A;
unicode = 0202;
},
{
glyphname = Amacron;
lastChange = "2019-09-24 19:26:15 +0000";
layers = (
{
hints = (
{
horizontal = 1;
place = "{147, 144}";
type = Stem;
},
{
horizontal = 1;
place = "{596, 141}";
type = Stem;
},
{
horizontal = 1;
place = "{795, 118}";
type = Stem;
},
{
place = "{0, 736}";
type = Stem;
}
);
layerId = "D215EC84-7FFD-4436-99F3-284D9B779A16";
paths = (
{
closed = 1;
nodes = (
"198 0 LINE",
"235.49 147 LINE",
"500.51 147 LINE",
"538 0 LINE",
"736 0 LINE",
"520 737 LINE",
"216 737 LINE",
"0 0 LINE"
);
},
{
closed = 1;
nodes = (
"350 596 LINE",
"386 596 LINE",
"463.78 291 LINE",
"272.21 291 LINE"
);
},
{
closed = 1;
nodes = (
"594 795 LINE",
"594 913 LINE",
"134 913 LINE",
"134 795 LINE"
);
}
);
width = 736;
}
);
leftKerningGroup = A;
note = Amacron;
rightKerningGroup = A;
unicode = 0100;
},
{
glyphname = Aogonek;
lastChange = "2019-09-24 19:26:15 +0000";
layers = (
{
hints = (
{
horizontal = 1;
place = "{-180, 102}";
type = Stem;
},
{
horizontal = 1;
place = "{147, 144}";
type = Stem;
},
{
horizontal = 1;
place = "{596, 141}";
type = Stem;
},
{
place = "{493, 150}";
type = Stem;
}
);
layerId = "D215EC84-7FFD-4436-99F3-284D9B779A16";
paths = (
{
closed = 1;
nodes = (
"643 -180 LINE",
"643 -78 LINE",
"615 -78 LINE",
"596 -60 LINE",
"596 -33 LINE",
"631 0 LINE",
"736 0 LINE",
"520 737 LINE",
"216 737 LINE",
"0 0 LINE",
"198 0 LINE",
"235.49 147 LINE",
"500.51 147 LINE",
"538 0 LINE",
"493 -33 LINE",
"493 -114 LINE",
"566 -180 LINE"
);
},
{
closed = 1;
nodes = (
"350 596 LINE",
"386 596 LINE",
"463.78 291 LINE",
"272.21 291 LINE"
);
}
);
width = 736;
}
);
leftKerningGroup = A;
note = Aogonek;
rightKerningGroup = A;
unicode = 0104;
},
{
glyphname = Aring;
lastChange = "2019-09-24 19:26:15 +0000";
layers = (
{
hints = (
{
horizontal = 1;
place = "{147, 144}";
type = Stem;
},
{
horizontal = 1;
place = "{596, 141}";
type = Stem;
},
{
horizontal = 1;
place = "{795, 79}";
type = Stem;
},
{
horizontal = 1;
place = "{940, 80}";
type = Stem;
},
{
place = "{234, 97}";
type = Stem;
},
{
place = "{397, 97}";
type = Stem;
}
);
layerId = "D215EC84-7FFD-4436-99F3-284D9B779A16";
paths = (
{
closed = 1;
nodes = (
"198 0 LINE",
"235.49 147 LINE",
"500.51 147 LINE",
"538 0 LINE",
"736 0 LINE",
"520 737 LINE",
"216 737 LINE",
"0 0 LINE"
);
},
{
closed = 1;
nodes = (
"350 596 LINE",
"386 596 LINE",
"463.78 291 LINE",
"272.21 291 LINE"
);
},
{
closed = 1;
nodes = (
"422 795 LINE",
"494 867 LINE",
"494 948 LINE",
"422 1020 LINE",
"306 1020 LINE",
"234 948 LINE",
"234 867 LINE",
"306 795 LINE"
);
},
{
closed = 1;
nodes = (
"331 895 LINE",
"331 919 LINE",
"352 940 LINE",
"376 940 LINE",
"397 919 LINE",
"397 895 LINE",
"376 874 LINE",
"352 874 LINE"
);
}
);
width = 736;
}
);
leftKerningGroup = A;
note = Aring;
rightKerningGroup = A;
unicode = 00C5;
},
{
glyphname = Aringacute;
lastChange = "2019-09-24 19:26:15 +0000";
layers = (
{
hints = (
{
horizontal = 1;
place = "{147, 144}";
type = Stem;
},
{
horizontal = 1;
place = "{596, 141}";
type = Stem;
},
{
horizontal = 1;
place = "{795, 79}";
type = Stem;
},
{
horizontal = 1;
place = "{940, 80}";
type = Stem;
},
{
horizontal = 1;
place = "{1052, 157}";
type = Stem;
},
{
place = "{234, 97}";
type = Stem;
},
{
place = "{397, 97}";
type = Stem;
}
);
layerId = "D215EC84-7FFD-4436-99F3-284D9B779A16";
paths = (
{
closed = 1;
nodes = (
"198 0 LINE",
"235.49 147 LINE",
"500.51 147 LINE",
"538 0 LINE",
"736 0 LINE",
"520 737 LINE",
"216 737 LINE",
"0 0 LINE"
);
},
{
closed = 1;
nodes = (
"350 596 LINE",
"386 596 LINE",
"463.78 291 LINE",
"272.21 291 LINE"
);
},
{
closed = 1;
nodes = (
"422 795 LINE",
"494 867 LINE",
"494 948 LINE",
"422 1020 LINE",
"306 1020 LINE",
"234 948 LINE",
"234 867 LINE",
"306 795 LINE"
);
},
{
closed = 1;
nodes = (
"331 895 LINE",
"331 919 LINE",
"352 940 LINE",
"376 940 LINE",
"397 919 LINE",
"397 895 LINE",
"376 874 LINE",
"352 874 LINE"
);
},
{
closed = 1;
nodes = (
"432 1052 LINE",
"582 1209 LINE",
"400 1209 LINE",
"295 1052 LINE"
);
}
);
width = 736;
}
);
leftKerningGroup = A;
note = Aringacute;
rightKerningGroup = A;
unicode = 01FA;
},
{
glyphname = Atilde;
lastChange = "2019-09-24 19:26:15 +0000";
layers = (
{
hints = (
{
horizontal = 1;
place = "{147, 144}";
type = Stem;
},
{
horizontal = 1;
place = "{596, 141}";
type = Stem;
},
{
horizontal = 1;
place = "{802, 150}";
type = Stem;
},
{
place = "{142, 125}";
type = Stem;
},
{
place = "{469, 125.5}";
type = Stem;
},
{
horizontal = 1;
place = "{795, 151}";
type = Stem;
}
);
layerId = "D215EC84-7FFD-4436-99F3-284D9B779A16";
paths = (
{
closed = 1;
nodes = (
"198 0 LINE",
"235.49 147 LINE",
"500.51 147 LINE",
"538 0 LINE",
"736 0 LINE",
"520 737 LINE",
"216 737 LINE",
"0 0 LINE"
);
},
{
closed = 1;
nodes = (
"350 596 LINE",
"386 596 LINE",
"463.78 291 LINE",
"272.21 291 LINE"
);
},
{
closed = 1;
nodes = (
"526 795 LINE",
"594 867 LINE",
"595 946 LINE",
"469 946 LINE",
"469 919 LINE",
"455 893 LINE",
"435 893 LINE",
"388 952 LINE",
"210 952 LINE",
"143 883 LINE",
"141 802 LINE",
"267 802 LINE",
"267 827 LINE",
"281 858 LINE",
"301 858 LINE",
"348 795 LINE"
);
}
);
width = 736;
}
);
leftKerningGroup = A;
note = Atilde;
rightKerningGroup = A;
unicode = 00C3;
},
{
glyphname = AE;
lastChange = "2019-09-24 19:26:15 +0000";
layers = (
{
hints = (
{
horizontal = 1;
place = "{0, 163}";
type = Stem;
},
{
horizontal = 1;
place = "{302, 152}";
type = Stem;
},
{
horizontal = 1;
place = "{574, 163}";
type = Stem;
},
{
place = "{0, 1037}";
type = Stem;
},
{
horizontal = 1;
place = "{147, 144}";
type = Stem;
}
);
layerId = "D215EC84-7FFD-4436-99F3-284D9B779A16";
paths = (
{
closed = 1;
nodes = (
"198 0 LINE",
"235.49 147 LINE",
"500.51 147 LINE",
"538 0 LINE",
"1037 0 LINE",
"1037 163 LINE",
"688.23 163 LINE",
"647.49 302 LINE",
"999 302 LINE",
"999 454 LINE",
"602.94 454 LINE",
"567.77 574 LINE",
"1037 574 LINE",
"1037 737 LINE",
"216 737 LINE",
"0 0 LINE"
);
},
{
closed = 1;
nodes = (
"350 596 LINE",
"386 596 LINE",
"463.78 291 LINE",
"272.21 291 LINE"
);
}
);
width = 1087;
}
);
leftKerningGroup = A;
note = AE;
rightKerningGroup = AE;
unicode = 00C6;
},
{
glyphname = AEacute;
lastChange = "2019-09-24 19:26:15 +0000";
layers = (
{
hints = (
{
horizontal = 1;
place = "{0, 163}";
type = Stem;
},
{
horizontal = 1;
place = "{302, 152}";
type = Stem;
},
{
horizontal = 1;
place = "{574, 163}";
type = Stem;
},
{
horizontal = 1;
place = "{795, 157}";
type = Stem;
},
{
place = "{0, 1037}";
type = Stem;
},
{
horizontal = 1;
place = "{147, 144}";
type = Stem;
}
);
layerId = "D215EC84-7FFD-4436-99F3-284D9B779A16";
paths = (
{
closed = 1;
nodes = (
"198 0 LINE",
"235.49 147 LINE",
"500.51 147 LINE",
"538 0 LINE",
"1037 0 LINE",
"1037 163 LINE",
"688.23 163 LINE",
"647.49 302 LINE",
"999 302 LINE",
"999 454 LINE",
"602.94 454 LINE",
"567.77 574 LINE",
"1037 574 LINE",
"1037 737 LINE",
"216 737 LINE",
"0 0 LINE"
);
},
{
closed = 1;
nodes = (
"350 596 LINE",
"386 596 LINE",
"463.78 291 LINE",
"272.21 291 LINE"
);
},
{
closed = 1;
nodes = (
"440 795 LINE",
"590 952 LINE",
"408 952 LINE",
"303 795 LINE"
);
}
);
width = 1087;
}
);
leftKerningGroup = A;
note = AEacute;
rightKerningGroup = AE;
unicode = 01FC;
},
{
glyphname = B;
lastChange = "2019-09-24 19:26:15 +0000";
layers = (
{
hints = (
{
horizontal = 1;
place = "{0, 142}";
type = Stem;
},
{
horizontal = 1;
place = "{321, 130}";
type = Stem;
},
{
horizontal = 1;
place = "{595, 142}";
type = Stem;
},
{
place = "{70, 187}";
type = Stem;
},
{
place = "{494.2, 179}";
type = Stem;
},
{
place = "{515.2, 187}";
type = Stem;
}
);
layerId = "D215EC84-7FFD-4436-99F3-284D9B779A16";
paths = (
{
closed = 1;
nodes = (
"591.2 0 LINE",
"702.2 111 LINE",
"702.2 324 LINE",
"623.2 398 LINE",
"673.2 449 LINE",
"673.2 626 LINE",
"562.2 737 LINE",
"70 737 LINE",
"70 0 LINE"
);
},
{
closed = 1;
nodes = (
"257 321 LINE",
"480.2 321 LINE",
"515.2 286 LINE",
"515.2 177 LINE",
"480.2 142 LINE",
"257 142 LINE"
);
},
{
closed = 1;
nodes = (
"257 595 LINE",
"459.2 595 LINE",
"494.2 560 LINE",
"494.2 486 LINE",
"459.2 451 LINE",
"257 451 LINE"
);
}
);
width = 747;
}
);
leftKerningGroup = B;
note = B;
rightKerningGroup = B;
unicode = 0042;
},
{
glyphname = C;
lastChange = "2019-09-24 19:26:15 +0000";
layers = (
{
hints = (
{
horizontal = 1;
place = "{0, 142}";
type = Stem;
},
{
horizontal = 1;
place = "{595, 142}";
type = Stem;
},
{
place = "{50, 187}";
type = Stem;
},
{
place = "{477, 181}";
type = Stem;
},
{
place = "{470, 182}";
type = Stem;
}
);
layerId = "D215EC84-7FFD-4436-99F3-284D9B779A16";
paths = (
{
closed = 1;
nodes = (
"547 0 LINE",
"658 111 LINE",
"658 261 LINE",
"477 261 LINE",
"477 177 LINE",
"440 142 LINE",
"273 142 LINE",
"237 177 LINE",
"237 560 LINE",
"273 595 LINE",
"434 595 LINE",
"470 560 LINE",
"470 477 LINE",
"652 477 LINE",
"652 626 LINE",
"540 737 LINE",
"161 737 LINE",
"50 626 LINE",
"50 111 LINE",
"161 0 LINE"
);
}
);
width = 670;
}
);
leftKerningGroup = C;
note = C;
rightKerningGroup = C;
unicode = 0043;
},
{
glyphname = Cacute;
lastChange = "2019-09-24 19:26:15 +0000";
layers = (
{
hints = (
{
horizontal = 1;
place = "{0, 142}";
type = Stem;
},
{
horizontal = 1;
place = "{595, 142}";
type = Stem;
},
{
horizontal = 1;
place = "{795, 157}";
type = Stem;
},
{
place = "{50, 187}";
type = Stem;
},
{
place = "{477, 181}";
type = Stem;
},
{
place = "{470, 182}";
type = Stem;
}
);
layerId = "D215EC84-7FFD-4436-99F3-284D9B779A16";
paths = (
{
closed = 1;
nodes = (
"547 0 LINE",
"658 111 LINE",
"658 261 LINE",
"477 261 LINE",
"477 177 LINE",
"440 142 LINE",
"273 142 LINE",
"237 177 LINE",
"237 560 LINE",
"273 595 LINE",
"434 595 LINE",
"470 560 LINE",
"470 477 LINE",
"652 477 LINE",
"652 626 LINE",
"540 737 LINE",
"161 737 LINE",
"50 626 LINE",
"50 111 LINE",
"161 0 LINE"
);
},
{
closed = 1;
nodes = (
"427 795 LINE",
"577 952 LINE",
"395 952 LINE",
"290 795 LINE"
);
}
);
width = 670;
}
);
leftKerningGroup = C;
note = Cacute;
rightKerningGroup = C;
unicode = 0106;
},
{
glyphname = Ccaron;
lastChange = "2019-09-24 19:26:15 +0000";
layers = (
{
hints = (
{
horizontal = 1;
place = "{0, 142}";
type = Stem;
},
{
horizontal = 1;
place = "{595, 142}";
type = Stem;
},
{
horizontal = 1;
place = "{795, 152}";
type = Stem;
},
{
place = "{50, 187}";
type = Stem;
},
{
place = "{477, 181}";
type = Stem;
},
{
place = "{470, 182}";
type = Stem;
}
);
layerId = "D215EC84-7FFD-4436-99F3-284D9B779A16";
paths = (
{
closed = 1;
nodes = (
"547 0 LINE",
"658 111 LINE",
"658 261 LINE",
"477 261 LINE",
"477 177 LINE",
"440 142 LINE",
"273 142 LINE",
"237 177 LINE",
"237 560 LINE",
"273 595 LINE",
"434 595 LINE",
"470 560 LINE",
"470 477 LINE",
"652 477 LINE",
"652 626 LINE",
"540 737 LINE",
"161 737 LINE",
"50 626 LINE",
"50 111 LINE",
"161 0 LINE"
);
},
{
closed = 1;
nodes = (
"450 795 LINE",
"563 947 LINE",
"421 947 LINE",
"351 875 LINE",
"280 947 LINE",
"139 947 LINE",
"252 795 LINE"
);
}
);
width = 670;
}
);
leftKerningGroup = C;
note = Ccaron;
rightKerningGroup = C;
unicode = 010C;
},
{
glyphname = Ccedilla;
lastChange = "2019-09-24 19:26:15 +0000";
layers = (
{
hints = (
{
horizontal = 1;
place = "{0, 142}";
type = Stem;
},
{
horizontal = 1;
place = "{595, 142}";
type = Stem;
},
{
place = "{50, 187}";
type = Stem;
},
{
place = "{477, 181}";
type = Stem;
},
{
place = "{470, 182}";
type = Stem;
}
);
layerId = "D215EC84-7FFD-4436-99F3-284D9B779A16";
paths = (
{
closed = 1;
nodes = (
"386 -125 LINE",
"436 0 LINE",
"547 0 LINE",
"658 111 LINE",
"658 261 LINE",
"477 261 LINE",
"477 177 LINE",
"440 142 LINE",
"273 142 LINE",
"237 177 LINE",
"237 560 LINE",
"273 595 LINE",
"434 595 LINE",
"470 560 LINE",
"470 477 LINE",
"652 477 LINE",
"652 626 LINE",
"540 737 LINE",
"161 737 LINE",
"50 626 LINE",
"50 111 LINE",
"161 0 LINE",
"285 0 LINE",
"265 -125 LINE"
);
}
);
width = 670;
}
);
leftKerningGroup = C;
note = Ccedilla;
rightKerningGroup = C;
unicode = 00C7;
},
{
glyphname = Ccircumflex;
lastChange = "2019-09-24 19:26:15 +0000";
layers = (
{
hints = (
{
horizontal = 1;
place = "{0, 142}";
type = Stem;
},
{
horizontal = 1;
place = "{595, 142}";
type = Stem;
},
{
horizontal = 1;
place = "{795, 152}";
type = Stem;
},
{
place = "{50, 187}";
type = Stem;
},
{
place = "{477, 181}";
type = Stem;
},
{
place = "{470, 182}";
type = Stem;
}
);
layerId = "D215EC84-7FFD-4436-99F3-284D9B779A16";
paths = (
{
closed = 1;
nodes = (
"547 0 LINE",
"658 111 LINE",
"658 261 LINE",
"477 261 LINE",
"477 177 LINE",
"440 142 LINE",
"273 142 LINE",
"237 177 LINE",
"237 560 LINE",
"273 595 LINE",
"434 595 LINE",
"470 560 LINE",
"470 477 LINE",
"652 477 LINE",
"652 626 LINE",
"540 737 LINE",
"161 737 LINE",
"50 626 LINE",
"50 111 LINE",
"161 0 LINE"
);
},
{
closed = 1;
nodes = (
"280 795 LINE",
"351 867 LINE",
"421 795 LINE",
"563 795 LINE",
"450 947 LINE",
"252 947 LINE",
"139 795 LINE"
);
}
);
width = 670;
}
);
leftKerningGroup = C;
note = Ccircumflex;
rightKerningGroup = C;
unicode = 0108;
},
{
glyphname = Cdotaccent;
lastChange = "2019-09-24 19:26:15 +0000";
layers = (
{
hints = (
{
horizontal = 1;
place = "{0, 142}";
type = Stem;
},
{
horizontal = 1;
place = "{595, 142}";
type = Stem;
},
{
horizontal = 1;
place = "{795, 140}";
type = Stem;
},
{
place = "{50, 187}";
type = Stem;
},
{
place = "{257.5, 187}";
type = Stem;
},
{
place = "{477, 181}";
type = Stem;
},
{
place = "{470, 182}";
type = Stem;
}
);
layerId = "D215EC84-7FFD-4436-99F3-284D9B779A16";
paths = (
{
closed = 1;
nodes = (
"547 0 LINE",
"658 111 LINE",
"658 261 LINE",
"477 261 LINE",
"477 177 LINE",
"440 142 LINE",
"273 142 LINE",
"237 177 LINE",
"237 560 LINE",
"273 595 LINE",
"434 595 LINE",
"470 560 LINE",
"470 477 LINE",
"652 477 LINE",
"652 626 LINE",
"540 737 LINE",
"161 737 LINE",
"50 626 LINE",
"50 111 LINE",
"161 0 LINE"
);
},
{
closed = 1;
nodes = (
"444.5 795 LINE",
"444.5 935 LINE",
"257.5 935 LINE",
"257.5 795 LINE"
);
}
);
width = 670;
}
);
leftKerningGroup = C;
note = Cdotaccent;
rightKerningGroup = C;
unicode = 010A;
},
{
glyphname = D;
lastChange = "2019-09-24 19:26:15 +0000";
layers = (
{
hints = (
{
horizontal = 1;
place = "{0, 142}";
type = Stem;
},
{
horizontal = 1;
place = "{595, 142}";
type = Stem;
},
{
place = "{70, 187}";
type = Stem;
},
{
place = "{523.2, 181}";
type = Stem;
}
);
layerId = "D215EC84-7FFD-4436-99F3-284D9B779A16";
paths = (
{
closed = 1;
nodes = (
"551.2 0 LINE",
"704.2 153 LINE",
"704.2 584 LINE",
"551.2 737 LINE",
"70 737 LINE",
"70 0 LINE"
);
},
{
closed = 1;
nodes = (
"257 595 LINE",
"470.2 595 LINE",
"523.2 542 LINE",
"523.2 195 LINE",
"470.2 142 LINE",
"257 142 LINE"
);
}
);
width = 744;
}
);
leftKerningGroup = B;
note = D;
rightKerningGroup = D;
unicode = 0044;
},
{
glyphname = uni01C4;
lastChange = "2019-09-24 19:26:15 +0000";
layers = (
{
hints = (
{
horizontal = 1;
place = "{0, 152}";
type = Stem;
},
{
horizontal = 1;
place = "{585, 152}";
type = Stem;
},
{
horizontal = 1;
place = "{795, 152}";
type = Stem;
},
{
place = "{70, 187}";
type = Stem;
},
{
place = "{523.2, 181}";
type = Stem;
},
{
horizontal = 1;
place = "{0, 142}";
type = Stem;
},
{
place = "{778, 251}";
type = Stem;
}
);
layerId = "D215EC84-7FFD-4436-99F3-284D9B779A16";
paths = (
{
closed = 1;
nodes = (
"551.2 0 LINE",
"704.2 153 LINE",
"704.2 584 LINE",
"551.2 737 LINE",
"70 737 LINE",
"70 0 LINE"
);
},
{
closed = 1;
nodes = (
"257 595 LINE",
"470.2 595 LINE",
"523.2 542 LINE",
"523.2 195 LINE",
"470.2 142 LINE",
"257 142 LINE"
);
},
{
closed = 1;
nodes = (
"1368 0 LINE",
"1368 152 LINE",
"1029 152 LINE",
"1029 187 LINE",
"1368 580 LINE",
"1368 737 LINE",
"802 737 LINE",
"802 585 LINE",
"1118 585 LINE",
"1118 550 LINE",
"778 157 LINE",
"778 0 LINE"
);
},
{
closed = 1;
nodes = (
"1188 795 LINE",
"1301 947 LINE",
"1159 947 LINE",
"1089 875 LINE",
"1018 947 LINE",
"877 947 LINE",
"990 795 LINE"
);
}
);
width = 1413;
}
);
leftKerningGroup = B;
note = uni01C4;
rightKerningGroup = uni01C4;
unicode = 01C4;
},
{
glyphname = Eth;
lastChange = "2019-09-24 19:26:15 +0000";
layers = (
{
hints = (
{
horizontal = 1;
place = "{0, 142}";
type = Stem;
},
{
horizontal = 1;
place = "{316, 118}";
type = Stem;
},
{
horizontal = 1;
place = "{595, 142}";
type = Stem;
},
{
place = "{70, 187}";
type = Stem;
},
{
place = "{523.2, 181}";
type = Stem;
}
);
layerId = "D215EC84-7FFD-4436-99F3-284D9B779A16";
paths = (
{
closed = 1;
nodes = (
"551.2 0 LINE",
"704.2 153 LINE",
"704.2 584 LINE",
"551.2 737 LINE",
"70 737 LINE",
"70 434 LINE",
"-2.8 434 LINE",
"-2.8 316 LINE",
"70 316 LINE",
"70 0 LINE"
);
},
{
closed = 1;
nodes = (
"257 316 LINE",
"359.2 316 LINE",
"359.2 434 LINE",
"257 434 LINE",
"257 595 LINE",
"470.2 595 LINE",
"523.2 542 LINE",
"523.2 195 LINE",
"470.2 142 LINE",
"257 142 LINE"
);
}
);
width = 744;
}
);
leftKerningGroup = B;
note = Eth;
rightKerningGroup = D;
unicode = 00D0;
},
{
glyphname = Dcaron;
lastChange = "2019-09-24 19:26:15 +0000";
layers = (
{
hints = (
{
horizontal = 1;
place = "{0, 142}";
type = Stem;
},
{
horizontal = 1;
place = "{595, 142}";
type = Stem;
},
{
horizontal = 1;
place = "{795, 152}";
type = Stem;
},
{
place = "{70, 187}";
type = Stem;
},
{
place = "{523.2, 181}";
type = Stem;
}
);
layerId = "D215EC84-7FFD-4436-99F3-284D9B779A16";
paths = (
{
closed = 1;
nodes = (
"551.2 0 LINE",
"704.2 153 LINE",
"704.2 584 LINE",
"551.2 737 LINE",
"70 737 LINE",
"70 0 LINE"
);
},
{
closed = 1;
nodes = (
"257 595 LINE",
"470.2 595 LINE",
"523.2 542 LINE",
"523.2 195 LINE",
"470.2 142 LINE",
"257 142 LINE"
);
},
{
closed = 1;
nodes = (
"450.2 795 LINE",
"563.2 947 LINE",
"421.2 947 LINE",
"351.2 875 LINE",
"280.2 947 LINE",
"139.2 947 LINE",
"252.2 795 LINE"
);
}
);
width = 744;
}
);
leftKerningGroup = B;
note = Dcaron;
rightKerningGroup = D;
unicode = 010E;
},
{
glyphname = Dcroat;
lastChange = "2019-09-24 19:26:15 +0000";
layers = (
{
hints = (
{
horizontal = 1;
place = "{0, 142}";
type = Stem;
},
{
horizontal = 1;
place = "{316, 118}";
type = Stem;
},
{
horizontal = 1;
place = "{595, 142}";
type = Stem;
},
{
place = "{70, 187}";
type = Stem;
},
{
place = "{523.2, 181}";
type = Stem;
}
);
layerId = "D215EC84-7FFD-4436-99F3-284D9B779A16";
paths = (
{
closed = 1;
nodes = (
"551.2 0 LINE",
"704.2 153 LINE",
"704.2 584 LINE",
"551.2 737 LINE",
"70 737 LINE",
"70 434 LINE",
"-2.8 434 LINE",
"-2.8 316 LINE",
"70 316 LINE",
"70 0 LINE"
);
},
{
closed = 1;
nodes = (
"257 316 LINE",
"359.2 316 LINE",
"359.2 434 LINE",
"257 434 LINE",
"257 595 LINE",
"470.2 595 LINE",
"523.2 542 LINE",
"523.2 195 LINE",
"470.2 142 LINE",
"257 142 LINE"
);
}
);
width = 744;
}
);
leftKerningGroup = B;
note = Dcroat;
rightKerningGroup = D;
unicode = 0110;
},
{
glyphname = uni01C5;
lastChange = "2019-09-24 19:26:15 +0000";
layers = (
{
hints = (
{
horizontal = 1;
place = "{0, 128}";
type = Stem;
},
{
horizontal = 1;
place = "{395, 127}";
type = Stem;
},
{
horizontal = 1;
place = "{595, 142}";
type = Stem;
},
{
place = "{70, 187}";
type = Stem;
},
{
place = "{523.2, 181}";
type = Stem;
},
{
horizontal = 1;
place = "{0, 142}";
type = Stem;
},
{
horizontal = 1;
place = "{580, 152}";
type = Stem;
}
);
layerId = "D215EC84-7FFD-4436-99F3-284D9B779A16";
paths = (
{
closed = 1;
nodes = (
"551.2 0 LINE",
"704.2 153 LINE",
"704.2 584 LINE",
"551.2 737 LINE",
"70 737 LINE",
"70 0 LINE"
);
},
{
closed = 1;
nodes = (
"257 595 LINE",
"470.2 595 LINE",
"523.2 542 LINE",
"523.2 195 LINE",
"470.2 142 LINE",
"257 142 LINE"
);
},
{
closed = 1;
nodes = (
"1304 0 LINE",
"1304 128 LINE",
"1051.72 128 LINE",
"1296 395 LINE",
"1296 522 LINE",
"821 522 LINE",
"821 395 LINE",
"1043.84 395 LINE",
"798 124 LINE",
"798 0 LINE"
);
},
{
closed = 1;
nodes = (
"1154 580 LINE",
"1267 732 LINE",
"1125 732 LINE",
"1055 660 LINE",
"984 732 LINE",
"843 732 LINE",
"956 580 LINE"
);
}
);
width = 1354;
}
);
leftKerningGroup = B;
note = uni01C5;
unicode = 01C5;
},
{
glyphname = E;
lastChange = "2019-09-24 19:26:15 +0000";
layers = (
{
hints = (
{
horizontal = 1;
place = "{0, 152}";
type = Stem;
},
{
horizontal = 1;
place = "{308, 141}";
type = Stem;
},
{
horizontal = 1;
place = "{585, 152}";
type = Stem;
},
{
place = "{70, 187}";
type = Stem;
}
);
layerId = "D215EC84-7FFD-4436-99F3-284D9B779A16";
paths = (
{
closed = 1;
nodes = (
"630.2 0 LINE",
"630.2 152 LINE",
"257 152 LINE",
"257 308 LINE",
"593.2 308 LINE",
"593.2 449 LINE",
"257 449 LINE",
"257 585 LINE",
"630.2 585 LINE",
"630.2 737 LINE",
"70 737 LINE",
"70 0 LINE"
);
}
);
width = 680;
}
);
leftKerningGroup = B;
note = E;
rightKerningGroup = AE;
unicode = 0045;
},
{
glyphname = Eacute;
lastChange = "2019-09-24 19:26:15 +0000";
layers = (
{
hints = (
{
horizontal = 1;
place = "{0, 152}";
type = Stem;
},
{
horizontal = 1;
place = "{308, 141}";
type = Stem;
},
{
horizontal = 1;
place = "{585, 152}";
type = Stem;
},
{
horizontal = 1;
place = "{795, 157}";
type = Stem;
},
{
place = "{70, 187}";
type = Stem;
}
);
layerId = "D215EC84-7FFD-4436-99F3-284D9B779A16";
paths = (
{
closed = 1;
nodes = (
"630.2 0 LINE",
"630.2 152 LINE",
"257 152 LINE",
"257 308 LINE",
"593.2 308 LINE",
"593.2 449 LINE",
"257 449 LINE",
"257 585 LINE",
"630.2 585 LINE",
"630.2 737 LINE",
"70 737 LINE",
"70 0 LINE"
);
},
{
closed = 1;
nodes = (
"427.2 795 LINE",
"577.2 952 LINE",
"395.2 952 LINE",
"290.2 795 LINE"
);
}
);
width = 680;
}
);
leftKerningGroup = B;
note = Eacute;
rightKerningGroup = AE;
unicode = 00C9;
},
{
glyphname = Ebreve;
lastChange = "2019-09-24 19:26:15 +0000";
layers = (
{
hints = (
{
horizontal = 1;
place = "{0, 152}";
type = Stem;
},
{
horizontal = 1;
place = "{308, 141}";
type = Stem;
},
{
horizontal = 1;
place = "{585, 152}";
type = Stem;
},
{
horizontal = 1;
place = "{795, 94}";
type = Stem;
},
{
place = "{70, 187}";
type = Stem;
},
{
place = "{412.7, 132}";
type = Stem;
},
{
horizontal = 1;
place = "{873, 74}";
type = Stem;
},
{
place = "{157.7, 132}";
type = Stem;
}
);
layerId = "D215EC84-7FFD-4436-99F3-284D9B779A16";
paths = (
{
closed = 1;
nodes = (
"630.2 0 LINE",
"630.2 152 LINE",
"257 152 LINE",
"257 308 LINE",
"593.2 308 LINE",
"593.2 449 LINE",
"257 449 LINE",
"257 585 LINE",
"630.2 585 LINE",
"630.2 737 LINE",
"70 737 LINE",
"70 0 LINE"
);
},
{
closed = 1;
nodes = (
"458.7 795 LINE",
"544.7 873 LINE",
"544.7 947 LINE",
"412.7 947 LINE",
"412.7 902 LINE",
"398.7 889 LINE",
"303.7 889 LINE",
"289.7 902 LINE",
"289.7 947 LINE",
"157.7 947 LINE",
"157.7 873 LINE",
"242.7 795 LINE"
);
}
);
width = 680;
}
);
leftKerningGroup = B;
note = Ebreve;
rightKerningGroup = AE;
unicode = 0114;
},
{
glyphname = Ecaron;
lastChange = "2019-09-24 19:26:15 +0000";
layers = (
{
hints = (
{
horizontal = 1;
place = "{0, 152}";
type = Stem;
},
{
horizontal = 1;
place = "{308, 141}";
type = Stem;
},
{
horizontal = 1;
place = "{585, 152}";
type = Stem;
},
{
horizontal = 1;
place = "{795, 152}";
type = Stem;
},
{
place = "{70, 187}";
type = Stem;
}
);
layerId = "D215EC84-7FFD-4436-99F3-284D9B779A16";
paths = (
{
closed = 1;
nodes = (
"630.2 0 LINE",
"630.2 152 LINE",
"257 152 LINE",
"257 308 LINE",
"593.2 308 LINE",
"593.2 449 LINE",
"257 449 LINE",
"257 585 LINE",
"630.2 585 LINE",
"630.2 737 LINE",
"70 737 LINE",
"70 0 LINE"
);
},
{
closed = 1;
nodes = (
"450.2 795 LINE",
"563.2 947 LINE",
"421.2 947 LINE",
"351.2 875 LINE",
"280.2 947 LINE",
"139.2 947 LINE",
"252.2 795 LINE"
);
}
);
width = 680;
}
);
leftKerningGroup = B;
note = Ecaron;
rightKerningGroup = AE;
unicode = 011A;
},
{
glyphname = Ecircumflex;
lastChange = "2019-09-24 19:26:15 +0000";
layers = (
{
hints = (
{
horizontal = 1;
place = "{0, 152}";
type = Stem;
},
{
horizontal = 1;
place = "{308, 141}";
type = Stem;
},
{
horizontal = 1;
place = "{585, 152}";
type = Stem;
},
{
horizontal = 1;
place = "{795, 152}";
type = Stem;
},
{
place = "{70, 187}";
type = Stem;
}
);
layerId = "D215EC84-7FFD-4436-99F3-284D9B779A16";
paths = (
{
closed = 1;
nodes = (
"630.2 0 LINE",
"630.2 152 LINE",
"257 152 LINE",
"257 308 LINE",
"593.2 308 LINE",
"593.2 449 LINE",
"257 449 LINE",
"257 585 LINE",
"630.2 585 LINE",
"630.2 737 LINE",
"70 737 LINE",
"70 0 LINE"
);
},
{
closed = 1;
nodes = (
"280.2 795 LINE",
"351.2 867 LINE",
"421.2 795 LINE",
"563.2 795 LINE",
"450.2 947 LINE",
"252.2 947 LINE",
"139.2 795 LINE"
);
}
);
width = 680;
}
);
leftKerningGroup = B;
note = Ecircumflex;
rightKerningGroup = AE;
unicode = 00CA;
},
{
glyphname = uni1EBE;
lastChange = "2019-09-24 19:26:15 +0000";
layers = (
{
hints = (
{
horizontal = 1;
place = "{0, 152}";
type = Stem;
},
{
horizontal = 1;
place = "{308, 141}";
type = Stem;
},
{
horizontal = 1;
place = "{585, 152}";
type = Stem;
},
{
horizontal = 1;
place = "{876.73, 157}";
type = Stem;
},
{
place = "{70, 187}";
type = Stem;
},
{
horizontal = 1;
place = "{795, 152}";
type = Stem;
}
);
layerId = "D215EC84-7FFD-4436-99F3-284D9B779A16";
paths = (
{
closed = 1;
nodes = (
"630.2 0 LINE",
"630.2 152 LINE",
"257 152 LINE",
"257 308 LINE",
"593.2 308 LINE",
"593.2 449 LINE",
"257 449 LINE",
"257 585 LINE",
"630.2 585 LINE",
"630.2 737 LINE",
"70 737 LINE",
"70 0 LINE"
);
},
{
closed = 1;
nodes = (
"281.2 795 LINE",
"351.2 867 LINE",
"422.2 795 LINE",
"563.2 795 LINE",
"450.2 947 LINE",
"252.2 947 LINE",
"139.2 795 LINE"
);
},
{
closed = 1;
nodes = (
"685.2 876.73 LINE",
"835.2 1033.73 LINE",
"653.2 1033.73 LINE",
"548.2 876.73 LINE"
);
}
);
width = 680;
}
);
leftKerningGroup = B;
note = uni1EBE;
rightKerningGroup = AE;
unicode = 1EBE;
},
{
glyphname = uni1EC6;
lastChange = "2019-09-24 19:26:15 +0000";
layers = (
{
hints = (
{
horizontal = 1;
place = "{-197, 140}";
type = Stem;
},
{
horizontal = 1;
place = "{0, 152}";
type = Stem;
},
{
horizontal = 1;
place = "{308, 141}";
type = Stem;
},
{
horizontal = 1;
place = "{585, 152}";
type = Stem;
},
{
horizontal = 1;
place = "{795, 152}";
type = Stem;
},
{
place = "{70, 187}";
type = Stem;
},
{
place = "{257.7, 187}";
type = Stem;
}
);
layerId = "D215EC84-7FFD-4436-99F3-284D9B779A16";
paths = (
{
closed = 1;
nodes = (
"630.2 0 LINE",
"630.2 152 LINE",
"257 152 LINE",
"257 308 LINE",
"593.2 308 LINE",
"593.2 449 LINE",
"257 449 LINE",
"257 585 LINE",
"630.2 585 LINE",
"630.2 737 LINE",
"70 737 LINE",
"70 0 LINE"
);
},
{
closed = 1;
nodes = (
"444.7 -197 LINE",
"444.7 -57 LINE",
"257.7 -57 LINE",
"257.7 -197 LINE"
);
},
{
closed = 1;
nodes = (
"280.2 795 LINE",
"351.2 867 LINE",
"421.2 795 LINE",
"563.2 795 LINE",
"450.2 947 LINE",
"252.2 947 LINE",
"139.2 795 LINE"
);
}
);
width = 680;
}
);
leftKerningGroup = B;
note = uni1EC6;
rightKerningGroup = AE;
unicode = 1EC6;
},
{
glyphname = uni1EC0;
lastChange = "2019-09-24 19:26:15 +0000";
layers = (
{
hints = (
{
horizontal = 1;
place = "{0, 152}";
type = Stem;
},
{
horizontal = 1;
place = "{308, 141}";
type = Stem;
},
{
horizontal = 1;
place = "{585, 152}";
type = Stem;
},
{
horizontal = 1;
place = "{876.77, 157}";
type = Stem;
},
{
place = "{70, 187}";
type = Stem;
},
{
horizontal = 1;
place = "{795, 152}";
type = Stem;
}
);
layerId = "D215EC84-7FFD-4436-99F3-284D9B779A16";
paths = (
{
closed = 1;
nodes = (
"630.2 0 LINE",
"630.2 152 LINE",
"257 152 LINE",
"257 308 LINE",
"593.2 308 LINE",
"593.2 449 LINE",
"257 449 LINE",
"257 585 LINE",
"630.2 585 LINE",
"630.2 737 LINE",
"70 737 LINE",
"70 0 LINE"
);
},
{
closed = 1;
nodes = (
"154.2 876.77 LINE",
"49.2 1033.77 LINE",
"-132.8 1033.77 LINE",
"17.2 876.77 LINE"
);
},
{
closed = 1;
nodes = (
"280.2 795 LINE",
"351.2 867 LINE",
"421.2 795 LINE",
"563.2 795 LINE",
"450.2 947 LINE",
"252.2 947 LINE",
"139.2 795 LINE"
);
}
);
width = 680;
}
);
leftKerningGroup = B;
note = uni1EC0;
rightKerningGroup = AE;
unicode = 1EC0;
},
{
glyphname = uni1EC2;
lastChange = "2019-09-24 19:26:15 +0000";
layers = (
{
hints = (
{
horizontal = 1;
place = "{0, 152}";
type = Stem;
},
{
horizontal = 1;
place = "{308, 141}";
type = Stem;
},
{
horizontal = 1;
place = "{585, 152}";
type = Stem;
},
{
horizontal = 1;
place = "{795, 152}";
type = Stem;
},
{
horizontal = 1;
place = "{1002.68, 100}";
type = Stem;
},
{
place = "{70, 187}";
type = Stem;
},
{
place = "{477.2, 113}";
type = Stem;
},
{
place = "{547.2, 127}";
type = Stem;
},
{
place = "{622.2, 125}";
type = Stem;
}
);
layerId = "D215EC84-7FFD-4436-99F3-284D9B779A16";
paths = (
{
closed = 1;
nodes = (
"630.2 0 LINE",
"630.2 152 LINE",
"257 152 LINE",
"257 308 LINE",
"593.2 308 LINE",
"593.2 449 LINE",
"257 449 LINE",
"257 585 LINE",
"630.2 585 LINE",
"630.2 737 LINE",
"70 737 LINE",
"70 0 LINE"
);
},
{
closed = 1;
nodes = (
"280.2 795 LINE",
"351.2 867 LINE",
"421.2 795 LINE",
"563.2 795 LINE",
"450.2 947 LINE",
"252.2 947 LINE",
"139.2 795 LINE"
);
},
{
closed = 1;
nodes = (
"674.2 876.68 LINE",
"674.2 917.68 LINE",
"747.2 959.68 LINE",
"747.2 1062.68 LINE",
"704.2 1102.68 LINE",
"520.2 1102.68 LINE",
"477.2 1062.68 LINE",
"477.2 1002.68 LINE",
"590.2 1002.68 LINE",
"590.2 1031.68 LINE",
"622.2 1031.68 LINE",
"622.2 1002.68 LINE",
"547.2 956.68 LINE",
"547.2 876.68 LINE"
);
}
);
width = 680;
}
);
leftKerningGroup = B;
note = uni1EC2;
rightKerningGroup = AE;
unicode = 1EC2;
},
{
glyphname = uni1EC4;
lastChange = "2019-09-24 19:26:15 +0000";
layers = (
{
hints = (
{
horizontal = 1;
place = "{0, 152}";
type = Stem;
},
{
horizontal = 1;
place = "{308, 141}";
type = Stem;
},
{
horizontal = 1;
place = "{585, 152}";
type = Stem;
},
{
horizontal = 1;
place = "{795, 152}";
type = Stem;
},
{
horizontal = 1;
place = "{986, 150}";
type = Stem;
},
{
place = "{134.2, 125}";
type = Stem;
},
{
horizontal = 1;
place = "{979, 151}";
type = Stem;
},
{
place = "{70, 187}";
type = Stem;
},
{
place = "{461.2, 125.5}";
type = Stem;
}
);
layerId = "D215EC84-7FFD-4436-99F3-284D9B779A16";
paths = (
{
closed = 1;
nodes = (
"630.2 0 LINE",
"630.2 152 LINE",
"257 152 LINE",
"257 308 LINE",
"593.2 308 LINE",
"593.2 449 LINE",
"257 449 LINE",
"257 585 LINE",
"630.2 585 LINE",
"630.2 737 LINE",
"70 737 LINE",
"70 0 LINE"
);
},
{
closed = 1;
nodes = (
"280.2 795 LINE",
"351.2 867 LINE",
"421.2 795 LINE",
"563.2 795 LINE",
"450.2 947 LINE",
"252.2 947 LINE",
"139.2 795 LINE"
);
},
{
closed = 1;
nodes = (
"518.2 979 LINE",
"586.2 1051 LINE",
"587.2 1130 LINE",
"461.2 1130 LINE",
"461.2 1103 LINE",
"447.2 1077 LINE",
"427.2 1077 LINE",
"380.2 1136 LINE",
"202.2 1136 LINE",
"135.2 1067 LINE",
"133.2 986 LINE",
"259.2 986 LINE",
"259.2 1011 LINE",
"273.2 1042 LINE",
"293.2 1042 LINE",
"340.2 979 LINE"
);
}
);
width = 680;
}
);
leftKerningGroup = B;
note = uni1EC4;
rightKerningGroup = AE;
unicode = 1EC4;
},
{
glyphname = uni0204;
lastChange = "2019-09-24 19:26:15 +0000";
layers = (
{
hints = (
{
horizontal = 1;
place = "{0, 152}";
type = Stem;
},
{
horizontal = 1;
place = "{308, 141}";
type = Stem;
},
{
horizontal = 1;
place = "{585, 152}";
type = Stem;
},
{
horizontal = 1;
place = "{795, 157}";
type = Stem;
},
{
place = "{70, 187}";
type = Stem;
}
);
layerId = "D215EC84-7FFD-4436-99F3-284D9B779A16";
paths = (
{
closed = 1;
nodes = (
"630.2 0 LINE",
"630.2 152 LINE",
"257 152 LINE",
"257 308 LINE",
"593.2 308 LINE",
"593.2 449 LINE",
"257 449 LINE",
"257 585 LINE",
"630.2 585 LINE",
"630.2 737 LINE",
"70 737 LINE",
"70 0 LINE"
);
},
{
closed = 1;
nodes = (
"312.2 795 LINE",
"207.2 952 LINE",
"25.2 952 LINE",
"175.2 795 LINE"
);
},
{
closed = 1;
nodes = (
"522.2 795 LINE",
"417.2 952 LINE",
"235.2 952 LINE",
"385.2 795 LINE"
);
}
);
width = 680;
}
);
leftKerningGroup = B;
note = uni0204;
rightKerningGroup = AE;
unicode = 0204;
},
{
glyphname = Edieresis;
lastChange = "2019-09-24 19:26:15 +0000";
layers = (
{
hints = (
{
horizontal = 1;
place = "{0, 152}";
type = Stem;
},
{
horizontal = 1;
place = "{308, 141}";
type = Stem;
},
{
horizontal = 1;
place = "{585, 152}";
type = Stem;
},
{
horizontal = 1;
place = "{795, 140}";
type = Stem;
},
{
place = "{121.2, 175}";
type = Stem;
},
{
place = "{406.2, 175}";
type = Stem;
},
{
place = "{70, 187}";
type = Stem;
},
{
horizontal = 1;
place = "{795, 140}";
type = Stem;
},
{
place = "{243, 175}";
type = Stem;
},
{
place = "{528, 175}";
type = Stem;
},
{
horizontal = 1;
place = "{795, 118}";
type = Stem;
},
{
place = "{214, 460}";
type = Stem;
},
{
horizontal = 1;
place = "{795, 140}";
type = Stem;
},
{
place = "{-389, 175}";
type = Stem;
},
{
place = "{-104, 175}";
type = Stem;
},
{
horizontal = 1;
place = "{795, 140}";
type = Stem;
},
{
place = "{151, 187}";
type = Stem;
},
{
horizontal = 1;
place = "{795, 140}";
type = Stem;
},
{
place = "{-122, 187}";
type = Stem;
}
);
layerId = "D215EC84-7FFD-4436-99F3-284D9B779A16";
paths = (
{
closed = 1;
nodes = (
"630 0 LINE",
"630 152 LINE",
"257 152 LINE",
"257 308 LINE",
"593 308 LINE",
"593 449 LINE",
"257 449 LINE",
"257 585 LINE",
"630 585 LINE",
"630 737 LINE",
"70 737 LINE",
"70 0 LINE"
);
},
{
closed = 1;
nodes = (
"580 795 LINE",
"580 935 LINE",
"393 935 LINE",
"393 795 LINE"
);
},
{
closed = 1;
nodes = (
"307 795 LINE",
"307 935 LINE",
"120 935 LINE",
"120 795 LINE"
);
}
);
width = 680;
}
);
leftKerningGroup = B;
note = Edieresis;
rightKerningGroup = AE;
unicode = 00CB;
},
{
glyphname = Edotaccent;
lastChange = "2019-09-24 19:26:15 +0000";
layers = (
{
hints = (
{
horizontal = 1;
place = "{0, 152}";
type = Stem;
},
{
horizontal = 1;
place = "{308, 141}";
type = Stem;
},
{
horizontal = 1;
place = "{585, 152}";
type = Stem;
},
{
horizontal = 1;
place = "{795, 140}";
type = Stem;
},
{
place = "{257.7, 187}";
type = Stem;
},
{
place = "{70, 187}";
type = Stem;
}
);
layerId = "D215EC84-7FFD-4436-99F3-284D9B779A16";
paths = (
{
closed = 1;
nodes = (
"630.2 0 LINE",
"630.2 152 LINE",
"257 152 LINE",
"257 308 LINE",
"593.2 308 LINE",
"593.2 449 LINE",
"257 449 LINE",
"257 585 LINE",
"630.2 585 LINE",
"630.2 737 LINE",
"70 737 LINE",
"70 0 LINE"
);
},
{
closed = 1;
nodes = (
"444.7 795 LINE",
"444.7 935 LINE",
"257.7 935 LINE",
"257.7 795 LINE"
);
}
);
width = 680;
}
);
leftKerningGroup = B;
note = Edotaccent;
rightKerningGroup = AE;
unicode = 0116;
},
{
glyphname = uni1EB8;
lastChange = "2019-09-24 19:26:15 +0000";
layers = (
{
hints = (
{
horizontal = 1;
place = "{-197, 140}";
type = Stem;
},
{
horizontal = 1;
place = "{0, 152}";
type = Stem;
},
{
horizontal = 1;
place = "{308, 141}";
type = Stem;
},
{
horizontal = 1;
place = "{585, 152}";
type = Stem;
},
{
place = "{70, 187}";
type = Stem;
},
{
place = "{257.7, 187}";
type = Stem;
}
);
layerId = "D215EC84-7FFD-4436-99F3-284D9B779A16";
paths = (
{
closed = 1;
nodes = (
"630.2 0 LINE",
"630.2 152 LINE",
"257 152 LINE",
"257 308 LINE",
"593.2 308 LINE",
"593.2 449 LINE",
"257 449 LINE",
"257 585 LINE",
"630.2 585 LINE",
"630.2 737 LINE",
"70 737 LINE",
"70 0 LINE"
);
},
{
closed = 1;
nodes = (
"444.7 -197 LINE",
"444.7 -57 LINE",
"257.7 -57 LINE",
"257.7 -197 LINE"
);
}
);
width = 680;
}
);
leftKerningGroup = B;
note = uni1EB8;
rightKerningGroup = AE;
unicode = 1EB8;
},
{
glyphname = Egrave;
lastChange = "2019-09-24 19:26:15 +0000";
layers = (
{
hints = (
{
horizontal = 1;
place = "{0, 152}";
type = Stem;
},
{
horizontal = 1;
place = "{308, 141}";
type = Stem;
},
{
horizontal = 1;
place = "{585, 152}";
type = Stem;
},
{
horizontal = 1;
place = "{795, 157}";
type = Stem;
},
{
place = "{70, 187}";
type = Stem;
}
);
layerId = "D215EC84-7FFD-4436-99F3-284D9B779A16";
paths = (
{
closed = 1;
nodes = (
"630.2 0 LINE",
"630.2 152 LINE",
"257 152 LINE",
"257 308 LINE",
"593.2 308 LINE",
"593.2 449 LINE",
"257 449 LINE",
"257 585 LINE",
"630.2 585 LINE",
"630.2 737 LINE",
"70 737 LINE",
"70 0 LINE"
);
},
{
closed = 1;
nodes = (
"414.2 795 LINE",
"309.2 952 LINE",
"127.2 952 LINE",
"277.2 795 LINE"
);
}
);
width = 680;
}
);
leftKerningGroup = B;
note = Egrave;
rightKerningGroup = AE;
unicode = 00C8;
},
{
glyphname = uni1EBA;
lastChange = "2019-09-24 19:26:15 +0000";
layers = (
{
hints = (
{
horizontal = 1;
place = "{0, 152}";
type = Stem;
},
{
horizontal = 1;
place = "{308, 141}";
type = Stem;
},
{
horizontal = 1;
place = "{585, 152}";
type = Stem;
},
{
horizontal = 1;
place = "{921, 100}";
type = Stem;
},
{
place = "{70, 187}";
type = Stem;
},
{
place = "{286.2, 127}";
type = Stem;
},
{
horizontal = 1;
place = "{795, 80}";
type = Stem;
},
{
place = "{361.2, 125}";
type = Stem;
},
{
place = "{216.2, 113}";
type = Stem;
}
);
layerId = "D215EC84-7FFD-4436-99F3-284D9B779A16";
paths = (
{
closed = 1;
nodes = (
"630.2 0 LINE",
"630.2 152 LINE",
"257 152 LINE",
"257 308 LINE",
"593.2 308 LINE",
"593.2 449 LINE",
"257 449 LINE",
"257 585 LINE",
"630.2 585 LINE",
"630.2 737 LINE",
"70 737 LINE",
"70 0 LINE"
);
},
{
closed = 1;
nodes = (
"413.2 795 LINE",
"413.2 836 LINE",
"486.2 878 LINE",
"486.2 981 LINE",
"443.2 1021 LINE",
"259.2 1021 LINE",
"216.2 981 LINE",
"216.2 921 LINE",
"329.2 921 LINE",
"329.2 950 LINE",
"361.2 950 LINE",
"361.2 921 LINE",
"286.2 875 LINE",
"286.2 795 LINE"
);
}
);
width = 680;
}
);
leftKerningGroup = B;
note = uni1EBA;
rightKerningGroup = AE;
unicode = 1EBA;
},
{
glyphname = uni0206;
lastChange = "2019-09-24 19:26:15 +0000";
layers = (
{
hints = (
{
horizontal = 1;
place = "{0, 152}";
type = Stem;
},
{
horizontal = 1;
place = "{308, 141}";
type = Stem;
},
{
horizontal = 1;
place = "{585, 152}";
type = Stem;
},
{
horizontal = 1;
place = "{853, 93}";
type = Stem;
},
{
place = "{157.7, 132}";
type = Stem;
},
{
place = "{412.7, 132}";
type = Stem;
},
{
place = "{70, 187}";
type = Stem;
}
);
layerId = "D215EC84-7FFD-4436-99F3-284D9B779A16";
paths = (
{
closed = 1;
nodes = (
"630.2 0 LINE",
"630.2 152 LINE",
"257 152 LINE",
"257 308 LINE",
"593.2 308 LINE",
"593.2 449 LINE",
"257 449 LINE",
"257 585 LINE",
"630.2 585 LINE",
"630.2 737 LINE",
"70 737 LINE",
"70 0 LINE"
);
},
{
closed = 1;
nodes = (
"289.7 795 LINE",
"289.7 840 LINE",
"303.7 853 LINE",
"398.7 853 LINE",
"412.7 840 LINE",
"412.7 795 LINE",
"544.7 795 LINE",
"544.7 868 LINE",
"458.7 946 LINE",
"242.7 946 LINE",
"157.7 868 LINE",
"157.7 795 LINE"
);
}
);
width = 680;
}
);
leftKerningGroup = B;
note = uni0206;
rightKerningGroup = AE;
unicode = 0206;
},
{
glyphname = Emacron;
lastChange = "2019-09-24 19:26:15 +0000";
layers = (
{
hints = (
{
horizontal = 1;
place = "{0, 152}";
type = Stem;
},
{
horizontal = 1;
place = "{308, 141}";
type = Stem;
},
{
horizontal = 1;
place = "{585, 152}";
type = Stem;
},
{
horizontal = 1;
place = "{795, 118}";
type = Stem;
},
{
place = "{70, 187}";
type = Stem;
}
);
layerId = "D215EC84-7FFD-4436-99F3-284D9B779A16";
paths = (
{
closed = 1;
nodes = (
"630.2 0 LINE",
"630.2 152 LINE",
"257 152 LINE",
"257 308 LINE",
"593.2 308 LINE",
"593.2 449 LINE",
"257 449 LINE",
"257 585 LINE",
"630.2 585 LINE",
"630.2 737 LINE",
"70 737 LINE",
"70 0 LINE"
);
},
{
closed = 1;
nodes = (
"578.2 795 LINE",
"578.2 913 LINE",
"118.2 913 LINE",
"118.2 795 LINE"
);
}
);
width = 680;
}
);
leftKerningGroup = B;
note = Emacron;
rightKerningGroup = AE;
unicode = 0112;
},
{
glyphname = Eogonek;
lastChange = "2019-09-24 19:26:15 +0000";
layers = (
{
hints = (
{
horizontal = 1;
place = "{-180, 102}";
type = Stem;
},
{
horizontal = 1;
place = "{0, 152}";
type = Stem;
},
{
horizontal = 1;
place = "{308, 141}";
type = Stem;
},
{
horizontal = 1;
place = "{585, 152}";
type = Stem;
},
{
place = "{70, 187}";
type = Stem;
},
{
place = "{493.2, 137}";
type = Stem;
}
);
layerId = "D215EC84-7FFD-4436-99F3-284D9B779A16";
paths = (
{
closed = 1;
nodes = (
"630.2 -180 LINE",
"630.2 -78 LINE",
"615.2 -78 LINE",
"596.2 -60 LINE",
"596.2 -33 LINE",
"630.2 0 LINE",
"630.2 152 LINE",
"257 152 LINE",
"257 308 LINE",
"593.2 308 LINE",
"593.2 449 LINE",
"257 449 LINE",
"257 585 LINE",
"630.2 585 LINE",
"630.2 737 LINE",
"70 737 LINE",
"70 0 LINE",
"538.2 0 LINE",
"493.2 -33 LINE",
"493.2 -114 LINE",
"566.2 -180 LINE"
);
}
);
width = 680;
}
);
leftKerningGroup = B;
note = Eogonek;
rightKerningGroup = AE;
unicode = 0118;
},
{
glyphname = uni1EBC;
lastChange = "2019-09-24 19:26:15 +0000";
layers = (
{
hints = (
{
horizontal = 1;
place = "{0, 152}";
type = Stem;
},
{
horizontal = 1;
place = "{308, 141}";
type = Stem;
},
{
horizontal = 1;
place = "{585, 152}";
type = Stem;
},
{
horizontal = 1;
place = "{802, 150}";
type = Stem;
},
{
place = "{129.2, 125}";
type = Stem;
},
{
horizontal = 1;
place = "{795, 151}";
type = Stem;
},
{
place = "{70, 187}";
type = Stem;
},
{
place = "{456.2, 125.5}";
type = Stem;
}
);
layerId = "D215EC84-7FFD-4436-99F3-284D9B779A16";
paths = (
{
closed = 1;
nodes = (
"630.2 0 LINE",
"630.2 152 LINE",
"257 152 LINE",
"257 308 LINE",
"593.2 308 LINE",
"593.2 449 LINE",
"257 449 LINE",
"257 585 LINE",
"630.2 585 LINE",
"630.2 737 LINE",
"70 737 LINE",
"70 0 LINE"
);
},
{
closed = 1;
nodes = (
"513.2 795 LINE",
"581.2 867 LINE",
"582.2 946 LINE",
"456.2 946 LINE",
"456.2 919 LINE",
"442.2 893 LINE",
"422.2 893 LINE",
"375.2 952 LINE",
"197.2 952 LINE",
"130.2 883 LINE",
"128.2 802 LINE",
"254.2 802 LINE",
"254.2 827 LINE",
"268.2 858 LINE",
"288.2 858 LINE",
"335.2 795 LINE"
);
}
);
width = 680;
}
);
leftKerningGroup = B;
note = uni1EBC;
rightKerningGroup = AE;
unicode = 1EBC;
},
{
glyphname = F;
lastChange = "2019-09-24 19:26:15 +0000";
layers = (
{
hints = (
{
horizontal = 1;
place = "{288, 141}";
type = Stem;
},
{
horizontal = 1;
place = "{585, 152}";
type = Stem;
},
{
place = "{70, 187}";
type = Stem;
}
);
layerId = "D215EC84-7FFD-4436-99F3-284D9B779A16";
paths = (
{
closed = 1;
nodes = (
"257 0 LINE",
"257 288 LINE",
"578.2 288 LINE",
"578.2 429 LINE",
"257 429 LINE",
"257 585 LINE",
"624.2 585 LINE",
"624.2 737 LINE",
"70 737 LINE",
"70 0 LINE"
);
}
);
width = 639;
}
);
leftKerningGroup = B;
note = F;
rightKerningGroup = F;
unicode = 0046;
},
{
glyphname = G;
lastChange = "2019-09-24 19:26:15 +0000";
layers = (
{
hints = (
{
horizontal = 1;
place = "{0, 141.9}";
type = Stem;
},
{
horizontal = 1;
place = "{253, 143}";
type = Stem;
},
{
horizontal = 1;
place = "{595.1, 141.9}";
type = Stem;
},
{
place = "{50, 187}";
type = Stem;
},
{
place = "{537.3, 157.3}";
type = Stem;
},
{
place = "{502.1, 181.5}";
type = Stem;
}
);
layerId = "D215EC84-7FFD-4436-99F3-284D9B779A16";
paths = (
{
closed = 1;
nodes = (
"462.5 0 LINE",
"537.3 65.51 LINE",
"537.3 0 LINE",
"694.6 0 LINE",
"694.6 396 LINE",
"391 396 LINE",
"391 253 LINE",
"526.3 253 LINE",
"526.3 226.86 LINE",
"429.5 141.9 LINE",
"273.3 141.9 LINE",
"237 178.2 LINE",
"237 559.9 LINE",
"273.3 595.1 LINE",
"465.8 595.1 LINE",
"502.1 559.9 LINE",
"502.1 490.6 LINE",
"683.6 489.5 LINE",
"683.6 625.9 LINE",
"572.5 737 LINE",
"161.1 737 LINE",
"50 625.9 LINE",
"50 111.1 LINE",
"161.1 0 LINE"
);
}
);
width = 818;
}
);
leftKerningGroup = C;
note = G;
rightKerningGroup = G;
unicode = 0047;
},
{
glyphname = Gbreve;
lastChange = "2019-09-24 19:26:15 +0000";
layers = (
{
hints = (
{
horizontal = 1;
place = "{0, 141.9}";
type = Stem;
},
{
horizontal = 1;
place = "{253, 143}";
type = Stem;
},
{
horizontal = 1;
place = "{595.1, 141.9}";
type = Stem;
},
{
horizontal = 1;
place = "{795, 94}";
type = Stem;
},
{
place = "{50, 187}";
type = Stem;
},
{
place = "{428.87, 132}";
type = Stem;
},
{
horizontal = 1;
place = "{873, 74}";
type = Stem;
},
{
place = "{173.87, 132}";
type = Stem;
},
{
place = "{537.3, 157.3}";
type = Stem;
},
{
place = "{502.1, 181.5}";
type = Stem;
}
);
layerId = "D215EC84-7FFD-4436-99F3-284D9B779A16";
paths = (
{
closed = 1;
nodes = (
"462.5 0 LINE",
"537.3 65.51 LINE",
"537.3 0 LINE",
"694.6 0 LINE",
"694.6 396 LINE",
"391 396 LINE",
"391 253 LINE",
"526.3 253 LINE",
"526.3 226.86 LINE",
"429.5 141.9 LINE",
"273.3 141.9 LINE",
"237 178.2 LINE",
"237 559.9 LINE",
"273.3 595.1 LINE",
"465.8 595.1 LINE",
"502.1 559.9 LINE",
"502.1 490.6 LINE",
"683.6 489.5 LINE",
"683.6 625.9 LINE",
"572.5 737 LINE",
"161.1 737 LINE",
"50 625.9 LINE",
"50 111.1 LINE",
"161.1 0 LINE"
);
},
{
closed = 1;
nodes = (
"474.87 795 LINE",
"560.87 873 LINE",
"560.87 947 LINE",
"428.87 947 LINE",
"428.87 902 LINE",
"414.87 889 LINE",
"319.87 889 LINE",
"305.87 902 LINE",
"305.87 947 LINE",
"173.87 947 LINE",
"173.87 873 LINE",
"258.87 795 LINE"
);
}
);
width = 818;
}
);
leftKerningGroup = C;
note = Gbreve;
rightKerningGroup = G;
unicode = 011E;
},
{
glyphname = Gcaron;
lastChange = "2019-09-24 19:26:15 +0000";
layers = (
{
hints = (
{
horizontal = 1;
place = "{0, 141.9}";
type = Stem;
},
{
horizontal = 1;
place = "{253, 143}";
type = Stem;
},
{
horizontal = 1;
place = "{595.1, 141.9}";
type = Stem;
},
{
horizontal = 1;
place = "{795, 152}";
type = Stem;
},
{
place = "{50, 187}";
type = Stem;
},
{
place = "{537.3, 157.3}";
type = Stem;
},
{
place = "{502.1, 181.5}";
type = Stem;
}
);
layerId = "D215EC84-7FFD-4436-99F3-284D9B779A16";
paths = (
{
closed = 1;
nodes = (
"462.5 0 LINE",
"537.3 65.51 LINE",
"537.3 0 LINE",
"694.6 0 LINE",
"694.6 396 LINE",
"391 396 LINE",
"391 253 LINE",
"526.3 253 LINE",
"526.3 226.86 LINE",
"429.5 141.9 LINE",
"273.3 141.9 LINE",
"237 178.2 LINE",
"237 559.9 LINE",
"273.3 595.1 LINE",
"465.8 595.1 LINE",
"502.1 559.9 LINE",
"502.1 490.6 LINE",
"683.6 489.5 LINE",
"683.6 625.9 LINE",
"572.5 737 LINE",
"161.1 737 LINE",
"50 625.9 LINE",
"50 111.1 LINE",
"161.1 0 LINE"
);
},
{
closed = 1;
nodes = (
"466.37 795 LINE",
"579.37 947 LINE",
"437.37 947 LINE",
"367.37 875 LINE",
"296.37 947 LINE",
"155.37 947 LINE",
"268.37 795 LINE"
);
}
);
width = 818;
}
);
leftKerningGroup = C;
note = Gcaron;
rightKerningGroup = G;
unicode = 01E6;
},
{
glyphname = Gcircumflex;
lastChange = "2019-09-24 19:26:15 +0000";
layers = (
{
hints = (
{
horizontal = 1;
place = "{0, 141.9}";
type = Stem;
},
{
horizontal = 1;
place = "{253, 143}";
type = Stem;
},
{
horizontal = 1;
place = "{595.1, 141.9}";
type = Stem;
},
{
horizontal = 1;
place = "{795, 152}";
type = Stem;
},
{
place = "{50, 187}";
type = Stem;
},
{
place = "{537.3, 157.3}";
type = Stem;
},
{
place = "{502.1, 181.5}";
type = Stem;
}
);
layerId = "D215EC84-7FFD-4436-99F3-284D9B779A16";
paths = (
{
closed = 1;
nodes = (
"462.5 0 LINE",
"537.3 65.51 LINE",
"537.3 0 LINE",
"694.6 0 LINE",
"694.6 396 LINE",
"391 396 LINE",
"391 253 LINE",
"526.3 253 LINE",
"526.3 226.86 LINE",
"429.5 141.9 LINE",
"273.3 141.9 LINE",
"237 178.2 LINE",
"237 559.9 LINE",
"273.3 595.1 LINE",
"465.8 595.1 LINE",
"502.1 559.9 LINE",
"502.1 490.6 LINE",
"683.6 489.5 LINE",
"683.6 625.9 LINE",
"572.5 737 LINE",
"161.1 737 LINE",
"50 625.9 LINE",
"50 111.1 LINE",
"161.1 0 LINE"
);
},
{
closed = 1;
nodes = (
"296.37 795 LINE",
"367.37 867 LINE",
"437.37 795 LINE",
"579.37 795 LINE",
"466.37 947 LINE",
"268.37 947 LINE",
"155.37 795 LINE"
);
}
);
width = 818;
}
);
leftKerningGroup = C;
note = Gcircumflex;
rightKerningGroup = G;
unicode = 011C;
},
{
glyphname = uni0122;
lastChange = "2019-09-24 19:26:15 +0000";
layers = (
{
hints = (
{
horizontal = 1;
place = "{-240, 183}";
type = Stem;
},
{
horizontal = 1;
place = "{0, 141.9}";
type = Stem;
},
{
horizontal = 1;
place = "{253, 143}";
type = Stem;
},
{
horizontal = 1;
place = "{595.1, 141.9}";
type = Stem;
},
{
place = "{50, 187}";
type = Stem;
},
{
place = "{537.3, 157.3}";
type = Stem;
},
{
place = "{502.1, 181.5}";
type = Stem;
}
);
layerId = "D215EC84-7FFD-4436-99F3-284D9B779A16";
paths = (
{
closed = 1;
nodes = (
"462.5 0 LINE",
"537.3 65.51 LINE",
"537.3 0 LINE",
"694.6 0 LINE",
"694.6 396 LINE",
"391 396 LINE",
"391 253 LINE",
"526.3 253 LINE",
"526.3 226.86 LINE",
"429.5 141.9 LINE",
"273.3 141.9 LINE",
"237 178.2 LINE",
"237 559.9 LINE",
"273.3 595.1 LINE",
"465.8 595.1 LINE",
"502.1 559.9 LINE",
"502.1 490.6 LINE",
"683.6 489.5 LINE",
"683.6 625.9 LINE",
"572.5 737 LINE",
"161.1 737 LINE",
"50 625.9 LINE",
"50 111.1 LINE",
"161.1 0 LINE"
);
},
{
closed = 1;
nodes = (
"297.08 -240 LINE",
"411.08 -57 LINE",
"238.08 -57 LINE",
"191.08 -240 LINE"
);
}
);
width = 818;
}
);
leftKerningGroup = C;
note = uni0122;
rightKerningGroup = G;
unicode = 0122;
},
{
glyphname = Gdotaccent;
lastChange = "2019-09-24 19:26:15 +0000";
layers = (
{
hints = (
{
horizontal = 1;
place = "{0, 141.9}";
type = Stem;
},
{
horizontal = 1;
place = "{253, 143}";
type = Stem;
},
{
horizontal = 1;
place = "{595.1, 141.9}";
type = Stem;
},
{
horizontal = 1;
place = "{795, 140}";
type = Stem;
},
{
place = "{50, 187}";
type = Stem;
},
{
place = "{273.87, 187}";
type = Stem;
},
{
place = "{537.3, 157.3}";
type = Stem;
},
{
place = "{502.1, 181.5}";
type = Stem;
},
{
horizontal = 1;
place = "{795, 140}";
type = Stem;
},
{
place = "{182, 187}";
type = Stem;
},
{
horizontal = 1;
place = "{795, 140}";
type = Stem;
},
{
place = "{-215, 187}";
type = Stem;
}
);
layerId = "D215EC84-7FFD-4436-99F3-284D9B779A16";
paths = (
{
closed = 1;
nodes = (
"462.5 0 LINE",
"537.3 65.51 LINE",
"537.3 0 LINE",
"694.6 0 LINE",
"694.6 396 LINE",
"391 396 LINE",
"391 253 LINE",
"526.3 253 LINE",
"526.3 226.86 LINE",
"429.5 141.9 LINE",
"273.3 141.9 LINE",
"237 178.2 LINE",
"237 559.9 LINE",
"273.3 595.1 LINE",
"465.8 595.1 LINE",
"502.1 559.9 LINE",
"502.1 490.6 LINE",
"683.6 489.5 LINE",
"683.6 625.9 LINE",
"572.5 737 LINE",
"161.1 737 LINE",
"50 625.9 LINE",
"50 111.1 LINE",
"161.1 0 LINE"
);
},
{
closed = 1;
nodes = (
"460.87 795 LINE",
"460.87 935 LINE",
"273.87 935 LINE",
"273.87 795 LINE"
);
}
);
width = 818;
}
);
leftKerningGroup = C;
note = Gdotaccent;
rightKerningGroup = G;
unicode = 0120;
},
{
glyphname = H;
lastChange = "2019-09-24 19:26:15 +0000";
layers = (
{
hints = (
{
horizontal = 1;
place = "{317, 146}";
type = Stem;
},
{
place = "{70, 187}";
type = Stem;
},
{
place = "{508, 187}";
type = Stem;
}
);
layerId = "D215EC84-7FFD-4436-99F3-284D9B779A16";
paths = (
{
closed = 1;
nodes = (
"257 0 LINE",
"257 317 LINE",
"508 317 LINE",
"508 0 LINE",
"695 0 LINE",
"695 737 LINE",
"508 737 LINE",
"508 463 LINE",
"257 463 LINE",
"257 737 LINE",
"70 737 LINE",
"70 0 LINE"
);
}
);
width = 765;
}
);
leftKerningGroup = B;
note = H;
rightKerningGroup = H;
unicode = 0048;
},
{
glyphname = Hbar;
lastChange = "2019-09-24 19:26:15 +0000";
layers = (
{
hints = (
{
horizontal = 1;
place = "{317, 146}";
type = Stem;
},
{
horizontal = 1;
place = "{537, 117}";
type = Stem;
},
{
place = "{70, 187}";
type = Stem;
},
{
place = "{508, 187}";
type = Stem;
}
);
layerId = "D215EC84-7FFD-4436-99F3-284D9B779A16";
paths = (
{
closed = 1;
nodes = (
"257 0 LINE",
"257 317 LINE",
"508 317 LINE",
"508 0 LINE",
"695 0 LINE",
"695 537 LINE",
"756 537 LINE",
"756 654 LINE",
"695 654 LINE",
"695 737 LINE",
"508 737 LINE",
"508 654 LINE",
"257 654 LINE",
"257 737 LINE",
"70 737 LINE",
"70 654 LINE",
"9 654 LINE",
"9 537 LINE",
"70 537 LINE",
"70 0 LINE"
);
},
{
closed = 1;
nodes = (
"257 537 LINE",
"508 537 LINE",
"508 463 LINE",
"257 463 LINE"
);
}
);
width = 765;
}
);
leftKerningGroup = B;
note = Hbar;
rightKerningGroup = H;
unicode = 0126;
},
{
glyphname = Hcircumflex;
lastChange = "2019-09-24 19:26:15 +0000";
layers = (
{
hints = (
{
horizontal = 1;
place = "{317, 146}";
type = Stem;
},
{
horizontal = 1;
place = "{795, 152}";
type = Stem;
},
{
place = "{70, 187}";
type = Stem;
},
{
place = "{508, 187}";
type = Stem;
}
);
layerId = "D215EC84-7FFD-4436-99F3-284D9B779A16";
paths = (
{
closed = 1;
nodes = (
"257 0 LINE",
"257 317 LINE",
"508 317 LINE",
"508 0 LINE",
"695 0 LINE",
"695 737 LINE",
"508 737 LINE",
"508 463 LINE",
"257 463 LINE",
"257 737 LINE",
"70 737 LINE",
"70 0 LINE"
);
},
{
closed = 1;
nodes = (
"311.5 795 LINE",
"382.5 867 LINE",
"452.5 795 LINE",
"594.5 795 LINE",
"481.5 947 LINE",
"283.5 947 LINE",
"170.5 795 LINE"
);
}
);
width = 765;
}
);
leftKerningGroup = B;
note = Hcircumflex;
rightKerningGroup = H;
unicode = 0124;
},
{
glyphname = I;
lastChange = "2019-09-24 19:26:15 +0000";
layers = (
{
hints = (
{
horizontal = 1;
place = "{0, 141}";
type = Stem;
},
{
horizontal = 1;
place = "{596, 141}";
type = Stem;
},
{
place = "{120.99, 177}";
type = Stem;
}
);
layerId = "D215EC84-7FFD-4436-99F3-284D9B779A16";
paths = (
{
closed = 1;
nodes = (
"380 0 LINE",
"380 141 LINE",
"296.76 141 LINE",
"299.23 596 LINE",
"380 596 LINE",
"380 737 LINE",
"40 737 LINE",
"40 596 LINE",
"120.38 596 LINE",
"121.61 141 LINE",
"40 141 LINE",
"40 0 LINE"
);
}
);
width = 420;
}
);
leftKerningGroup = B;
note = I;
rightKerningGroup = H;
unicode = 0049;
},
{
glyphname = Iacute;
lastChange = "2019-09-24 19:26:15 +0000";
layers = (
{
hints = (
{
horizontal = 1;
place = "{0, 141}";
type = Stem;
},
{
horizontal = 1;
place = "{596, 141}";
type = Stem;
},
{
horizontal = 1;
place = "{795, 157}";
type = Stem;
},
{
place = "{120.99, 177}";
type = Stem;
}
);
layerId = "D215EC84-7FFD-4436-99F3-284D9B779A16";
paths = (
{
closed = 1;
nodes = (
"380 0 LINE",
"380 141 LINE",
"296.76 141 LINE",
"299.23 596 LINE",
"380 596 LINE",
"380 737 LINE",
"40 737 LINE",
"40 596 LINE",
"120.38 596 LINE",
"121.61 141 LINE",
"40 141 LINE",
"40 0 LINE"
);
},
{
closed = 1;
nodes = (
"286 795 LINE",
"436 952 LINE",
"254 952 LINE",
"149 795 LINE"
);
}
);
width = 420;
}
);
leftKerningGroup = B;
note = Iacute;
rightKerningGroup = H;
unicode = 00CD;
},
{
glyphname = Ibreve;
lastChange = "2019-09-24 19:26:15 +0000";
layers = (
{
hints = (
{
horizontal = 1;
place = "{0, 141}";
type = Stem;
},
{
horizontal = 1;
place = "{596, 141}";
type = Stem;
},
{
horizontal = 1;
place = "{795, 94}";
type = Stem;
},
{
place = "{16.5, 132}";
type = Stem;
},
{
place = "{271.5, 132}";
type = Stem;
},
{
horizontal = 1;
place = "{873, 74}";
type = Stem;
},
{
place = "{120.99, 177}";
type = Stem;
}
);
layerId = "D215EC84-7FFD-4436-99F3-284D9B779A16";
paths = (
{
closed = 1;
nodes = (
"380 0 LINE",
"380 141 LINE",
"296.76 141 LINE",
"299.23 596 LINE",
"380 596 LINE",
"380 737 LINE",
"40 737 LINE",
"40 596 LINE",
"120.38 596 LINE",
"121.61 141 LINE",
"40 141 LINE",
"40 0 LINE"
);
},
{
closed = 1;
nodes = (
"317.5 795 LINE",
"403.5 873 LINE",
"403.5 947 LINE",
"271.5 947 LINE",
"271.5 902 LINE",
"257.5 889 LINE",
"162.5 889 LINE",
"148.5 902 LINE",
"148.5 947 LINE",
"16.5 947 LINE",
"16.5 873 LINE",
"101.5 795 LINE"
);
}
);
width = 420;
}
);
leftKerningGroup = B;
note = Ibreve;
rightKerningGroup = H;
unicode = 012C;
},
{
glyphname = Icircumflex;
lastChange = "2019-09-24 19:26:15 +0000";
layers = (
{
hints = (
{
horizontal = 1;
place = "{0, 141}";
type = Stem;
},
{
horizontal = 1;
place = "{596, 141}";
type = Stem;
},
{
horizontal = 1;
place = "{795, 152}";
type = Stem;
},
{
place = "{120.99, 177}";
type = Stem;
}
);
layerId = "D215EC84-7FFD-4436-99F3-284D9B779A16";
paths = (
{
closed = 1;
nodes = (
"380 0 LINE",
"380 141 LINE",
"296.76 141 LINE",
"299.23 596 LINE",
"380 596 LINE",
"380 737 LINE",
"40 737 LINE",
"40 596 LINE",
"120.38 596 LINE",
"121.61 141 LINE",
"40 141 LINE",
"40 0 LINE"
);
},
{
closed = 1;
nodes = (
"139 795 LINE",
"210 867 LINE",
"280 795 LINE",
"422 795 LINE",
"309 947 LINE",
"111 947 LINE",
"-2 795 LINE"
);
}
);
width = 420;
}
);
leftKerningGroup = B;
note = Icircumflex;
rightKerningGroup = H;
unicode = 00CE;
},
{
glyphname = uni0208;
lastChange = "2019-09-24 19:26:15 +0000";
layers = (
{
hints = (
{
horizontal = 1;
place = "{0, 141}";
type = Stem;
},
{
horizontal = 1;
place = "{596, 141}";
type = Stem;
},
{
horizontal = 1;
place = "{795, 157}";
type = Stem;
},
{
place = "{120.99, 177}";
type = Stem;
}
);
layerId = "D215EC84-7FFD-4436-99F3-284D9B779A16";
paths = (
{
closed = 1;
nodes = (
"380 0 LINE",
"380 141 LINE",
"296.76 141 LINE",
"299.23 596 LINE",
"380 596 LINE",
"380 737 LINE",
"40 737 LINE",
"40 596 LINE",
"120.38 596 LINE",
"121.61 141 LINE",
"40 141 LINE",
"40 0 LINE"
);
},
{
closed = 1;
nodes = (
"171 795 LINE",
"66 952 LINE",
"-116 952 LINE",
"34 795 LINE"
);
},
{
closed = 1;
nodes = (
"381 795 LINE",
"276 952 LINE",
"94 952 LINE",
"244 795 LINE"
);
}
);
width = 420;
}
);
leftKerningGroup = B;
note = uni0208;
rightKerningGroup = H;
unicode = 0208;
},
{
glyphname = Idieresis;
lastChange = "2019-09-24 19:26:15 +0000";
layers = (
{
hints = (
{
horizontal = 1;
place = "{0, 141}";
type = Stem;
},
{
horizontal = 1;
place = "{596, 141}";
type = Stem;
},
{
horizontal = 1;
place = "{795, 140}";
type = Stem;
},
{
place = "{-20, 175}";
type = Stem;
},
{
place = "{265, 175}";
type = Stem;
},
{
place = "{120.99, 177}";
type = Stem;
},
{
horizontal = 1;
place = "{795, 140}";
type = Stem;
},
{
place = "{103, 175}";
type = Stem;
},
{
place = "{388, 175}";
type = Stem;
},
{
horizontal = 1;
place = "{795, 118}";
type = Stem;
},
{
place = "{74, 460}";
type = Stem;
},
{
horizontal = 1;
place = "{795, 140}";
type = Stem;
},
{
place = "{-529, 175}";
type = Stem;
},
{
place = "{-244, 175}";
type = Stem;
},
{
horizontal = 1;
place = "{795, 140}";
type = Stem;
},
{
place = "{11, 187}";
type = Stem;
},
{
horizontal = 1;
place = "{795, 140}";
type = Stem;
},
{
place = "{-262, 187}";
type = Stem;
}
);
layerId = "D215EC84-7FFD-4436-99F3-284D9B779A16";
paths = (
{
closed = 1;
nodes = (
"380 0 LINE",
"380 141 LINE",
"297 141 LINE",
"299 596 LINE",
"380 596 LINE",
"380 737 LINE",
"40 737 LINE",
"40 596 LINE",
"120 596 LINE",
"122 141 LINE",
"40 141 LINE",
"40 0 LINE"
);
},
{
closed = 1;
nodes = (
"440 795 LINE",
"440 935 LINE",
"253 935 LINE",
"253 795 LINE"
);
},
{
closed = 1;
nodes = (
"167 795 LINE",
"167 935 LINE",
"-20 935 LINE",
"-20 795 LINE"
);
}
);
width = 420;
}
);
leftKerningGroup = B;
note = Idieresis;
rightKerningGroup = H;
unicode = 00CF;
},
{
glyphname = Idotaccent;
lastChange = "2019-09-24 19:26:15 +0000";
layers = (
{
hints = (
{
horizontal = 1;
place = "{0, 141}";
type = Stem;
},
{
horizontal = 1;
place = "{596, 141}";
type = Stem;
},
{
horizontal = 1;
place = "{795, 140}";
type = Stem;
},
{
place = "{116.5, 187}";
type = Stem;
},
{
place = "{120.99, 177}";
type = Stem;
},
{
horizontal = 1;
place = "{795, 140}";
type = Stem;
},
{
place = "{182, 187}";
type = Stem;
},
{
horizontal = 1;
place = "{795, 140}";
type = Stem;
},
{
place = "{-215, 187}";
type = Stem;
}
);
layerId = "D215EC84-7FFD-4436-99F3-284D9B779A16";
paths = (
{
closed = 1;
nodes = (
"380 0 LINE",
"380 141 LINE",
"296.76 141 LINE",
"299.23 596 LINE",
"380 596 LINE",
"380 737 LINE",
"40 737 LINE",
"40 596 LINE",
"120.38 596 LINE",
"121.61 141 LINE",
"40 141 LINE",
"40 0 LINE"
);
},
{
closed = 1;
nodes = (
"304 795 LINE",
"304 935 LINE",
"117 935 LINE",
"117 795 LINE"
);
}
);
width = 420;
}
);
leftKerningGroup = B;
note = Idotaccent;
rightKerningGroup = H;
unicode = 0130;
},
{
glyphname = uni1ECA;
lastChange = "2019-09-24 19:26:15 +0000";
layers = (
{
hints = (
{
horizontal = 1;
place = "{-197, 140}";
type = Stem;
},
{
horizontal = 1;
place = "{0, 141}";
type = Stem;
},
{
horizontal = 1;
place = "{596, 141}";
type = Stem;
},
{
place = "{120.99, 177}";
type = Stem;
},
{
place = "{116.5, 187}";
type = Stem;
}
);
layerId = "D215EC84-7FFD-4436-99F3-284D9B779A16";
paths = (
{
closed = 1;
nodes = (
"380 0 LINE",
"380 141 LINE",
"296.76 141 LINE",
"299.23 596 LINE",
"380 596 LINE",
"380 737 LINE",
"40 737 LINE",
"40 596 LINE",
"120.38 596 LINE",
"121.61 141 LINE",
"40 141 LINE",
"40 0 LINE"
);
},
{
closed = 1;
nodes = (
"303.5 -197 LINE",
"303.5 -57 LINE",
"116.5 -57 LINE",
"116.5 -197 LINE"
);
}
);
width = 420;
}
);
leftKerningGroup = B;
note = uni1ECA;
rightKerningGroup = H;
unicode = 1ECA;
},
{
glyphname = Igrave;
lastChange = "2019-09-24 19:26:15 +0000";
layers = (
{
hints = (
{
horizontal = 1;
place = "{0, 141}";
type = Stem;
},
{
horizontal = 1;
place = "{596, 141}";
type = Stem;
},
{
horizontal = 1;
place = "{795, 157}";
type = Stem;
},
{
place = "{120.99, 177}";
type = Stem;
}
);
layerId = "D215EC84-7FFD-4436-99F3-284D9B779A16";
paths = (
{
closed = 1;
nodes = (
"380 0 LINE",
"380 141 LINE",
"296.76 141 LINE",
"299.23 596 LINE",
"380 596 LINE",
"380 737 LINE",
"40 737 LINE",
"40 596 LINE",
"120.38 596 LINE",
"121.61 141 LINE",
"40 141 LINE",
"40 0 LINE"
);
},
{
closed = 1;
nodes = (
"273 795 LINE",
"168 952 LINE",
"-14 952 LINE",
"136 795 LINE"
);
}
);
width = 420;
}
);
leftKerningGroup = B;
note = Igrave;
rightKerningGroup = H;
unicode = 00CC;
},
{
glyphname = uni1EC8;
lastChange = "2019-09-24 19:26:15 +0000";
layers = (
{
hints = (
{
horizontal = 1;
place = "{0, 141}";
type = Stem;
},
{
horizontal = 1;
place = "{596, 141}";
type = Stem;
},
{
horizontal = 1;
place = "{921, 100}";
type = Stem;
},
{
place = "{145, 127}";
type = Stem;
},
{
horizontal = 1;
place = "{795, 80}";
type = Stem;
},
{
place = "{220, 125}";
type = Stem;
},
{
place = "{75, 113}";
type = Stem;
},
{
place = "{120.99, 177}";
type = Stem;
}
);
layerId = "D215EC84-7FFD-4436-99F3-284D9B779A16";
paths = (
{
closed = 1;
nodes = (
"380 0 LINE",
"380 141 LINE",
"296.76 141 LINE",
"299.23 596 LINE",
"380 596 LINE",
"380 737 LINE",
"40 737 LINE",
"40 596 LINE",
"120.38 596 LINE",
"121.61 141 LINE",
"40 141 LINE",
"40 0 LINE"
);
},
{
closed = 1;
nodes = (
"272 795 LINE",
"272 836 LINE",
"345 878 LINE",
"345 981 LINE",
"302 1021 LINE",
"118 1021 LINE",
"75 981 LINE",
"75 921 LINE",
"188 921 LINE",
"188 950 LINE",
"220 950 LINE",
"220 921 LINE",
"145 875 LINE",
"145 795 LINE"
);
}
);
width = 420;
}
);
leftKerningGroup = B;
note = uni1EC8;
rightKerningGroup = H;
unicode = 1EC8;
},
{
glyphname = uni020A;
lastChange = "2019-09-24 19:26:15 +0000";
layers = (
{
hints = (
{
horizontal = 1;
place = "{0, 141}";
type = Stem;
},
{
horizontal = 1;
place = "{596, 141}";
type = Stem;
},
{
horizontal = 1;
place = "{853, 93}";
type = Stem;
},
{
place = "{120.99, 177}";
type = Stem;
},
{
place = "{16.5, 132}";
type = Stem;
},
{
place = "{271.5, 132}";
type = Stem;
}
);
layerId = "D215EC84-7FFD-4436-99F3-284D9B779A16";
paths = (
{
closed = 1;
nodes = (
"380 0 LINE",
"380 141 LINE",
"296.76 141 LINE",
"299.23 596 LINE",
"380 596 LINE",
"380 737 LINE",
"40 737 LINE",
"40 596 LINE",
"120.38 596 LINE",
"121.61 141 LINE",
"40 141 LINE",
"40 0 LINE"
);
},
{
closed = 1;
nodes = (
"148.5 795 LINE",
"148.5 840 LINE",
"162.5 853 LINE",
"257.5 853 LINE",
"271.5 840 LINE",
"271.5 795 LINE",
"403.5 795 LINE",
"403.5 868 LINE",
"317.5 946 LINE",
"101.5 946 LINE",
"16.5 868 LINE",
"16.5 795 LINE"
);
}
);
width = 420;
}
);
leftKerningGroup = B;
note = uni020A;
rightKerningGroup = H;
unicode = 020A;
},
{
glyphname = Imacron;
lastChange = "2019-09-24 19:26:15 +0000";
layers = (
{
hints = (
{
horizontal = 1;
place = "{0, 141}";
type = Stem;
},
{
horizontal = 1;
place = "{596, 141}";
type = Stem;
},
{
horizontal = 1;
place = "{795, 118}";
type = Stem;
},
{
place = "{120.99, 177}";
type = Stem;
}
);
layerId = "D215EC84-7FFD-4436-99F3-284D9B779A16";
paths = (
{
closed = 1;
nodes = (
"380 0 LINE",
"380 141 LINE",
"296.76 141 LINE",
"299.23 596 LINE",
"380 596 LINE",
"380 737 LINE",
"40 737 LINE",
"40 596 LINE",
"120.38 596 LINE",
"121.61 141 LINE",
"40 141 LINE",
"40 0 LINE"
);
},
{
closed = 1;
nodes = (
"440 795 LINE",
"440 913 LINE",
"-20 913 LINE",
"-20 795 LINE"
);
}
);
width = 420;
}
);
leftKerningGroup = B;
note = Imacron;
rightKerningGroup = H;
unicode = 012A;
},
{
glyphname = Iogonek;
lastChange = "2019-09-24 19:26:15 +0000";
layers = (
{
hints = (
{
horizontal = 1;
place = "{0, 141}";
type = Stem;
},
{
horizontal = 1;
place = "{596, 141}";
type = Stem;
},
{
place = "{120.99, 177}";
type = Stem;
},
{
horizontal = 1;
place = "{-180, 102}";
type = Stem;
},
{
place = "{243, 137}";
type = Stem;
}
);
layerId = "D215EC84-7FFD-4436-99F3-284D9B779A16";
paths = (
{
closed = 1;
nodes = (
"380 -180 LINE",
"380 -78 LINE",
"365 -78 LINE",
"346 -60 LINE",
"346 -33 LINE",
"380 0 LINE",
"380 141 LINE",
"296.76 141 LINE",
"299.23 596 LINE",
"380 596 LINE",
"380 737 LINE",
"40 737 LINE",
"40 596 LINE",
"120.38 596 LINE",
"121.61 141 LINE",
"40 141 LINE",
"40 0 LINE",
"288 0 LINE",
"243 -33 LINE",
"243 -114 LINE",
"315 -180 LINE"
);
}
);
width = 420;
}
);
leftKerningGroup = B;
note = Iogonek;
rightKerningGroup = H;
unicode = 012E;
},
{
glyphname = Itilde;
lastChange = "2019-09-24 19:26:15 +0000";
layers = (
{
hints = (
{
horizontal = 1;
place = "{0, 141}";
type = Stem;
},
{
horizontal = 1;
place = "{596, 141}";
type = Stem;
},
{
horizontal = 1;
place = "{795, 151}";
type = Stem;
},
{
place = "{120.99, 177}";
type = Stem;
},
{
place = "{315, 125.5}";
type = Stem;
},
{
horizontal = 1;
place = "{802, 150}";
type = Stem;
},
{
place = "{-12, 125}";
type = Stem;
}
);
layerId = "D215EC84-7FFD-4436-99F3-284D9B779A16";
paths = (
{
closed = 1;
nodes = (
"380 0 LINE",
"380 141 LINE",
"296.76 141 LINE",
"299.23 596 LINE",
"380 596 LINE",
"380 737 LINE",
"40 737 LINE",
"40 596 LINE",
"120.38 596 LINE",
"121.61 141 LINE",
"40 141 LINE",
"40 0 LINE"
);
},
{
closed = 1;
nodes = (
"372 795 LINE",
"440 867 LINE",
"441 946 LINE",
"315 946 LINE",
"315 919 LINE",
"301 893 LINE",
"281 893 LINE",
"234 952 LINE",
"56 952 LINE",
"-11 883 LINE",
"-13 802 LINE",
"113 802 LINE",
"113 827 LINE",
"127 858 LINE",
"147 858 LINE",
"194 795 LINE"
);
}
);
width = 420;
}
);
leftKerningGroup = B;
note = Itilde;
rightKerningGroup = H;
unicode = 0128;
},
{
glyphname = J;
lastChange = "2019-09-24 19:26:15 +0000";
layers = (
{
hints = (
{
horizontal = 1;
place = "{0, 142}";
type = Stem;
},
{
place = "{30, 187}";
type = Stem;
},
{
place = "{424, 187}";
type = Stem;
}
);
layerId = "D215EC84-7FFD-4436-99F3-284D9B779A16";
paths = (
{
closed = 1;
nodes = (
"500 0 LINE",
"611 111 LINE",
"611 737 LINE",
"424 737 LINE",
"424 177 LINE",
"389 142 LINE",
"252 142 LINE",
"217 177 LINE",
"217 315 LINE",
"30 315 LINE",
"30 111 LINE",
"141 0 LINE"
);
}
);
width = 681;
}
);
leftKerningGroup = J;
note = J;
unicode = 004A;
},
{
glyphname = Jcircumflex;
lastChange = "2019-09-24 19:26:15 +0000";
layers = (
{
hints = (
{
horizontal = 1;
place = "{0, 142}";
type = Stem;
},
{
horizontal = 1;
place = "{795, 152}";
type = Stem;
},
{
place = "{30, 187}";
type = Stem;
},
{
place = "{424, 187}";
type = Stem;
}
);
layerId = "D215EC84-7FFD-4436-99F3-284D9B779A16";
paths = (
{
closed = 1;
nodes = (
"500 0 LINE",
"611 111 LINE",
"611 737 LINE",
"424 737 LINE",
"424 177 LINE",
"389 142 LINE",
"252 142 LINE",
"217 177 LINE",
"217 315 LINE",
"30 315 LINE",
"30 111 LINE",
"141 0 LINE"
);
},
{
closed = 1;
nodes = (
"447 795 LINE",
"518 867 LINE",
"588 795 LINE",
"730 795 LINE",
"617 947 LINE",
"419 947 LINE",
"306 795 LINE"
);
}
);
width = 681;
}
);
note = Jcircumflex;
unicode = 0134;
},
{
glyphname = K;
lastChange = "2019-09-24 19:26:15 +0000";
layers = (
{
hints = (
{
horizontal = 1;
place = "{0, 737}";
type = Stem;
},
{
place = "{70, 187}";
type = Stem;
}
);
layerId = "D215EC84-7FFD-4436-99F3-284D9B779A16";
paths = (
{
closed = 1;
nodes = (
"257 0 LINE",
"257 199.4 LINE",
"326.67 285.47 LINE",
"493.2 0 LINE",
"692.2 0 LINE",
"431.96 415.53 LINE",
"692.2 737 LINE",
"485.2 737 LINE",
"257 444.01 LINE",
"257 737 LINE",
"70 737 LINE",
"70 0 LINE"
);
}
);
width = 692;
}
);
leftKerningGroup = B;
note = K;
rightKerningGroup = K;
unicode = 004B;
},
{
glyphname = uni0136;
lastChange = "2019-09-24 19:26:15 +0000";
layers = (
{
hints = (
{
horizontal = 1;
place = "{-240, 183}";
type = Stem;
},
{
place = "{70, 187}";
type = Stem;
}
);
layerId = "D215EC84-7FFD-4436-99F3-284D9B779A16";
paths = (
{
closed = 1;
nodes = (
"257 0 LINE",
"257 199.4 LINE",
"326.67 285.47 LINE",
"493.2 0 LINE",
"692.2 0 LINE",
"431.96 415.53 LINE",
"692.2 737 LINE",
"485.2 737 LINE",
"257 444.01 LINE",
"257 737 LINE",
"70 737 LINE",
"70 0 LINE"
);
},
{
closed = 1;
nodes = (
"331.28 -240 LINE",
"445.28 -57 LINE",
"272.28 -57 LINE",
"225.28 -240 LINE"
);
}
);
width = 692;
}
);
leftKerningGroup = B;
note = uni0136;
rightKerningGroup = K;
unicode = 0136;
},
{
glyphname = L;
lastChange = "2019-09-24 19:26:15 +0000";
layers = (
{
hints = (
{
horizontal = 1;
place = "{0, 152}";
type = Stem;
},
{
place = "{70, 187}";
type = Stem;
}
);
layerId = "D215EC84-7FFD-4436-99F3-284D9B779A16";
paths = (
{
closed = 1;
nodes = (
"595.2 0 LINE",
"595.2 152 LINE",
"257 152 LINE",
"257 737 LINE",
"70 737 LINE",
"70 0 LINE"
);
}
);
width = 610;
}
);
leftKerningGroup = B;
note = L;
rightKerningGroup = L;
unicode = 004C;
},
{
glyphname = uni01C7;
lastChange = "2019-09-24 19:26:15 +0000";
layers = (
{
hints = (
{
horizontal = 1;
place = "{0, 152}";
type = Stem;
},
{
place = "{70, 187}";
type = Stem;
},
{
place = "{647, 187}";
type = Stem;
},
{
place = "{1041, 187}";
type = Stem;
}
);
layerId = "D215EC84-7FFD-4436-99F3-284D9B779A16";
paths = (
{
closed = 1;
nodes = (
"1117 0 LINE",
"1228 111 LINE",
"1228 737 LINE",
"1041 737 LINE",
"1041 177 LINE",
"1006 142 LINE",
"869 142 LINE",
"834 177 LINE",
"834 315 LINE",
"647 315 LINE",
"647 111 LINE",
"758 0 LINE"
);
},
{
closed = 1;
nodes = (
"595.2 0 LINE",
"595.2 152 LINE",
"257 152 LINE",
"257 737 LINE",
"70 737 LINE",
"70 0 LINE"
);
}
);
width = 1298;
}
);
leftKerningGroup = B;
note = uni01C7;
unicode = 01C7;
},
{
glyphname = Lacute;
lastChange = "2019-09-24 19:26:15 +0000";
layers = (
{
hints = (
{
horizontal = 1;
place = "{0, 152}";
type = Stem;
},
{
horizontal = 1;
place = "{795, 157}";
type = Stem;
},
{
place = "{70, 187}";
type = Stem;
}
);
layerId = "D215EC84-7FFD-4436-99F3-284D9B779A16";
paths = (
{
closed = 1;
nodes = (
"595.2 0 LINE",
"595.2 152 LINE",
"257 152 LINE",
"257 737 LINE",
"70 737 LINE",
"70 0 LINE"
);
},
{
closed = 1;
nodes = (
"239.2 795 LINE",
"389.2 952 LINE",
"207.2 952 LINE",
"102.2 795 LINE"
);
}
);
width = 610;
}
);
leftKerningGroup = B;
note = Lacute;
rightKerningGroup = L;
unicode = 0139;
},
{
glyphname = Lcaron;
lastChange = "2019-09-24 19:26:15 +0000";
layers = (
{
hints = (
{
horizontal = 1;
place = "{0, 152}";
type = Stem;
},
{
horizontal = 1;
place = "{554, 183}";
type = Stem;
},
{
place = "{70, 187}";
type = Stem;
}
);
layerId = "D215EC84-7FFD-4436-99F3-284D9B779A16";
paths = (
{
closed = 1;
nodes = (
"595.2 0 LINE",
"595.2 152 LINE",
"257 152 LINE",
"257 737 LINE",
"70 737 LINE",
"70 0 LINE"
);
},
{
closed = 1;
nodes = (
"467.2 554 LINE",
"581.2 737 LINE",
"408.2 737 LINE",
"361.2 554 LINE"
);
}
);
width = 610;
}
);
leftKerningGroup = B;
note = Lcaron;
rightKerningGroup = L;
unicode = 013D;
},
{
glyphname = uni013B;
lastChange = "2019-09-24 19:26:15 +0000";
layers = (
{
hints = (
{
horizontal = 1;
place = "{-240, 183}";
type = Stem;
},
{
horizontal = 1;
place = "{0, 152}";
type = Stem;
},
{
place = "{70, 187}";
type = Stem;
}
);
layerId = "D215EC84-7FFD-4436-99F3-284D9B779A16";
paths = (
{
closed = 1;
nodes = (
"595.2 0 LINE",
"595.2 152 LINE",
"257 152 LINE",
"257 737 LINE",
"70 737 LINE",
"70 0 LINE"
);
},
{
closed = 1;
nodes = (
"299.28 -240 LINE",
"413.28 -57 LINE",
"240.28 -57 LINE",
"193.28 -240 LINE"
);
}
);
width = 610;
}
);
leftKerningGroup = B;
note = uni013B;
rightKerningGroup = L;
unicode = 013B;
},
{
glyphname = Ldot;
lastChange = "2019-09-24 19:26:15 +0000";
layers = (
{
hints = (
{
horizontal = 1;
place = "{0, 152}";
type = Stem;
},
{
horizontal = 1;
place = "{331.15, 157}";
type = Stem;
},
{
place = "{70, 187}";
type = Stem;
},
{
place = "{385.2, 169}";
type = Stem;
}
);
layerId = "D215EC84-7FFD-4436-99F3-284D9B779A16";
paths = (
{
closed = 1;
nodes = (
"595.2 0 LINE",
"595.2 152 LINE",
"257 152 LINE",
"257 737 LINE",
"70 737 LINE",
"70 0 LINE"
);
},
{
closed = 1;
nodes = (
"554.2 331.15 LINE",
"554.2 488.15 LINE",
"385.2 488.15 LINE",
"385.2 331.15 LINE"
);
}
);
width = 610;
}
);
leftKerningGroup = B;
note = Ldot;
rightKerningGroup = L;
unicode = 013F;
},
{
glyphname = uni01C8;
lastChange = "2019-09-24 19:26:15 +0000";
layers = (
{
hints = (
{
horizontal = 1;
place = "{-187, 120}";
type = Stem;
},
{
horizontal = 1;
place = "{0, 152}";
type = Stem;
},
{
horizontal = 1;
place = "{580, 140}";
type = Stem;
},
{
place = "{70, 187}";
type = Stem;
},
{
place = "{702, 186.5}";
type = Stem;
}
);
layerId = "D215EC84-7FFD-4436-99F3-284D9B779A16";
paths = (
{
closed = 1;
nodes = (
"595.2 0 LINE",
"595.2 152 LINE",
"257 152 LINE",
"257 737 LINE",
"70 737 LINE",
"70 0 LINE"
);
},
{
closed = 1;
nodes = (
"783 -187 LINE",
"889 -90 LINE",
"888 522 LINE",
"702 522 LINE",
"702 -40 LINE",
"674 -67 LINE",
"598 -67 LINE",
"598 -187 LINE"
);
},
{
closed = 1;
nodes = (
"887.5 580 LINE",
"887.5 720 LINE",
"700.5 720 LINE",
"700.5 580 LINE"
);
}
);
width = 954;
}
);
leftKerningGroup = B;
note = uni01C8;
rightKerningGroup = uni01C8;
unicode = 01C8;
},
{
glyphname = Lslash;
lastChange = "2019-09-24 19:26:15 +0000";
layers = (
{
hints = (
{
horizontal = 1;
place = "{0, 152}";
type = Stem;
},
{
place = "{86, 187}";
type = Stem;
}
);
layerId = "D215EC84-7FFD-4436-99F3-284D9B779A16";
paths = (
{
closed = 1;
nodes = (
"611.2 0 LINE",
"611.2 152 LINE",
"273 152 LINE",
"273 345.54 LINE",
"429 414 LINE",
"429 543 LINE",
"273 474.54 LINE",
"273 737 LINE",
"86 737 LINE",
"86 392.47 LINE",
"12 360 LINE",
"12 231 LINE",
"86 263.47 LINE",
"86 0 LINE"
);
}
);
width = 626;
}
);
leftKerningGroup = B;
note = Lslash;
rightKerningGroup = L;
unicode = 0141;
},
{
glyphname = M;
lastChange = "2019-09-24 19:26:15 +0000";
layers = (
{
hints = (
{
horizontal = 1;
place = "{0, 737}";
type = Stem;
},
{
place = "{70, 173.91}";
type = Stem;
},
{
place = "{641, 173.91}";
type = Stem;
}
);
layerId = "D215EC84-7FFD-4436-99F3-284D9B779A16";
paths = (
{
closed = 1;
nodes = (
"243.91 0 LINE",
"243.91 405.05 LINE",
"398.52 32 LINE",
"486.52 32 LINE",
"641 404.75 LINE",
"641 0 LINE",
"814.91 0 LINE",
"814.91 737 LINE",
"632.52 737 LINE",
"442.52 289 LINE",
"252.52 737 LINE",
"70 737 LINE",
"70 0 LINE"
);
}
);
width = 885;
}
);
leftKerningGroup = B;
note = M;
rightKerningGroup = H;
unicode = 004D;
},
{
glyphname = N;
lastChange = "2019-09-24 19:26:15 +0000";
layers = (
{
hints = (
{
horizontal = 1;
place = "{0, 737}";
type = Stem;
},
{
place = "{70, 173.91}";
type = Stem;
},
{
place = "{522, 173.91}";
type = Stem;
}
);
layerId = "D215EC84-7FFD-4436-99F3-284D9B779A16";
paths = (
{
closed = 1;
nodes = (
"243.91 0 LINE",
"243.91 432 LINE",
"279.52 432 LINE",
"521.52 0 LINE",
"695.91 0 LINE",
"695.91 737 LINE",
"522 737 LINE",
"522 294.92 LINE",
"273.52 737 LINE",
"70 737 LINE",
"70 0 LINE"
);
}
);
width = 766;
}
);
leftKerningGroup = B;
note = N;
rightKerningGroup = H;
unicode = 004E;
},
{
glyphname = uni01CA;
lastChange = "2019-09-24 19:26:15 +0000";
layers = (
{
hints = (
{
horizontal = 1;
place = "{0, 142}";
type = Stem;
},
{
place = "{70, 173.91}";
type = Stem;
},
{
place = "{522, 173.91}";
type = Stem;
},
{
place = "{806, 187}";
type = Stem;
},
{
place = "{1200, 187}";
type = Stem;
}
);
layerId = "D215EC84-7FFD-4436-99F3-284D9B779A16";
paths = (
{
closed = 1;
nodes = (
"243.91 0 LINE",
"243.91 432 LINE",
"279.52 432 LINE",
"521.52 0 LINE",
"695.91 0 LINE",
"695.91 737 LINE",
"522 737 LINE",
"522 294.92 LINE",
"273.52 737 LINE",
"70 737 LINE",
"70 0 LINE"
);
},
{
closed = 1;
nodes = (
"1276 0 LINE",
"1387 111 LINE",
"1387 737 LINE",
"1200 737 LINE",
"1200 177 LINE",
"1165 142 LINE",
"1028 142 LINE",
"993 177 LINE",
"993 315 LINE",
"806 315 LINE",
"806 111 LINE",
"917 0 LINE"
);
}
);
width = 1457;
}
);
leftKerningGroup = B;
note = uni01CA;
unicode = 01CA;
},
{
glyphname = Nacute;
lastChange = "2019-09-24 19:26:15 +0000";
layers = (
{
hints = (
{
horizontal = 1;
place = "{795, 157}";
type = Stem;
},
{
place = "{70, 173.91}";
type = Stem;
},
{
place = "{522, 173.91}";
type = Stem;
}
);
layerId = "D215EC84-7FFD-4436-99F3-284D9B779A16";
paths = (
{
closed = 1;
nodes = (
"243.91 0 LINE",
"243.91 432 LINE",
"279.52 432 LINE",
"521.52 0 LINE",
"695.91 0 LINE",
"695.91 737 LINE",
"522 737 LINE",
"522 294.92 LINE",
"273.52 737 LINE",
"70 737 LINE",
"70 0 LINE"
);
},
{
closed = 1;
nodes = (
"448.52 795 LINE",
"598.52 952 LINE",
"416.52 952 LINE",
"311.52 795 LINE"
);
}
);
width = 766;
}
);
leftKerningGroup = B;
note = Nacute;
rightKerningGroup = H;
unicode = 0143;
},
{
glyphname = Ncaron;
lastChange = "2019-09-24 19:26:15 +0000";
layers = (
{
hints = (
{
horizontal = 1;
place = "{795, 152}";
type = Stem;
},
{
place = "{70, 173.91}";
type = Stem;
},
{
place = "{522, 173.91}";
type = Stem;
}
);
layerId = "D215EC84-7FFD-4436-99F3-284D9B779A16";
paths = (
{
closed = 1;
nodes = (
"243.91 0 LINE",
"243.91 432 LINE",
"279.52 432 LINE",
"521.52 0 LINE",
"695.91 0 LINE",
"695.91 737 LINE",
"522 737 LINE",
"522 294.92 LINE",
"273.52 737 LINE",
"70 737 LINE",
"70 0 LINE"
);
},
{
closed = 1;
nodes = (
"471.52 795 LINE",
"584.52 947 LINE",
"442.52 947 LINE",
"372.52 875 LINE",
"301.52 947 LINE",
"160.52 947 LINE",
"273.52 795 LINE"
);
}
);
width = 766;
}
);
leftKerningGroup = B;
note = Ncaron;
rightKerningGroup = H;
unicode = 0147;
},
{
glyphname = uni0145;
lastChange = "2019-09-24 19:26:15 +0000";
layers = (
{
hints = (
{
horizontal = 1;
place = "{-240, 183}";
type = Stem;
},
{
place = "{70, 173.91}";
type = Stem;
},
{
place = "{522, 173.91}";
type = Stem;
}
);
layerId = "D215EC84-7FFD-4436-99F3-284D9B779A16";
paths = (
{
closed = 1;
nodes = (
"243.91 0 LINE",
"243.91 432 LINE",
"279.52 432 LINE",
"521.52 0 LINE",
"695.91 0 LINE",
"695.91 737 LINE",
"522 737 LINE",
"522 294.92 LINE",
"273.52 737 LINE",
"70 737 LINE",
"70 0 LINE"
);
},
{
closed = 1;
nodes = (
"339.6 -240 LINE",
"453.6 -57 LINE",
"280.6 -57 LINE",
"233.6 -240 LINE"
);
}
);
width = 766;
}
);
leftKerningGroup = B;
note = uni0145;
rightKerningGroup = H;
unicode = 0145;
},
{
glyphname = Eng;
lastChange = "2019-09-24 19:26:15 +0000";
layers = (
{
hints = (
{
horizontal = 1;
place = "{-187, 109}";
type = Stem;
},
{
place = "{70, 173.91}";
type = Stem;
},
{
place = "{522, 173.91}";
type = Stem;
}
);
layerId = "D215EC84-7FFD-4436-99F3-284D9B779A16";
paths = (
{
closed = 1;
nodes = (
"590.91 -187 LINE",
"695.91 -90 LINE",
"695.91 737 LINE",
"522 737 LINE",
"522 294.92 LINE",
"273.51 737 LINE",
"70 737 LINE",
"70 0 LINE",
"243.91 0 LINE",
"243.91 432 LINE",
"279.51 432 LINE",
"521.51 0 LINE",
"521.91 -51 LINE",
"494.91 -78 LINE",
"419.91 -78 LINE",
"419.91 -187 LINE"
);
}
);
width = 766;
}
);
leftKerningGroup = B;
note = Eng;
rightKerningGroup = H;
unicode = 014A;
},
{
glyphname = uni01CB;
lastChange = "2019-09-24 19:26:15 +0000";
layers = (
{
hints = (
{
horizontal = 1;
place = "{-187, 120}";
type = Stem;
},
{
horizontal = 1;
place = "{580, 140}";
type = Stem;
},
{
place = "{70, 173.91}";
type = Stem;
},
{
place = "{522, 173.91}";
type = Stem;
},
{
place = "{864, 186.5}";
type = Stem;
}
);
layerId = "D215EC84-7FFD-4436-99F3-284D9B779A16";
paths = (
{
closed = 1;
nodes = (
"243.91 0 LINE",
"243.91 432 LINE",
"279.52 432 LINE",
"521.52 0 LINE",
"695.91 0 LINE",
"695.91 737 LINE",
"522 737 LINE",
"522 294.92 LINE",
"273.52 737 LINE",
"70 737 LINE",
"70 0 LINE"
);
},
{
closed = 1;
nodes = (
"945 -187 LINE",
"1051 -90 LINE",
"1050 522 LINE",
"864 522 LINE",
"864 -40 LINE",
"836 -67 LINE",
"760 -67 LINE",
"760 -187 LINE"
);
},
{
closed = 1;
nodes = (
"1049.5 580 LINE",
"1049.5 720 LINE",
"862.5 720 LINE",
"862.5 580 LINE"
);
}
);
width = 1116;
}
);
leftKerningGroup = B;
note = uni01CB;
rightKerningGroup = uni01C8;
unicode = 01CB;
},
{
glyphname = Ntilde;
lastChange = "2019-09-24 19:26:15 +0000";
layers = (
{
hints = (
{
horizontal = 1;
place = "{802, 150}";
type = Stem;
},
{
place = "{150.52, 125}";
type = Stem;
},
{
place = "{522, 173.91}";
type = Stem;
},
{
horizontal = 1;
place = "{795, 151}";
type = Stem;
},
{
place = "{70, 173.91}";
type = Stem;
},
{
place = "{477.52, 125.5}";
type = Stem;
}
);
layerId = "D215EC84-7FFD-4436-99F3-284D9B779A16";
paths = (
{
closed = 1;
nodes = (
"243.91 0 LINE",
"243.91 432 LINE",
"279.52 432 LINE",
"521.52 0 LINE",
"695.91 0 LINE",
"695.91 737 LINE",
"522 737 LINE",
"522 294.92 LINE",
"273.52 737 LINE",
"70 737 LINE",
"70 0 LINE"
);
},
{
closed = 1;
nodes = (
"534.52 795 LINE",
"602.52 867 LINE",
"603.52 946 LINE",
"477.52 946 LINE",
"477.52 919 LINE",
"463.52 893 LINE",
"443.52 893 LINE",
"396.52 952 LINE",
"218.52 952 LINE",
"151.52 883 LINE",
"149.52 802 LINE",
"275.52 802 LINE",
"275.52 827 LINE",
"289.52 858 LINE",
"309.52 858 LINE",
"356.52 795 LINE"
);
}
);
width = 766;
}
);
leftKerningGroup = B;
note = Ntilde;
rightKerningGroup = H;
unicode = 00D1;
},
{
glyphname = O;
lastChange = "2019-09-24 19:26:15 +0000";
layers = (
{
hints = (
{
horizontal = 1;
place = "{0, 142}";
type = Stem;
},
{
horizontal = 1;
place = "{595, 142}";
type = Stem;
},
{
place = "{50, 187}";
type = Stem;
},
{
place = "{518, 186}";
type = Stem;
}
);
layerId = "D215EC84-7FFD-4436-99F3-284D9B779A16";
paths = (
{
closed = 1;
nodes = (
"593 0 LINE",
"704 111 LINE",
"704 626 LINE",
"593 737 LINE",
"161 737 LINE",
"50 626 LINE",
"50 111 LINE",
"161 0 LINE"
);
},
{
closed = 1;
nodes = (
"237 177 LINE",
"237 560 LINE",
"273 595 LINE",
"481 595 LINE",
"518 560 LINE",
"518 177 LINE",
"483 142 LINE",
"273 142 LINE"
);
}
);
width = 754;
}
);
leftKerningGroup = C;
note = O;
rightKerningGroup = O;
unicode = 004F;
},
{
glyphname = Oacute;
lastChange = "2019-09-24 19:26:15 +0000";
layers = (
{
hints = (
{
horizontal = 1;
place = "{0, 142}";
type = Stem;
},
{
horizontal = 1;
place = "{595, 142}";
type = Stem;
},
{
horizontal = 1;
place = "{795, 157}";
type = Stem;
},
{
place = "{50, 187}";
type = Stem;
},
{
place = "{518, 186}";
type = Stem;
}
);
layerId = "D215EC84-7FFD-4436-99F3-284D9B779A16";
paths = (
{
closed = 1;
nodes = (
"593 0 LINE",
"704 111 LINE",
"704 626 LINE",
"593 737 LINE",
"161 737 LINE",
"50 626 LINE",
"50 111 LINE",
"161 0 LINE"
);
},
{
closed = 1;
nodes = (
"237 177 LINE",
"237 560 LINE",
"273 595 LINE",
"481 595 LINE",
"518 560 LINE",
"518 177 LINE",
"483 142 LINE",
"273 142 LINE"
);
},
{
closed = 1;
nodes = (
"453 795 LINE",
"603 952 LINE",
"421 952 LINE",
"316 795 LINE"
);
}
);
width = 754;
}
);
leftKerningGroup = C;
note = Oacute;
rightKerningGroup = O;
unicode = 00D3;
},
{
glyphname = Obreve;
lastChange = "2019-09-24 19:26:15 +0000";
layers = (
{
hints = (
{
horizontal = 1;
place = "{0, 142}";
type = Stem;
},
{
horizontal = 1;
place = "{595, 142}";
type = Stem;
},
{
horizontal = 1;
place = "{795, 94}";
type = Stem;
},
{
place = "{50, 187}";
type = Stem;
},
{
place = "{518, 186}";
type = Stem;
},
{
place = "{438.5, 132}";
type = Stem;
},
{
horizontal = 1;
place = "{873, 74}";
type = Stem;
},
{
place = "{183.5, 132}";
type = Stem;
}
);
layerId = "D215EC84-7FFD-4436-99F3-284D9B779A16";
paths = (
{
closed = 1;
nodes = (
"593 0 LINE",
"704 111 LINE",
"704 626 LINE",
"593 737 LINE",
"161 737 LINE",
"50 626 LINE",
"50 111 LINE",
"161 0 LINE"
);
},
{
closed = 1;
nodes = (
"237 177 LINE",
"237 560 LINE",
"273 595 LINE",
"481 595 LINE",
"518 560 LINE",
"518 177 LINE",
"483 142 LINE",
"273 142 LINE"
);
},
{
closed = 1;
nodes = (
"484.5 795 LINE",
"570.5 873 LINE",
"570.5 947 LINE",
"438.5 947 LINE",
"438.5 902 LINE",
"424.5 889 LINE",
"329.5 889 LINE",
"315.5 902 LINE",
"315.5 947 LINE",
"183.5 947 LINE",
"183.5 873 LINE",
"268.5 795 LINE"
);
}
);
width = 754;
}
);
leftKerningGroup = C;
note = Obreve;
rightKerningGroup = O;
unicode = 014E;
},
{
glyphname = Ocircumflex;
lastChange = "2019-09-24 19:26:15 +0000";
layers = (
{
hints = (
{
horizontal = 1;
place = "{0, 142}";
type = Stem;
},
{
horizontal = 1;
place = "{595, 142}";
type = Stem;
},
{
horizontal = 1;
place = "{795, 152}";
type = Stem;
},
{
place = "{50, 187}";
type = Stem;
},
{
place = "{518, 186}";
type = Stem;
}
);
layerId = "D215EC84-7FFD-4436-99F3-284D9B779A16";
paths = (
{
closed = 1;
nodes = (
"593 0 LINE",
"704 111 LINE",
"704 626 LINE",
"593 737 LINE",
"161 737 LINE",
"50 626 LINE",
"50 111 LINE",
"161 0 LINE"
);
},
{
closed = 1;
nodes = (
"237 177 LINE",
"237 560 LINE",
"273 595 LINE",
"481 595 LINE",
"518 560 LINE",
"518 177 LINE",
"483 142 LINE",
"273 142 LINE"
);
},
{
closed = 1;
nodes = (
"306 795 LINE",
"377 867 LINE",
"447 795 LINE",
"589 795 LINE",
"476 947 LINE",
"278 947 LINE",
"165 795 LINE"
);
}
);
width = 754;
}
);
leftKerningGroup = C;
note = Ocircumflex;
rightKerningGroup = O;
unicode = 00D4;
},
{
glyphname = uni1ED0;
lastChange = "2019-09-24 19:26:15 +0000";
layers = (
{
hints = (
{
horizontal = 1;
place = "{0, 142}";
type = Stem;
},
{
horizontal = 1;
place = "{595, 142}";
type = Stem;
},
{
horizontal = 1;
place = "{876.73, 157}";
type = Stem;
},
{
place = "{50, 187}";
type = Stem;
},
{
place = "{518, 186}";
type = Stem;
},
{
horizontal = 1;
place = "{795, 152}";
type = Stem;
}
);
layerId = "D215EC84-7FFD-4436-99F3-284D9B779A16";
paths = (
{
closed = 1;
nodes = (
"593 0 LINE",
"704 111 LINE",
"704 626 LINE",
"593 737 LINE",
"161 737 LINE",
"50 626 LINE",
"50 111 LINE",
"161 0 LINE"
);
},
{
closed = 1;
nodes = (
"237 177 LINE",
"237 560 LINE",
"273 595 LINE",
"481 595 LINE",
"518 560 LINE",
"518 177 LINE",
"483 142 LINE",
"273 142 LINE"
);
},
{
closed = 1;
nodes = (
"307 795 LINE",
"377 867 LINE",
"448 795 LINE",
"589 795 LINE",
"476 947 LINE",
"278 947 LINE",
"165 795 LINE"
);
},
{
closed = 1;
nodes = (
"711 876.73 LINE",
"861 1033.73 LINE",
"679 1033.73 LINE",
"574 876.73 LINE"
);
}
);
width = 754;
}
);
leftKerningGroup = C;
note = uni1ED0;
rightKerningGroup = O;
unicode = 1ED0;
},
{
glyphname = uni1ED8;
lastChange = "2019-09-24 19:26:15 +0000";
layers = (
{
hints = (
{
horizontal = 1;
place = "{-197, 140}";
type = Stem;
},
{
horizontal = 1;
place = "{0, 142}";
type = Stem;
},
{
horizontal = 1;
place = "{595, 142}";
type = Stem;
},
{
horizontal = 1;
place = "{795, 152}";
type = Stem;
},
{
place = "{50, 187}";
type = Stem;
},
{
place = "{283.5, 187}";
type = Stem;
},
{
place = "{518, 186}";
type = Stem;
}
);
layerId = "D215EC84-7FFD-4436-99F3-284D9B779A16";
paths = (
{
closed = 1;
nodes = (
"593 0 LINE",
"704 111 LINE",
"704 626 LINE",
"593 737 LINE",
"161 737 LINE",
"50 626 LINE",
"50 111 LINE",
"161 0 LINE"
);
},
{
closed = 1;
nodes = (
"470.5 -197 LINE",
"470.5 -57 LINE",
"283.5 -57 LINE",
"283.5 -197 LINE"
);
},
{
closed = 1;
nodes = (
"237 177 LINE",
"237 560 LINE",
"273 595 LINE",
"481 595 LINE",
"518 560 LINE",
"518 177 LINE",
"483 142 LINE",
"273 142 LINE"
);
},
{
closed = 1;
nodes = (
"306 795 LINE",
"377 867 LINE",
"447 795 LINE",
"589 795 LINE",
"476 947 LINE",
"278 947 LINE",
"165 795 LINE"
);
}
);
width = 754;
}
);
leftKerningGroup = C;
note = uni1ED8;
rightKerningGroup = O;
unicode = 1ED8;
},
{
glyphname = uni1ED2;
lastChange = "2019-09-24 19:26:15 +0000";
layers = (
{
hints = (
{
horizontal = 1;
place = "{0, 142}";
type = Stem;
},
{
horizontal = 1;
place = "{595, 142}";
type = Stem;
},
{
horizontal = 1;
place = "{876.77, 157}";
type = Stem;
},
{
place = "{50, 187}";
type = Stem;
},
{
place = "{518, 186}";
type = Stem;
},
{
horizontal = 1;
place = "{795, 152}";
type = Stem;
}
);
layerId = "D215EC84-7FFD-4436-99F3-284D9B779A16";
paths = (
{
closed = 1;
nodes = (
"593 0 LINE",
"704 111 LINE",
"704 626 LINE",
"593 737 LINE",
"161 737 LINE",
"50 626 LINE",
"50 111 LINE",
"161 0 LINE"
);
},
{
closed = 1;
nodes = (
"237 177 LINE",
"237 560 LINE",
"273 595 LINE",
"481 595 LINE",
"518 560 LINE",
"518 177 LINE",
"483 142 LINE",
"273 142 LINE"
);
},
{
closed = 1;
nodes = (
"180 876.77 LINE",
"75 1033.77 LINE",
"-107 1033.77 LINE",
"43 876.77 LINE"
);
},
{
closed = 1;
nodes = (
"306 795 LINE",
"377 867 LINE",
"447 795 LINE",
"589 795 LINE",
"476 947 LINE",
"278 947 LINE",
"165 795 LINE"
);
}
);
width = 754;
}
);
leftKerningGroup = C;
note = uni1ED2;
rightKerningGroup = O;
unicode = 1ED2;
},
{
glyphname = uni1ED4;
lastChange = "2019-09-24 19:26:15 +0000";
layers = (
{
hints = (
{
horizontal = 1;
place = "{0, 142}";
type = Stem;
},
{
horizontal = 1;
place = "{595, 142}";
type = Stem;
},
{
horizontal = 1;
place = "{795, 152}";
type = Stem;
},
{
horizontal = 1;
place = "{1002.68, 100}";
type = Stem;
},
{
place = "{50, 187}";
type = Stem;
},
{
place = "{573, 127}";
type = Stem;
},
{
place = "{503, 113}";
type = Stem;
},
{
place = "{648, 125}";
type = Stem;
},
{
place = "{518, 186}";
type = Stem;
}
);
layerId = "D215EC84-7FFD-4436-99F3-284D9B779A16";
paths = (
{
closed = 1;
nodes = (
"593 0 LINE",
"704 111 LINE",
"704 626 LINE",
"593 737 LINE",
"161 737 LINE",
"50 626 LINE",
"50 111 LINE",
"161 0 LINE"
);
},
{
closed = 1;
nodes = (
"237 177 LINE",
"237 560 LINE",
"273 595 LINE",
"481 595 LINE",
"518 560 LINE",
"518 177 LINE",
"483 142 LINE",
"273 142 LINE"
);
},
{
closed = 1;
nodes = (
"306 795 LINE",
"377 867 LINE",
"447 795 LINE",
"589 795 LINE",
"476 947 LINE",
"278 947 LINE",
"165 795 LINE"
);
},
{
closed = 1;
nodes = (
"700 876.68 LINE",
"700 917.68 LINE",
"773 959.68 LINE",
"773 1062.68 LINE",
"730 1102.68 LINE",
"546 1102.68 LINE",
"503 1062.68 LINE",
"503 1002.68 LINE",
"616 1002.68 LINE",
"616 1031.68 LINE",
"648 1031.68 LINE",
"648 1002.68 LINE",
"573 956.68 LINE",
"573 876.68 LINE"
);
}
);
width = 754;
}
);
leftKerningGroup = C;
note = uni1ED4;
rightKerningGroup = O;
unicode = 1ED4;
},
{
glyphname = uni1ED6;
lastChange = "2019-09-24 19:26:15 +0000";
layers = (
{
hints = (
{
horizontal = 1;
place = "{0, 142}";
type = Stem;
},
{
horizontal = 1;
place = "{595, 142}";
type = Stem;
},
{
horizontal = 1;
place = "{795, 152}";
type = Stem;
},
{
horizontal = 1;
place = "{986, 150}";
type = Stem;
},
{
place = "{160, 125}";
type = Stem;
},
{
place = "{518, 186}";
type = Stem;
},
{
horizontal = 1;
place = "{979, 151}";
type = Stem;
},
{
place = "{50, 187}";
type = Stem;
},
{
place = "{487, 125.5}";
type = Stem;
}
);
layerId = "D215EC84-7FFD-4436-99F3-284D9B779A16";
paths = (
{
closed = 1;
nodes = (
"593 0 LINE",
"704 111 LINE",
"704 626 LINE",
"593 737 LINE",
"161 737 LINE",
"50 626 LINE",
"50 111 LINE",
"161 0 LINE"
);
},
{
closed = 1;
nodes = (
"237 177 LINE",
"237 560 LINE",
"273 595 LINE",
"481 595 LINE",
"518 560 LINE",
"518 177 LINE",
"483 142 LINE",
"273 142 LINE"
);
},
{
closed = 1;
nodes = (
"306 795 LINE",
"377 867 LINE",
"447 795 LINE",
"589 795 LINE",
"476 947 LINE",
"278 947 LINE",
"165 795 LINE"
);
},
{
closed = 1;
nodes = (
"544 979 LINE",
"612 1051 LINE",
"613 1130 LINE",
"487 1130 LINE",
"487 1103 LINE",
"473 1077 LINE",
"453 1077 LINE",
"406 1136 LINE",
"228 1136 LINE",
"161 1067 LINE",
"159 986 LINE",
"285 986 LINE",
"285 1011 LINE",
"299 1042 LINE",
"319 1042 LINE",
"366 979 LINE"
);
}
);
width = 754;
}
);
leftKerningGroup = C;
note = uni1ED6;
rightKerningGroup = O;
unicode = 1ED6;
},
{
glyphname = uni020C;
lastChange = "2019-09-24 19:26:15 +0000";
layers = (
{
hints = (
{
horizontal = 1;
place = "{0, 142}";
type = Stem;
},
{
horizontal = 1;
place = "{595, 142}";
type = Stem;
},
{
horizontal = 1;
place = "{795, 157}";
type = Stem;
},
{
place = "{50, 187}";
type = Stem;
},
{
place = "{518, 186}";
type = Stem;
}
);
layerId = "D215EC84-7FFD-4436-99F3-284D9B779A16";
paths = (
{
closed = 1;
nodes = (
"593 0 LINE",
"704 111 LINE",
"704 626 LINE",
"593 737 LINE",
"161 737 LINE",
"50 626 LINE",
"50 111 LINE",
"161 0 LINE"
);
},
{
closed = 1;
nodes = (
"237 177 LINE",
"237 560 LINE",
"273 595 LINE",
"481 595 LINE",
"518 560 LINE",
"518 177 LINE",
"483 142 LINE",
"273 142 LINE"
);
},
{
closed = 1;
nodes = (
"338 795 LINE",
"233 952 LINE",
"51 952 LINE",
"201 795 LINE"
);
},
{
closed = 1;
nodes = (
"548 795 LINE",
"443 952 LINE",
"261 952 LINE",
"411 795 LINE"
);
}
);
width = 754;
}
);
leftKerningGroup = C;
note = uni020C;
rightKerningGroup = O;
unicode = 020C;
},
{
glyphname = Odieresis;
lastChange = "2019-09-24 19:26:15 +0000";
layers = (
{
hints = (
{
horizontal = 1;
place = "{0, 142}";
type = Stem;
},
{
horizontal = 1;
place = "{595, 142}";
type = Stem;
},
{
horizontal = 1;
place = "{795, 140}";
type = Stem;
},
{
place = "{147, 175}";
type = Stem;
},
{
place = "{432, 175}";
type = Stem;
},
{
place = "{50, 187}";
type = Stem;
},
{
place = "{518, 186}";
type = Stem;
},
{
horizontal = 1;
place = "{795, 140}";
type = Stem;
},
{
place = "{270, 175}";
type = Stem;
},
{
place = "{555, 175}";
type = Stem;
},
{
horizontal = 1;
place = "{795, 118}";
type = Stem;
},
{
place = "{241, 460}";
type = Stem;
},
{
horizontal = 1;
place = "{795, 140}";
type = Stem;
},
{
place = "{-362, 175}";
type = Stem;
},
{
place = "{-77, 175}";
type = Stem;
},
{
horizontal = 1;
place = "{795, 140}";
type = Stem;
},
{
place = "{178, 187}";
type = Stem;
},
{
horizontal = 1;
place = "{795, 140}";
type = Stem;
},
{
place = "{-95, 187}";
type = Stem;
}
);
layerId = "D215EC84-7FFD-4436-99F3-284D9B779A16";
paths = (
{
closed = 1;
nodes = (
"593 0 LINE",
"704 111 LINE",
"704 626 LINE",
"593 737 LINE",
"161 737 LINE",
"50 626 LINE",
"50 111 LINE",
"161 0 LINE"
);
},
{
closed = 1;
nodes = (
"237 177 LINE",
"237 560 LINE",
"273 595 LINE",
"481 595 LINE",
"518 560 LINE",
"518 177 LINE",
"483 142 LINE",
"273 142 LINE"
);
},
{
closed = 1;
nodes = (
"607 795 LINE",
"607 935 LINE",
"420 935 LINE",
"420 795 LINE"
);
},
{
closed = 1;
nodes = (
"334 795 LINE",
"334 935 LINE",
"147 935 LINE",
"147 795 LINE"
);
}
);
width = 754;
}
);
leftKerningGroup = C;
note = Odieresis;
rightKerningGroup = O;
unicode = 00D6;
},
{
glyphname = uni022A;
lastChange = "2019-09-24 19:26:15 +0000";
layers = (
{
hints = (
{
horizontal = 1;
place = "{0, 142}";
type = Stem;
},
{
horizontal = 1;
place = "{595, 142}";
type = Stem;
},
{
horizontal = 1;
place = "{795, 140}";
type = Stem;
},
{
horizontal = 1;
place = "{967, 118}";
type = Stem;
},
{
place = "{147, 175}";
type = Stem;
},
{
place = "{432, 175}";
type = Stem;
},
{
place = "{50, 187}";
type = Stem;
},
{
place = "{518, 186}";
type = Stem;
},
{
horizontal = 1;
place = "{795, 140}";
type = Stem;
},
{
place = "{-362, 175}";
type = Stem;
},
{
place = "{-77, 175}";
type = Stem;
},
{
horizontal = 1;
place = "{795, 140}";
type = Stem;
},
{
place = "{178, 187}";
type = Stem;
},
{
horizontal = 1;
place = "{795, 140}";
type = Stem;
},
{
place = "{-95, 187}";
type = Stem;
}
);
layerId = "D215EC84-7FFD-4436-99F3-284D9B779A16";
paths = (
{
closed = 1;
nodes = (
"593 0 LINE",
"704 111 LINE",
"704 626 LINE",
"593 737 LINE",
"161 737 LINE",
"50 626 LINE",
"50 111 LINE",
"161 0 LINE"
);
},
{
closed = 1;
nodes = (
"237 177 LINE",
"237 560 LINE",
"273 595 LINE",
"481 595 LINE",
"518 560 LINE",
"518 177 LINE",
"483 142 LINE",
"273 142 LINE"
);
},
{
closed = 1;
nodes = (
"607 967 LINE",
"607 1085 LINE",
"147 1085 LINE",
"147 967 LINE"
);
},
{
closed = 1;
nodes = (
"607 795 LINE",
"607 935 LINE",
"420 935 LINE",
"420 795 LINE"
);
},
{
closed = 1;
nodes = (
"334 795 LINE",
"334 935 LINE",
"147 935 LINE",
"147 795 LINE"
);
}
);
width = 754;
}
);
leftKerningGroup = C;
note = uni022A;
rightKerningGroup = O;
unicode = 022A;
},
{
glyphname = uni0230;
lastChange = "2019-09-24 19:26:15 +0000";
layers = (
{
hints = (
{
horizontal = 1;
place = "{0, 142}";
type = Stem;
},
{
horizontal = 1;
place = "{595, 142}";
type = Stem;
},
{
horizontal = 1;
place = "{795, 140}";
type = Stem;
},
{
horizontal = 1;
place = "{967, 118}";
type = Stem;
},
{
place = "{50, 187}";
type = Stem;
},
{
place = "{283.5, 187}";
type = Stem;
},
{
place = "{518, 186}";
type = Stem;
}
);
layerId = "D215EC84-7FFD-4436-99F3-284D9B779A16";
paths = (
{
closed = 1;
nodes = (
"593 0 LINE",
"704 111 LINE",
"704 626 LINE",
"593 737 LINE",
"161 737 LINE",
"50 626 LINE",
"50 111 LINE",
"161 0 LINE"
);
},
{
closed = 1;
nodes = (
"237 177 LINE",
"237 560 LINE",
"273 595 LINE",
"481 595 LINE",
"518 560 LINE",
"518 177 LINE",
"483 142 LINE",
"273 142 LINE"
);
},
{
closed = 1;
nodes = (
"470.5 795 LINE",
"470.5 935 LINE",
"283.5 935 LINE",
"283.5 795 LINE"
);
},
{
closed = 1;
nodes = (
"607 967 LINE",
"607 1085 LINE",
"147 1085 LINE",
"147 967 LINE"
);
}
);
width = 754;
}
);
leftKerningGroup = C;
note = uni0230;
rightKerningGroup = O;
unicode = 0230;
},
{
glyphname = uni1ECC;
lastChange = "2019-09-24 19:26:15 +0000";
layers = (
{
hints = (
{
horizontal = 1;
place = "{-197, 140}";
type = Stem;
},
{
horizontal = 1;
place = "{0, 142}";
type = Stem;
},
{
horizontal = 1;
place = "{595, 142}";
type = Stem;
},
{
place = "{50, 187}";
type = Stem;
},
{
place = "{283.5, 187}";
type = Stem;
},
{
place = "{518, 186}";
type = Stem;
}
);
layerId = "D215EC84-7FFD-4436-99F3-284D9B779A16";
paths = (
{
closed = 1;
nodes = (
"593 0 LINE",
"704 111 LINE",
"704 626 LINE",
"593 737 LINE",
"161 737 LINE",
"50 626 LINE",
"50 111 LINE",
"161 0 LINE"
);
},
{
closed = 1;
nodes = (
"470.5 -197 LINE",
"470.5 -57 LINE",
"283.5 -57 LINE",
"283.5 -197 LINE"
);
},
{
closed = 1;
nodes = (
"237 177 LINE",
"237 560 LINE",
"273 595 LINE",
"481 595 LINE",
"518 560 LINE",
"518 177 LINE",
"483 142 LINE",
"273 142 LINE"
);
}
);
width = 754;
}
);
leftKerningGroup = C;
note = uni1ECC;
rightKerningGroup = O;
unicode = 1ECC;
},
{
glyphname = Ograve;
lastChange = "2019-09-24 19:26:15 +0000";
layers = (
{
hints = (
{
horizontal = 1;
place = "{0, 142}";
type = Stem;
},
{
horizontal = 1;
place = "{595, 142}";
type = Stem;
},
{
horizontal = 1;
place = "{795, 157}";
type = Stem;
},
{
place = "{50, 187}";
type = Stem;
},
{
place = "{518, 186}";
type = Stem;
}
);
layerId = "D215EC84-7FFD-4436-99F3-284D9B779A16";
paths = (
{
closed = 1;
nodes = (
"593 0 LINE",
"704 111 LINE",
"704 626 LINE",
"593 737 LINE",
"161 737 LINE",
"50 626 LINE",
"50 111 LINE",
"161 0 LINE"
);
},
{
closed = 1;
nodes = (
"237 177 LINE",
"237 560 LINE",
"273 595 LINE",
"481 595 LINE",
"518 560 LINE",
"518 177 LINE",
"483 142 LINE",
"273 142 LINE"
);
},
{
closed = 1;
nodes = (
"440 795 LINE",
"335 952 LINE",
"153 952 LINE",
"303 795 LINE"
);
}
);
width = 754;
}
);
leftKerningGroup = C;
note = Ograve;
rightKerningGroup = O;
unicode = 00D2;
},
{
glyphname = uni1ECE;
lastChange = "2019-09-24 19:26:15 +0000";
layers = (
{
hints = (
{
horizontal = 1;
place = "{0, 142}";
type = Stem;
},
{
horizontal = 1;
place = "{595, 142}";
type = Stem;
},
{
horizontal = 1;
place = "{795, 80}";
type = Stem;
},
{
horizontal = 1;
place = "{921, 100}";
type = Stem;
},
{
place = "{50, 187}";
type = Stem;
},
{
place = "{312, 127}";
type = Stem;
},
{
place = "{518, 186}";
type = Stem;
},
{
place = "{242, 113}";
type = Stem;
},
{
place = "{387, 125}";
type = Stem;
}
);
layerId = "D215EC84-7FFD-4436-99F3-284D9B779A16";
paths = (
{
closed = 1;
nodes = (
"593 0 LINE",
"704 111 LINE",
"704 626 LINE",
"593 737 LINE",
"161 737 LINE",
"50 626 LINE",
"50 111 LINE",
"161 0 LINE"
);
},
{
closed = 1;
nodes = (
"237 177 LINE",
"237 560 LINE",
"273 595 LINE",
"481 595 LINE",
"518 560 LINE",
"518 177 LINE",
"483 142 LINE",
"273 142 LINE"
);
},
{
closed = 1;
nodes = (
"439 795 LINE",
"439 836 LINE",
"512 878 LINE",
"512 981 LINE",
"469 1021 LINE",
"285 1021 LINE",
"242 981 LINE",
"242 921 LINE",
"355 921 LINE",
"355 950 LINE",
"387 950 LINE",
"387 921 LINE",
"312 875 LINE",
"312 795 LINE"
);
}
);
width = 754;
}
);
leftKerningGroup = C;
note = uni1ECE;
rightKerningGroup = O;
unicode = 1ECE;
},
{
glyphname = Ohorn;
lastChange = "2019-09-24 19:26:15 +0000";
layers = (
{
hints = (
{
horizontal = 1;
place = "{0, 142}";
type = Stem;
},
{
horizontal = 1;
place = "{596, 88}";
type = Stem;
},
{
place = "{50, 187}";
type = Stem;
},
{
place = "{518, 186}";
type = Stem;
},
{
horizontal = 1;
place = "{595, 142}";
type = Stem;
}
);
layerId = "D215EC84-7FFD-4436-99F3-284D9B779A16";
paths = (
{
closed = 1;
nodes = (
"593 0 LINE",
"704 111 LINE",
"704 596 LINE",
"788 596 LINE",
"895 802 LINE",
"715 802 LINE",
"697 684 LINE",
"646 684 LINE",
"593 737 LINE",
"161 737 LINE",
"50 626 LINE",
"50 111 LINE",
"161 0 LINE"
);
},
{
closed = 1;
nodes = (
"237 177 LINE",
"237 560 LINE",
"273 595 LINE",
"481 595 LINE",
"518 560 LINE",
"518 177 LINE",
"483 142 LINE",
"273 142 LINE"
);
}
);
width = 754;
}
);
leftKerningGroup = C;
note = Ohorn;
rightKerningGroup = O;
unicode = 01A0;
},
{
glyphname = uni1EDA;
lastChange = "2019-09-24 19:26:15 +0000";
layers = (
{
hints = (
{
horizontal = 1;
place = "{0, 142}";
type = Stem;
},
{
horizontal = 1;
place = "{595, 142}";
type = Stem;
},
{
horizontal = 1;
place = "{795, 157}";
type = Stem;
},
{
place = "{50, 187}";
type = Stem;
},
{
place = "{518, 186}";
type = Stem;
},
{
horizontal = 1;
place = "{596, 88}";
type = Stem;
}
);
layerId = "D215EC84-7FFD-4436-99F3-284D9B779A16";
paths = (
{
closed = 1;
nodes = (
"593 0 LINE",
"704 111 LINE",
"704 596 LINE",
"788 596 LINE",
"895 802 LINE",
"715 802 LINE",
"697 684 LINE",
"646 684 LINE",
"593 737 LINE",
"161 737 LINE",
"50 626 LINE",
"50 111 LINE",
"161 0 LINE"
);
},
{
closed = 1;
nodes = (
"237 177 LINE",
"237 560 LINE",
"273 595 LINE",
"481 595 LINE",
"518 560 LINE",
"518 177 LINE",
"483 142 LINE",
"273 142 LINE"
);
},
{
closed = 1;
nodes = (
"453 795 LINE",
"603 952 LINE",
"421 952 LINE",
"316 795 LINE"
);
}
);
width = 754;
}
);
leftKerningGroup = C;
note = uni1EDA;
rightKerningGroup = O;
unicode = 1EDA;
},
{
glyphname = uni1EE2;
lastChange = "2019-09-24 19:26:15 +0000";
layers = (
{
hints = (
{
horizontal = 1;
place = "{-197, 140}";
type = Stem;
},
{
horizontal = 1;
place = "{0, 142}";
type = Stem;
},
{
horizontal = 1;
place = "{596, 88}";
type = Stem;
},
{
place = "{50, 187}";
type = Stem;
},
{
place = "{283.5, 187}";
type = Stem;
},
{
place = "{518, 186}";
type = Stem;
},
{
horizontal = 1;
place = "{595, 142}";
type = Stem;
}
);
layerId = "D215EC84-7FFD-4436-99F3-284D9B779A16";
paths = (
{
closed = 1;
nodes = (
"593 0 LINE",
"704 111 LINE",
"704 596 LINE",
"788 596 LINE",
"895 802 LINE",
"715 802 LINE",
"697 684 LINE",
"646 684 LINE",
"593 737 LINE",
"161 737 LINE",
"50 626 LINE",
"50 111 LINE",
"161 0 LINE"
);
},
{
closed = 1;
nodes = (
"470.5 -197 LINE",
"470.5 -57 LINE",
"283.5 -57 LINE",
"283.5 -197 LINE"
);
},
{
closed = 1;
nodes = (
"237 177 LINE",
"237 560 LINE",
"273 595 LINE",
"481 595 LINE",
"518 560 LINE",
"518 177 LINE",
"483 142 LINE",
"273 142 LINE"
);
}
);
width = 754;
}
);
leftKerningGroup = C;
note = uni1EE2;
rightKerningGroup = O;
unicode = 1EE2;
},
{
glyphname = uni1EDC;
lastChange = "2019-09-24 19:26:15 +0000";
layers = (
{
hints = (
{
horizontal = 1;
place = "{0, 142}";
type = Stem;
},
{
horizontal = 1;
place = "{595, 142}";
type = Stem;
},
{
horizontal = 1;
place = "{795, 157}";
type = Stem;
},
{
place = "{50, 187}";
type = Stem;
},
{
place = "{518, 186}";
type = Stem;
},
{
horizontal = 1;
place = "{596, 88}";
type = Stem;
}
);
layerId = "D215EC84-7FFD-4436-99F3-284D9B779A16";
paths = (
{
closed = 1;
nodes = (
"593 0 LINE",
"704 111 LINE",
"704 596 LINE",
"788 596 LINE",
"895 802 LINE",
"715 802 LINE",
"697 684 LINE",
"646 684 LINE",
"593 737 LINE",
"161 737 LINE",
"50 626 LINE",
"50 111 LINE",
"161 0 LINE"
);
},
{
closed = 1;
nodes = (
"237 177 LINE",
"237 560 LINE",
"273 595 LINE",
"481 595 LINE",
"518 560 LINE",
"518 177 LINE",
"483 142 LINE",
"273 142 LINE"
);
},
{
closed = 1;
nodes = (
"440 795 LINE",
"335 952 LINE",
"153 952 LINE",
"303 795 LINE"
);
}
);
width = 754;
}
);
leftKerningGroup = C;
note = uni1EDC;
rightKerningGroup = O;
unicode = 1EDC;
},
{
glyphname = uni1EDE;
lastChange = "2019-09-24 19:26:15 +0000";
layers = (
{
hints = (
{
horizontal = 1;
place = "{0, 142}";
type = Stem;
},
{
horizontal = 1;
place = "{595, 142}";
type = Stem;
},
{
horizontal = 1;
place = "{921, 100}";
type = Stem;
},
{
place = "{50, 187}";
type = Stem;
},
{
place = "{312, 127}";
type = Stem;
},
{
place = "{518, 186}";
type = Stem;
},
{
horizontal = 1;
place = "{795, 80}";
type = Stem;
},
{
place = "{387, 125}";
type = Stem;
},
{
place = "{242, 113}";
type = Stem;
},
{
horizontal = 1;
place = "{596, 88}";
type = Stem;
}
);
layerId = "D215EC84-7FFD-4436-99F3-284D9B779A16";
paths = (
{
closed = 1;
nodes = (
"593 0 LINE",
"704 111 LINE",
"704 596 LINE",
"788 596 LINE",
"895 802 LINE",
"715 802 LINE",
"697 684 LINE",
"646 684 LINE",
"593 737 LINE",
"161 737 LINE",
"50 626 LINE",
"50 111 LINE",
"161 0 LINE"
);
},
{
closed = 1;
nodes = (
"237 177 LINE",
"237 560 LINE",
"273 595 LINE",
"481 595 LINE",
"518 560 LINE",
"518 177 LINE",
"483 142 LINE",
"273 142 LINE"
);
},
{
closed = 1;
nodes = (
"439 795 LINE",
"439 836 LINE",
"512 878 LINE",
"512 981 LINE",
"469 1021 LINE",
"285 1021 LINE",
"242 981 LINE",
"242 921 LINE",
"355 921 LINE",
"355 950 LINE",
"387 950 LINE",
"387 921 LINE",
"312 875 LINE",
"312 795 LINE"
);
}
);
width = 754;
}
);
leftKerningGroup = C;
note = uni1EDE;
rightKerningGroup = O;
unicode = 1EDE;
},
{
glyphname = uni1EE0;
lastChange = "2019-09-24 19:26:15 +0000";
layers = (
{
hints = (
{
horizontal = 1;
place = "{0, 142}";
type = Stem;
},
{
horizontal = 1;
place = "{595, 142}";
type = Stem;
},
{
horizontal = 1;
place = "{802, 150}";
type = Stem;
},
{
place = "{155, 125}";
type = Stem;
},
{
place = "{518, 186}";
type = Stem;
},
{
horizontal = 1;
place = "{795, 151}";
type = Stem;
},
{
place = "{50, 187}";
type = Stem;
},
{
place = "{482, 125.5}";
type = Stem;
},
{
horizontal = 1;
place = "{596, 88}";
type = Stem;
}
);
layerId = "D215EC84-7FFD-4436-99F3-284D9B779A16";
paths = (
{
closed = 1;
nodes = (
"593 0 LINE",
"704 111 LINE",
"704 596 LINE",
"788 596 LINE",
"895 802 LINE",
"715 802 LINE",
"697 684 LINE",
"646 684 LINE",
"593 737 LINE",
"161 737 LINE",
"50 626 LINE",
"50 111 LINE",
"161 0 LINE"
);
},
{
closed = 1;
nodes = (
"237 177 LINE",
"237 560 LINE",
"273 595 LINE",
"481 595 LINE",
"518 560 LINE",
"518 177 LINE",
"483 142 LINE",
"273 142 LINE"
);
},
{
closed = 1;
nodes = (
"539 795 LINE",
"607 867 LINE",
"608 946 LINE",
"482 946 LINE",
"482 919 LINE",
"468 893 LINE",
"448 893 LINE",
"401 952 LINE",
"223 952 LINE",
"156 883 LINE",
"154 802 LINE",
"280 802 LINE",
"280 827 LINE",
"294 858 LINE",
"314 858 LINE",
"361 795 LINE"
);
}
);
width = 754;
}
);
leftKerningGroup = C;
note = uni1EE0;
rightKerningGroup = O;
unicode = 1EE0;
},
{
glyphname = Ohungarumlaut;
lastChange = "2019-09-24 19:26:15 +0000";
layers = (
{
hints = (
{
horizontal = 1;
place = "{0, 142}";
type = Stem;
},
{
horizontal = 1;
place = "{595, 142}";
type = Stem;
},
{
horizontal = 1;
place = "{795, 157}";
type = Stem;
},
{
place = "{50, 187}";
type = Stem;
},
{
place = "{518, 186}";
type = Stem;
}
);
layerId = "D215EC84-7FFD-4436-99F3-284D9B779A16";
paths = (
{
closed = 1;
nodes = (
"593 0 LINE",
"704 111 LINE",
"704 626 LINE",
"593 737 LINE",
"161 737 LINE",
"50 626 LINE",
"50 111 LINE",
"161 0 LINE"
);
},
{
closed = 1;
nodes = (
"237 177 LINE",
"237 560 LINE",
"273 595 LINE",
"481 595 LINE",
"518 560 LINE",
"518 177 LINE",
"483 142 LINE",
"273 142 LINE"
);
},
{
closed = 1;
nodes = (
"352 795 LINE",
"502 952 LINE",
"320 952 LINE",
"215 795 LINE"
);
},
{
closed = 1;
nodes = (
"562 795 LINE",
"712 952 LINE",
"530 952 LINE",
"425 795 LINE"
);
}
);
width = 754;
}
);
leftKerningGroup = C;
note = Ohungarumlaut;
rightKerningGroup = O;
unicode = 0150;
},
{
glyphname = uni020E;
lastChange = "2019-09-24 19:26:15 +0000";
layers = (
{
hints = (
{
horizontal = 1;
place = "{0, 142}";
type = Stem;
},
{
horizontal = 1;
place = "{595, 142}";
type = Stem;
},
{
horizontal = 1;
place = "{853, 93}";
type = Stem;
},
{
place = "{183.5, 132}";
type = Stem;
},
{
place = "{438.5, 132}";
type = Stem;
},
{
place = "{50, 187}";
type = Stem;
},
{
place = "{518, 186}";
type = Stem;
}
);
layerId = "D215EC84-7FFD-4436-99F3-284D9B779A16";
paths = (
{
closed = 1;
nodes = (
"593 0 LINE",
"704 111 LINE",
"704 626 LINE",
"593 737 LINE",
"161 737 LINE",
"50 626 LINE",
"50 111 LINE",
"161 0 LINE"
);
},
{
closed = 1;
nodes = (
"237 177 LINE",
"237 560 LINE",
"273 595 LINE",
"481 595 LINE",
"518 560 LINE",
"518 177 LINE",
"483 142 LINE",
"273 142 LINE"
);
},
{
closed = 1;
nodes = (
"315.5 795 LINE",
"315.5 840 LINE",
"329.5 853 LINE",
"424.5 853 LINE",
"438.5 840 LINE",
"438.5 795 LINE",
"570.5 795 LINE",
"570.5 868 LINE",
"484.5 946 LINE",
"268.5 946 LINE",
"183.5 868 LINE",
"183.5 795 LINE"
);
}
);
width = 754;
}
);
leftKerningGroup = C;
note = uni020E;
rightKerningGroup = O;
unicode = 020E;
},
{
glyphname = Omacron;
lastChange = "2019-09-24 19:26:15 +0000";
layers = (
{
hints = (
{
horizontal = 1;
place = "{0, 142}";
type = Stem;
},
{
horizontal = 1;
place = "{595, 142}";
type = Stem;
},
{
horizontal = 1;
place = "{795, 118}";
type = Stem;
},
{
place = "{50, 187}";
type = Stem;
},
{
place = "{518, 186}";
type = Stem;
}
);
layerId = "D215EC84-7FFD-4436-99F3-284D9B779A16";
paths = (
{
closed = 1;
nodes = (
"593 0 LINE",
"704 111 LINE",
"704 626 LINE",
"593 737 LINE",
"161 737 LINE",
"50 626 LINE",
"50 111 LINE",
"161 0 LINE"
);
},
{
closed = 1;
nodes = (
"237 177 LINE",
"237 560 LINE",
"273 595 LINE",
"481 595 LINE",
"518 560 LINE",
"518 177 LINE",
"483 142 LINE",
"273 142 LINE"
);
},
{
closed = 1;
nodes = (
"607 795 LINE",
"607 913 LINE",
"147 913 LINE",
"147 795 LINE"
);
}
);
width = 754;
}
);
leftKerningGroup = C;
note = Omacron;
rightKerningGroup = O;
unicode = 014C;
},
{
glyphname = uni01EA;
lastChange = "2019-09-24 19:26:15 +0000";
layers = (
{
hints = (
{
horizontal = 1;
place = "{0, 142}";
type = Stem;
},
{
horizontal = 1;
place = "{595, 142}";
type = Stem;
},
{
place = "{50, 187}";
type = Stem;
},
{
place = "{518, 186}";
type = Stem;
},
{
horizontal = 1;
place = "{-180, 102}";
type = Stem;
},
{
place = "{456, 149}";
type = Stem;
}
);
layerId = "D215EC84-7FFD-4436-99F3-284D9B779A16";
paths = (
{
closed = 1;
nodes = (
"605 -180 LINE",
"605 -78 LINE",
"578 -78 LINE",
"559 -60 LINE",
"559 -33 LINE",
"704 111 LINE",
"704 626 LINE",
"593 737 LINE",
"161 737 LINE",
"50 626 LINE",
"50 111 LINE",
"161 0 LINE",
"501 0 LINE",
"456 -33 LINE",
"456 -114 LINE",
"528 -180 LINE"
);
},
{
closed = 1;
nodes = (
"237 177 LINE",
"237 560 LINE",
"273 595 LINE",
"481 595 LINE",
"518 560 LINE",
"518 177 LINE",
"483 142 LINE",
"273 142 LINE"
);
}
);
width = 754;
}
);
leftKerningGroup = C;
note = uni01EA;
rightKerningGroup = O;
unicode = 01EA;
},
{
glyphname = Oslash;
lastChange = "2019-09-24 19:26:15 +0000";
layers = (
{
hints = (
{
horizontal = 1;
place = "{0, 142}";
type = Stem;
},
{
horizontal = 1;
place = "{595, 142}";
type = Stem;
},
{
place = "{50, 187}";
type = Stem;
},
{
place = "{518, 186}";
type = Stem;
}
);
layerId = "D215EC84-7FFD-4436-99F3-284D9B779A16";
paths = (
{
closed = 1;
nodes = (
"593 0 LINE",
"704 111 LINE",
"704 626 LINE",
"593 737 LINE",
"161 737 LINE",
"50 626 LINE",
"50 111 LINE",
"161 0 LINE"
);
},
{
closed = 1;
nodes = (
"518 484.19 LINE",
"518 177 LINE",
"483 142 LINE",
"304.17 142 LINE"
);
},
{
closed = 1;
nodes = (
"237 560 LINE",
"273 595 LINE",
"449.82 595 LINE",
"237 254.4 LINE"
);
}
);
width = 754;
}
);
leftKerningGroup = C;
note = Oslash;
rightKerningGroup = O;
unicode = 00D8;
},
{
glyphname = Oslashacute;
lastChange = "2019-09-24 19:26:15 +0000";
layers = (
{
hints = (
{
horizontal = 1;
place = "{0, 142}";
type = Stem;
},
{
horizontal = 1;
place = "{595, 142}";
type = Stem;
},
{
horizontal = 1;
place = "{795, 157}";
type = Stem;
},
{
place = "{50, 187}";
type = Stem;
},
{
place = "{518, 186}";
type = Stem;
}
);
layerId = "D215EC84-7FFD-4436-99F3-284D9B779A16";
paths = (
{
closed = 1;
nodes = (
"593 0 LINE",
"704 111 LINE",
"704 626 LINE",
"593 737 LINE",
"161 737 LINE",
"50 626 LINE",
"50 111 LINE",
"161 0 LINE"
);
},
{
closed = 1;
nodes = (
"518 484.19 LINE",
"518 177 LINE",
"483 142 LINE",
"304.17 142 LINE"
);
},
{
closed = 1;
nodes = (
"237 560 LINE",
"273 595 LINE",
"449.82 595 LINE",
"237 254.4 LINE"
);
},
{
closed = 1;
nodes = (
"453 795 LINE",
"603 952 LINE",
"421 952 LINE",
"316 795 LINE"
);
}
);
width = 754;
}
);
leftKerningGroup = C;
note = Oslashacute;
rightKerningGroup = O;
unicode = 01FE;
},
{
glyphname = Otilde;
lastChange = "2019-09-24 19:26:15 +0000";
layers = (
{
hints = (
{
horizontal = 1;
place = "{0, 142}";
type = Stem;
},
{
horizontal = 1;
place = "{595, 142}";
type = Stem;
},
{
horizontal = 1;
place = "{802, 150}";
type = Stem;
},
{
place = "{155, 125}";
type = Stem;
},
{
place = "{518, 186}";
type = Stem;
},
{
horizontal = 1;
place = "{795, 151}";
type = Stem;
},
{
place = "{50, 187}";
type = Stem;
},
{
place = "{482, 125.5}";
type = Stem;
}
);
layerId = "D215EC84-7FFD-4436-99F3-284D9B779A16";
paths = (
{
closed = 1;
nodes = (
"593 0 LINE",
"704 111 LINE",
"704 626 LINE",
"593 737 LINE",
"161 737 LINE",
"50 626 LINE",
"50 111 LINE",
"161 0 LINE"
);
},
{
closed = 1;
nodes = (
"237 177 LINE",
"237 560 LINE",
"273 595 LINE",
"481 595 LINE",
"518 560 LINE",
"518 177 LINE",
"483 142 LINE",
"273 142 LINE"
);
},
{
closed = 1;
nodes = (
"535 795 LINE",
"603 867 LINE",
"604 946 LINE",
"478 946 LINE",
"478 919 LINE",
"464 893 LINE",
"444 893 LINE",
"397 952 LINE",
"219 952 LINE",
"152 883 LINE",
"150 802 LINE",
"276 802 LINE",
"276 827 LINE",
"290 858 LINE",
"310 858 LINE",
"357 795 LINE"
);
}
);
width = 754;
}
);
leftKerningGroup = C;
note = Otilde;
rightKerningGroup = O;
unicode = 00D5;
},
{
glyphname = uni022C;
lastChange = "2019-09-24 19:26:15 +0000";
layers = (
{
hints = (
{
horizontal = 1;
place = "{0, 142}";
type = Stem;
},
{
horizontal = 1;
place = "{595, 142}";
type = Stem;
},
{
horizontal = 1;
place = "{802, 150}";
type = Stem;
},
{
horizontal = 1;
place = "{1001, 118}";
type = Stem;
},
{
place = "{50, 187}";
type = Stem;
},
{
place = "{518, 186}";
type = Stem;
},
{
place = "{155, 125}";
type = Stem;
},
{
place = "{482, 125.5}";
type = Stem;
},
{
horizontal = 1;
place = "{795, 151}";
type = Stem;
}
);
layerId = "D215EC84-7FFD-4436-99F3-284D9B779A16";
paths = (
{
closed = 1;
nodes = (
"593 0 LINE",
"704 111 LINE",
"704 626 LINE",
"593 737 LINE",
"161 737 LINE",
"50 626 LINE",
"50 111 LINE",
"161 0 LINE"
);
},
{
closed = 1;
nodes = (
"237 177 LINE",
"237 560 LINE",
"273 595 LINE",
"481 595 LINE",
"518 560 LINE",
"518 177 LINE",
"483 142 LINE",
"273 142 LINE"
);
},
{
closed = 1;
nodes = (
"535 795 LINE",
"603 867 LINE",
"604 946 LINE",
"478 946 LINE",
"478 919 LINE",
"464 893 LINE",
"444 893 LINE",
"397 952 LINE",
"219 952 LINE",
"152 883 LINE",
"150 802 LINE",
"276 802 LINE",
"276 827 LINE",
"290 858 LINE",
"310 858 LINE",
"357 795 LINE"
);
},
{
closed = 1;
nodes = (
"607 1001 LINE",
"607 1119 LINE",
"147 1119 LINE",
"147 1001 LINE"
);
}
);
width = 754;
}
);
leftKerningGroup = C;
note = uni022C;
rightKerningGroup = O;
unicode = 022C;
},
{
glyphname = OE;
lastChange = "2019-09-24 19:26:15 +0000";
layers = (
{
hints = (
{
horizontal = 1;
place = "{0, 152}";
type = Stem;
},
{
horizontal = 1;
place = "{308, 141}";
type = Stem;
},
{
horizontal = 1;
place = "{585, 152}";
type = Stem;
},
{
place = "{50, 187}";
type = Stem;
},
{
place = "{518, 196.8}";
type = Stem;
}
);
layerId = "D215EC84-7FFD-4436-99F3-284D9B779A16";
paths = (
{
closed = 1;
nodes = (
"1078 0 LINE",
"1078 152 LINE",
"704 152 LINE",
"704 308 LINE",
"1041 308 LINE",
"1041 449 LINE",
"704 449 LINE",
"704 585 LINE",
"1078 585 LINE",
"1078 737 LINE",
"161 737 LINE",
"50 626 LINE",
"50 111 LINE",
"161 0 LINE"
);
},
{
closed = 1;
nodes = (
"237 177 LINE",
"237 560 LINE",
"273 595 LINE",
"481 595 LINE",
"518 560 LINE",
"518 177 LINE",
"483 142 LINE",
"273 142 LINE"
);
}
);
width = 1139;
}
);
leftKerningGroup = C;
note = OE;
rightKerningGroup = AE;
unicode = 0152;
},
{
glyphname = P;
lastChange = "2019-09-24 19:26:15 +0000";
layers = (
{
hints = (
{
horizontal = 1;
place = "{231, 142}";
type = Stem;
},
{
horizontal = 1;
place = "{595, 142}";
type = Stem;
},
{
place = "{70, 187}";
type = Stem;
},
{
place = "{493.2, 181}";
type = Stem;
}
);
layerId = "D215EC84-7FFD-4436-99F3-284D9B779A16";
paths = (
{
closed = 1;
nodes = (
"257 0 LINE",
"257 231 LINE",
"563.2 231 LINE",
"674.2 342 LINE",
"674.2 626 LINE",
"563.2 737 LINE",
"70 737 LINE",
"70 0 LINE"
);
},
{
closed = 1;
nodes = (
"257 595 LINE",
"458.2 595 LINE",
"493.2 560 LINE",
"493.2 408 LINE",
"458.2 373 LINE",
"257 373 LINE"
);
}
);
width = 689;
}
);
leftKerningGroup = B;
note = P;
rightKerningGroup = P;
unicode = 0050;
},
{
glyphname = Thorn;
lastChange = "2019-09-24 19:26:15 +0000";
layers = (
{
hints = (
{
horizontal = 1;
place = "{125, 142}";
type = Stem;
},
{
horizontal = 1;
place = "{489, 142}";
type = Stem;
},
{
place = "{70, 187}";
type = Stem;
},
{
place = "{487.2, 187}";
type = Stem;
}
);
layerId = "D215EC84-7FFD-4436-99F3-284D9B779A16";
paths = (
{
closed = 1;
nodes = (
"257 -1 LINE",
"257 125 LINE",
"563.2 125 LINE",
"674.2 236 LINE",
"674.2 520 LINE",
"563.2 631 LINE",
"257 631 LINE",
"257 736 LINE",
"70 736 LINE",
"70 -1 LINE"
);
},
{
closed = 1;
nodes = (
"257 489 LINE",
"458 489 LINE",
"493 454 LINE",
"493 302 LINE",
"458 267 LINE",
"257 267 LINE"
);
}
);
width = 689;
}
);
leftKerningGroup = B;
note = Thorn;
rightKerningGroup = Thorn;
unicode = 00DE;
},
{
glyphname = Q;
lastChange = "2019-09-24 19:26:15 +0000";
layers = (
{
hints = (
{
horizontal = 1;
place = "{0, 142}";
type = Stem;
},
{
horizontal = 1;
place = "{595, 142}";
type = Stem;
},
{
place = "{50, 187}";
type = Stem;
},
{
place = "{318, 138}";
type = Stem;
},
{
place = "{518, 186}";
type = Stem;
},
{
place = "{322, 130}";
type = Stem;
}
);
layerId = "D215EC84-7FFD-4436-99F3-284D9B779A16";
paths = (
{
closed = 1;
nodes = (
"446 -88 LINE",
"446 0 LINE",
"593 0 LINE",
"704 111 LINE",
"704 626 LINE",
"593 737 LINE",
"161 737 LINE",
"50 626 LINE",
"50 111 LINE",
"161 0 LINE",
"308 0 LINE",
"308 -88 LINE"
);
},
{
closed = 1;
nodes = (
"237 177 LINE",
"237 560 LINE",
"273 595 LINE",
"481 595 LINE",
"518 560 LINE",
"518 177 LINE",
"483 142 LINE",
"443 142 LINE",
"443 220 LINE",
"313 220 LINE",
"313 142 LINE",
"273 142 LINE"
);
}
);
width = 754;
}
);
leftKerningGroup = C;
note = Q;
rightKerningGroup = O;
unicode = 0051;
},
{
glyphname = R;
lastChange = "2019-09-24 19:26:15 +0000";
layers = (
{
hints = (
{
horizontal = 1;
place = "{251, 142}";
type = Stem;
},
{
horizontal = 1;
place = "{595, 142}";
type = Stem;
},
{
place = "{70, 187}";
type = Stem;
},
{
place = "{502.2, 182}";
type = Stem;
}
);
layerId = "D215EC84-7FFD-4436-99F3-284D9B779A16";
paths = (
{
closed = 1;
nodes = (
"257 0 LINE",
"257 251 LINE",
"427.04 251 LINE",
"524.2 0 LINE",
"712.2 0 LINE",
"599.62 278.18 LINE",
"684.2 362 LINE",
"684.2 626 LINE",
"572.2 737 LINE",
"70 737 LINE",
"70 0 LINE"
);
},
{
closed = 1;
nodes = (
"257 595 LINE",
"467.2 595 LINE",
"502.2 560 LINE",
"502.2 428 LINE",
"467.2 393 LINE",
"257 393 LINE"
);
}
);
width = 742;
}
);
leftKerningGroup = B;
note = R;
rightKerningGroup = R;
unicode = 0052;
},
{
glyphname = Racute;
lastChange = "2019-09-24 19:26:15 +0000";
layers = (
{
hints = (
{
horizontal = 1;
place = "{251, 142}";
type = Stem;
},
{
horizontal = 1;
place = "{595, 142}";
type = Stem;
},
{
horizontal = 1;
place = "{795, 157}";
type = Stem;
},
{
place = "{70, 187}";
type = Stem;
},
{
place = "{502.2, 182}";
type = Stem;
}
);
layerId = "D215EC84-7FFD-4436-99F3-284D9B779A16";
paths = (
{
closed = 1;
nodes = (
"257 0 LINE",
"257 251 LINE",
"427.04 251 LINE",
"524.2 0 LINE",
"712.2 0 LINE",
"599.62 278.18 LINE",
"684.2 362 LINE",
"684.2 626 LINE",
"572.2 737 LINE",
"70 737 LINE",
"70 0 LINE"
);
},
{
closed = 1;
nodes = (
"257 595 LINE",
"467.2 595 LINE",
"502.2 560 LINE",
"502.2 428 LINE",
"467.2 393 LINE",
"257 393 LINE"
);
},
{
closed = 1;
nodes = (
"425.2 795 LINE",
"575.2 952 LINE",
"393.2 952 LINE",
"288.2 795 LINE"
);
}
);
width = 742;
}
);
leftKerningGroup = B;
note = Racute;
rightKerningGroup = R;
unicode = 0154;
},
{
glyphname = Rcaron;
lastChange = "2019-09-24 19:26:15 +0000";
layers = (
{
hints = (
{
horizontal = 1;
place = "{251, 142}";
type = Stem;
},
{
horizontal = 1;
place = "{595, 142}";
type = Stem;
},
{
horizontal = 1;
place = "{795, 152}";
type = Stem;
},
{
place = "{70, 187}";
type = Stem;
},
{
place = "{502.2, 182}";
type = Stem;
}
);
layerId = "D215EC84-7FFD-4436-99F3-284D9B779A16";
paths = (
{
closed = 1;
nodes = (
"257 0 LINE",
"257 251 LINE",
"427.04 251 LINE",
"524.2 0 LINE",
"712.2 0 LINE",
"599.62 278.18 LINE",
"684.2 362 LINE",
"684.2 626 LINE",
"572.2 737 LINE",
"70 737 LINE",
"70 0 LINE"
);
},
{
closed = 1;
nodes = (
"257 595 LINE",
"467.2 595 LINE",
"502.2 560 LINE",
"502.2 428 LINE",
"467.2 393 LINE",
"257 393 LINE"
);
},
{
closed = 1;
nodes = (
"448.2 795 LINE",
"561.2 947 LINE",
"419.2 947 LINE",
"349.2 875 LINE",
"278.2 947 LINE",
"137.2 947 LINE",
"250.2 795 LINE"
);
}
);
width = 742;
}
);
leftKerningGroup = B;
note = Rcaron;
rightKerningGroup = R;
unicode = 0158;
},
{
glyphname = uni0156;
lastChange = "2019-09-24 19:26:15 +0000";
layers = (
{
hints = (
{
horizontal = 1;
place = "{-240, 183}";
type = Stem;
},
{
horizontal = 1;
place = "{251, 142}";
type = Stem;
},
{
horizontal = 1;
place = "{595, 142}";
type = Stem;
},
{
place = "{70, 187}";
type = Stem;
},
{
place = "{502.2, 182}";
type = Stem;
}
);
layerId = "D215EC84-7FFD-4436-99F3-284D9B779A16";
paths = (
{
closed = 1;
nodes = (
"257 0 LINE",
"257 251 LINE",
"427.04 251 LINE",
"524.2 0 LINE",
"712.2 0 LINE",
"599.62 278.18 LINE",
"684.2 362 LINE",
"684.2 626 LINE",
"572.2 737 LINE",
"70 737 LINE",
"70 0 LINE"
);
},
{
closed = 1;
nodes = (
"359 -240 LINE",
"473 -57 LINE",
"300 -57 LINE",
"253 -240 LINE"
);
},
{
closed = 1;
nodes = (
"257 595 LINE",
"467.2 595 LINE",
"502.2 560 LINE",
"502.2 428 LINE",
"467.2 393 LINE",
"257 393 LINE"
);
}
);
width = 742;
}
);
leftKerningGroup = B;
note = uni0156;
rightKerningGroup = R;
unicode = 0156;
},
{
glyphname = uni0210;
lastChange = "2019-09-24 19:26:15 +0000";
layers = (
{
hints = (
{
horizontal = 1;
place = "{251, 142}";
type = Stem;
},
{
horizontal = 1;
place = "{595, 142}";
type = Stem;
},
{
horizontal = 1;
place = "{795, 157}";
type = Stem;
},
{
place = "{70, 187}";
type = Stem;
},
{
place = "{502.2, 182}";
type = Stem;
}
);
layerId = "D215EC84-7FFD-4436-99F3-284D9B779A16";
paths = (
{
closed = 1;
nodes = (
"257 0 LINE",
"257 251 LINE",
"427.04 251 LINE",
"524.2 0 LINE",
"712.2 0 LINE",
"599.62 278.18 LINE",
"684.2 362 LINE",
"684.2 626 LINE",
"572.2 737 LINE",
"70 737 LINE",
"70 0 LINE"
);
},
{
closed = 1;
nodes = (
"257 595 LINE",
"467.2 595 LINE",
"502.2 560 LINE",
"502.2 428 LINE",
"467.2 393 LINE",
"257 393 LINE"
);
},
{
closed = 1;
nodes = (
"310.2 795 LINE",
"205.2 952 LINE",
"23.2 952 LINE",
"173.2 795 LINE"
);
},
{
closed = 1;
nodes = (
"520.2 795 LINE",
"415.2 952 LINE",
"233.2 952 LINE",
"383.2 795 LINE"
);
}
);
width = 742;
}
);
leftKerningGroup = B;
note = uni0210;
rightKerningGroup = R;
unicode = 0210;
},
{
glyphname = uni0212;
lastChange = "2019-09-24 19:26:15 +0000";
layers = (
{
hints = (
{
horizontal = 1;
place = "{251, 142}";
type = Stem;
},
{
horizontal = 1;
place = "{595, 142}";
type = Stem;
},
{
horizontal = 1;
place = "{853, 93}";
type = Stem;
},
{
place = "{155.7, 132}";
type = Stem;
},
{
place = "{410.7, 132}";
type = Stem;
},
{
place = "{70, 187}";
type = Stem;
},
{
place = "{502.2, 182}";
type = Stem;
}
);
layerId = "D215EC84-7FFD-4436-99F3-284D9B779A16";
paths = (
{
closed = 1;
nodes = (
"257 0 LINE",
"257 251 LINE",
"427.04 251 LINE",
"524.2 0 LINE",
"712.2 0 LINE",
"599.62 278.18 LINE",
"684.2 362 LINE",
"684.2 626 LINE",
"572.2 737 LINE",
"70 737 LINE",
"70 0 LINE"
);
},
{
closed = 1;
nodes = (
"257 595 LINE",
"467.2 595 LINE",
"502.2 560 LINE",
"502.2 428 LINE",
"467.2 393 LINE",
"257 393 LINE"
);
},
{
closed = 1;
nodes = (
"287.7 795 LINE",
"287.7 840 LINE",
"301.7 853 LINE",
"396.7 853 LINE",
"410.7 840 LINE",
"410.7 795 LINE",
"542.7 795 LINE",
"542.7 868 LINE",
"456.7 946 LINE",
"240.7 946 LINE",
"155.7 868 LINE",
"155.7 795 LINE"
);
}
);
width = 742;
}
);
leftKerningGroup = B;
note = uni0212;
rightKerningGroup = R;
unicode = 0212;
},
{
glyphname = S;
lastChange = "2019-09-24 19:26:15 +0000";
layers = (
{
hints = (
{
horizontal = 1;
place = "{0, 150}";
type = Stem;
},
{
horizontal = 1;
place = "{302, 150}";
type = Stem;
},
{
horizontal = 1;
place = "{587, 150}";
type = Stem;
},
{
place = "{45, 184}";
type = Stem;
},
{
place = "{493, 184}";
type = Stem;
}
);
layerId = "D215EC84-7FFD-4436-99F3-284D9B779A16";
paths = (
{
closed = 1;
nodes = (
"566 0 LINE",
"677 111 LINE",
"677 341 LINE",
"566 452 LINE",
"264 452 LINE",
"229 487 LINE",
"229 552 LINE",
"264 587 LINE",
"638 587 LINE",
"638 737 LINE",
"156 737 LINE",
"45 626 LINE",
"45 414 LINE",
"156 302 LINE",
"458 302 LINE",
"493 267 LINE",
"493 185 LINE",
"458 150 LINE",
"74 150 LINE",
"74 0 LINE"
);
}
);
width = 722;
}
);
leftKerningGroup = S;
note = S;
rightKerningGroup = S;
unicode = 0053;
},
{
glyphname = Sacute;
lastChange = "2019-09-24 19:26:15 +0000";
layers = (
{
hints = (
{
horizontal = 1;
place = "{0, 150}";
type = Stem;
},
{
horizontal = 1;
place = "{302, 150}";
type = Stem;
},
{
horizontal = 1;
place = "{587, 150}";
type = Stem;
},
{
horizontal = 1;
place = "{795, 157}";
type = Stem;
},
{
place = "{45, 184}";
type = Stem;
},
{
place = "{493, 184}";
type = Stem;
}
);
layerId = "D215EC84-7FFD-4436-99F3-284D9B779A16";
paths = (
{
closed = 1;
nodes = (
"566 0 LINE",
"677 111 LINE",
"677 341 LINE",
"566 452 LINE",
"264 452 LINE",
"229 487 LINE",
"229 552 LINE",
"264 587 LINE",
"638 587 LINE",
"638 737 LINE",
"156 737 LINE",
"45 626 LINE",
"45 414 LINE",
"156 302 LINE",
"458 302 LINE",
"493 267 LINE",
"493 185 LINE",
"458 150 LINE",
"74 150 LINE",
"74 0 LINE"
);
},
{
closed = 1;
nodes = (
"434 795 LINE",
"584 952 LINE",
"402 952 LINE",
"297 795 LINE"
);
}
);
width = 722;
}
);
leftKerningGroup = S;
note = Sacute;
rightKerningGroup = S;
unicode = 015A;
},
{
glyphname = Scaron;
lastChange = "2019-09-24 19:26:15 +0000";
layers = (
{
hints = (
{
horizontal = 1;
place = "{0, 150}";
type = Stem;
},
{
horizontal = 1;
place = "{302, 150}";
type = Stem;
},
{
horizontal = 1;
place = "{587, 150}";
type = Stem;
},
{
horizontal = 1;
place = "{795, 152}";
type = Stem;
},
{
place = "{45, 184}";
type = Stem;
},
{
place = "{493, 184}";
type = Stem;
}
);
layerId = "D215EC84-7FFD-4436-99F3-284D9B779A16";
paths = (
{
closed = 1;
nodes = (
"566 0 LINE",
"677 111 LINE",
"677 341 LINE",
"566 452 LINE",
"264 452 LINE",
"229 487 LINE",
"229 552 LINE",
"264 587 LINE",
"638 587 LINE",
"638 737 LINE",
"156 737 LINE",
"45 626 LINE",
"45 414 LINE",
"156 302 LINE",
"458 302 LINE",
"493 267 LINE",
"493 185 LINE",
"458 150 LINE",
"74 150 LINE",
"74 0 LINE"
);
},
{
closed = 1;
nodes = (
"457 795 LINE",
"570 947 LINE",
"428 947 LINE",
"358 875 LINE",
"287 947 LINE",
"146 947 LINE",
"259 795 LINE"
);
}
);
width = 722;
}
);
leftKerningGroup = S;
note = Scaron;
rightKerningGroup = S;
unicode = 0160;
},
{
glyphname = Scedilla;
lastChange = "2019-09-24 19:26:15 +0000";
layers = (
{
hints = (
{
horizontal = 1;
place = "{0, 150}";
type = Stem;
},
{
horizontal = 1;
place = "{302, 150}";
type = Stem;
},
{
horizontal = 1;
place = "{587, 150}";
type = Stem;
},
{
place = "{45, 184}";
type = Stem;
},
{
place = "{493, 184}";
type = Stem;
}
);
layerId = "D215EC84-7FFD-4436-99F3-284D9B779A16";
paths = (
{
closed = 1;
nodes = (
"389 -125 LINE",
"439 0 LINE",
"566 0 LINE",
"677 111 LINE",
"677 341 LINE",
"566 452 LINE",
"264 452 LINE",
"229 487 LINE",
"229 552 LINE",
"264 587 LINE",
"638 587 LINE",
"638 737 LINE",
"156 737 LINE",
"45 626 LINE",
"45 414 LINE",
"156 302 LINE",
"458 302 LINE",
"493 267 LINE",
"493 185 LINE",
"458 150 LINE",
"74 150 LINE",
"74 0 LINE",
"288 0 LINE",
"268 -125 LINE"
);
}
);
width = 722;
}
);
leftKerningGroup = S;
note = Scedilla;
rightKerningGroup = S;
unicode = 015E;
},
{
glyphname = Scircumflex;
lastChange = "2019-09-24 19:26:15 +0000";
layers = (
{
hints = (
{
horizontal = 1;
place = "{0, 150}";
type = Stem;
},
{
horizontal = 1;
place = "{302, 150}";
type = Stem;
},
{
horizontal = 1;
place = "{587, 150}";
type = Stem;
},
{
horizontal = 1;
place = "{795, 152}";
type = Stem;
},
{
place = "{45, 184}";
type = Stem;
},
{
place = "{493, 184}";
type = Stem;
}
);
layerId = "D215EC84-7FFD-4436-99F3-284D9B779A16";
paths = (
{
closed = 1;
nodes = (
"566 0 LINE",
"677 111 LINE",
"677 341 LINE",
"566 452 LINE",
"264 452 LINE",
"229 487 LINE",
"229 552 LINE",
"264 587 LINE",
"638 587 LINE",
"638 737 LINE",
"156 737 LINE",
"45 626 LINE",
"45 414 LINE",
"156 302 LINE",
"458 302 LINE",
"493 267 LINE",
"493 185 LINE",
"458 150 LINE",
"74 150 LINE",
"74 0 LINE"
);
},
{
closed = 1;
nodes = (
"287 795 LINE",
"358 867 LINE",
"428 795 LINE",
"570 795 LINE",
"457 947 LINE",
"259 947 LINE",
"146 795 LINE"
);
}
);
width = 722;
}
);
leftKerningGroup = S;
note = Scircumflex;
rightKerningGroup = S;
unicode = 015C;
},
{
glyphname = uni0218;
lastChange = "2019-09-24 19:26:15 +0000";
layers = (
{
hints = (
{
horizontal = 1;
place = "{-240, 183}";
type = Stem;
},
{
horizontal = 1;
place = "{0, 150}";
type = Stem;
},
{
horizontal = 1;
place = "{302, 150}";
type = Stem;
},
{
horizontal = 1;
place = "{587, 150}";
type = Stem;
},
{
place = "{45, 184}";
type = Stem;
},
{
place = "{493, 184}";
type = Stem;
}
);
layerId = "D215EC84-7FFD-4436-99F3-284D9B779A16";
paths = (
{
closed = 1;
nodes = (
"566 0 LINE",
"677 111 LINE",
"677 341 LINE",
"566 452 LINE",
"264 452 LINE",
"229 487 LINE",
"229 552 LINE",
"264 587 LINE",
"638 587 LINE",
"638 737 LINE",
"156 737 LINE",
"45 626 LINE",
"45 414 LINE",
"156 302 LINE",
"458 302 LINE",
"493 267 LINE",
"493 185 LINE",
"458 150 LINE",
"74 150 LINE",
"74 0 LINE"
);
},
{
closed = 1;
nodes = (
"334.08 -240 LINE",
"448.08 -57 LINE",
"275.08 -57 LINE",
"228.08 -240 LINE"
);
}
);
width = 722;
}
);
leftKerningGroup = S;
note = uni0218;
rightKerningGroup = S;
unicode = 0218;
},
{
glyphname = uni1E9E;
lastChange = "2019-09-24 19:26:15 +0000";
layers = (
{
hints = (
{
horizontal = 1;
place = "{0, 131}";
type = Stem;
},
{
horizontal = 1;
place = "{606, 131}";
type = Stem;
},
{
place = "{70, 205}";
type = Stem;
},
{
place = "{481, 209}";
type = Stem;
}
);
layerId = "D215EC84-7FFD-4436-99F3-284D9B779A16";
paths = (
{
closed = 1;
nodes = (
"275 0 LINE",
"275 571 LINE",
"310 606 LINE",
"411 606 LINE",
"446 571 LINE",
"338 433 LINE",
"338 321 LINE",
"446 321 LINE",
"481 286 LINE",
"481 168 LINE",
"446 131 LINE",
"323 131 LINE",
"323 0 LINE",
"586 0 LINE",
"690 98 LINE",
"690 304 LINE",
"551 432 LINE",
"632 531 LINE",
"632 639 LINE",
"528 737 LINE",
"175 737 LINE",
"70 639 LINE",
"70 0 LINE"
);
}
);
width = 735;
}
);
leftKerningGroup = B;
note = uni1E9E;
rightKerningGroup = B;
unicode = 1E9E;
},
{
glyphname = uni018F;
lastChange = "2019-09-24 19:26:15 +0000";
layers = (
{
hints = (
{
horizontal = 1;
place = "{0, 153}";
type = Stem;
},
{
horizontal = 1;
place = "{308, 141}";
type = Stem;
},
{
horizontal = 1;
place = "{584, 153}";
type = Stem;
},
{
place = "{50, 187}";
type = Stem;
},
{
place = "{517, 187}";
type = Stem;
}
);
layerId = "D215EC84-7FFD-4436-99F3-284D9B779A16";
paths = (
{
closed = 1;
nodes = (
"593 0 LINE",
"704 111 LINE",
"704 626 LINE",
"593 737 LINE",
"59 737 LINE",
"59 584 LINE",
"481 584 LINE",
"517 549 LINE",
"517 449 LINE",
"50 449 LINE",
"50 111 LINE",
"161 0 LINE"
);
},
{
closed = 1;
nodes = (
"237 188 LINE",
"237 308 LINE",
"517 308 LINE",
"517 188 LINE",
"481 153 LINE",
"273 153 LINE"
);
}
);
width = 754;
}
);
leftKerningGroup = C;
note = uni018F;
rightKerningGroup = O;
unicode = 018F;
},
{
glyphname = T;
lastChange = "2019-09-24 19:26:15 +0000";
layers = (
{
hints = (
{
horizontal = 1;
place = "{585, 152}";
type = Stem;
},
{
place = "{211, 187}";
type = Stem;
}
);
layerId = "D215EC84-7FFD-4436-99F3-284D9B779A16";
paths = (
{
closed = 1;
nodes = (
"398 0 LINE",
"398 585 LINE",
"604 585 LINE",
"604 737 LINE",
"5 737 LINE",
"5 585 LINE",
"211 585 LINE",
"211 0 LINE"
);
}
);
width = 609;
}
);
leftKerningGroup = T;
note = T;
rightKerningGroup = T;
unicode = 0054;
},
{
glyphname = Tbar;
lastChange = "2019-09-24 19:26:15 +0000";
layers = (
{
hints = (
{
horizontal = 1;
place = "{285, 116}";
type = Stem;
},
{
horizontal = 1;
place = "{585, 152}";
type = Stem;
},
{
place = "{211, 187}";
type = Stem;
}
);
layerId = "D215EC84-7FFD-4436-99F3-284D9B779A16";
paths = (
{
closed = 1;
nodes = (
"398 0 LINE",
"398 285 LINE",
"555.5 285 LINE",
"555.5 401 LINE",
"398 401 LINE",
"398 585 LINE",
"604 585 LINE",
"604 737 LINE",
"5 737 LINE",
"5 585 LINE",
"211 585 LINE",
"211 401 LINE",
"53.5 401 LINE",
"53.5 285 LINE",
"211 285 LINE",
"211 0 LINE"
);
}
);
width = 609;
}
);
leftKerningGroup = T;
note = Tbar;
rightKerningGroup = T;
unicode = 0166;
},
{
glyphname = Tcaron;
lastChange = "2019-09-24 19:26:15 +0000";
layers = (
{
hints = (
{
horizontal = 1;
place = "{585, 152}";
type = Stem;
},
{
horizontal = 1;
place = "{795, 152}";
type = Stem;
},
{
place = "{211, 187}";
type = Stem;
}
);
layerId = "D215EC84-7FFD-4436-99F3-284D9B779A16";
paths = (
{
closed = 1;
nodes = (
"398 0 LINE",
"398 585 LINE",
"604 585 LINE",
"604 737 LINE",
"5 737 LINE",
"5 585 LINE",
"211 585 LINE",
"211 0 LINE"
);
},
{
closed = 1;
nodes = (
"403.5 795 LINE",
"516.5 947 LINE",
"374.5 947 LINE",
"304.5 875 LINE",
"233.5 947 LINE",
"92.5 947 LINE",
"205.5 795 LINE"
);
}
);
width = 609;
}
);
leftKerningGroup = T;
note = Tcaron;
rightKerningGroup = T;
unicode = 0164;
},
{
glyphname = uni0162;
lastChange = "2019-09-24 19:26:15 +0000";
layers = (
{
hints = (
{
horizontal = 1;
place = "{585, 152}";
type = Stem;
},
{
place = "{211, 187}";
type = Stem;
}
);
layerId = "D215EC84-7FFD-4436-99F3-284D9B779A16";
paths = (
{
closed = 1;
nodes = (
"347.8 -125 LINE",
"397.8 0 LINE",
"398 585 LINE",
"604 585 LINE",
"604 737 LINE",
"5 737 LINE",
"5 585 LINE",
"211 585 LINE",
"211 0 LINE",
"246.8 0 LINE",
"226.8 -125 LINE"
);
}
);
width = 609;
}
);
leftKerningGroup = T;
note = uni0162;
rightKerningGroup = T;
unicode = 0162;
},
{
glyphname = uni021A;
lastChange = "2019-09-24 19:26:15 +0000";
layers = (
{
hints = (
{
horizontal = 1;
place = "{-240, 183}";
type = Stem;
},
{
horizontal = 1;
place = "{585, 152}";
type = Stem;
},
{
place = "{211, 187}";
type = Stem;
}
);
layerId = "D215EC84-7FFD-4436-99F3-284D9B779A16";
paths = (
{
closed = 1;
nodes = (
"398 0 LINE",
"398 585 LINE",
"604 585 LINE",
"604 737 LINE",
"5 737 LINE",
"5 585 LINE",
"211 585 LINE",
"211 0 LINE"
);
},
{
closed = 1;
nodes = (
"274.58 -240 LINE",
"388.58 -57 LINE",
"215.58 -57 LINE",
"168.58 -240 LINE"
);
}
);
width = 609;
}
);
leftKerningGroup = T;
note = uni021A;
rightKerningGroup = T;
unicode = 021A;
},
{
glyphname = U;
lastChange = "2019-09-24 19:26:15 +0000";
layers = (
{
hints = (
{
horizontal = 1;
place = "{0, 142}";
type = Stem;
},
{
place = "{65, 187}";
type = Stem;
},
{
place = "{525, 187}";
type = Stem;
}
);
layerId = "D215EC84-7FFD-4436-99F3-284D9B779A16";
paths = (
{
closed = 1;
nodes = (
"601 0 LINE",
"712 111 LINE",
"712 737 LINE",
"525 737 LINE",
"525 177 LINE",
"490 142 LINE",
"287 142 LINE",
"252 177 LINE",
"252 737 LINE",
"65 737 LINE",
"65 111 LINE",
"173.72 0 LINE"
);
}
);
width = 777;
}
);
note = U;
unicode = 0055;
},
{
glyphname = Uacute;
lastChange = "2019-09-24 19:26:15 +0000";
layers = (
{
hints = (
{
horizontal = 1;
place = "{0, 142}";
type = Stem;
},
{
horizontal = 1;
place = "{795, 157}";
type = Stem;
},
{
place = "{65, 187}";
type = Stem;
},
{
place = "{525, 187}";
type = Stem;
}
);
layerId = "D215EC84-7FFD-4436-99F3-284D9B779A16";
paths = (
{
closed = 1;
nodes = (
"601 0 LINE",
"712 111 LINE",
"712 737 LINE",
"525 737 LINE",
"525 177 LINE",
"490 142 LINE",
"287 142 LINE",
"252 177 LINE",
"252 737 LINE",
"65 737 LINE",
"65 111 LINE",
"173.72 0 LINE"
);
},
{
closed = 1;
nodes = (
"464.5 795 LINE",
"614.5 952 LINE",
"432.5 952 LINE",
"327.5 795 LINE"
);
}
);
width = 777;
}
);
note = Uacute;
unicode = 00DA;
},
{
glyphname = Ubreve;
lastChange = "2019-09-24 19:26:15 +0000";
layers = (
{
hints = (
{
horizontal = 1;
place = "{0, 142}";
type = Stem;
},
{
horizontal = 1;
place = "{795, 94}";
type = Stem;
},
{
place = "{65, 187}";
type = Stem;
},
{
place = "{525, 187}";
type = Stem;
},
{
place = "{450, 132}";
type = Stem;
},
{
horizontal = 1;
place = "{873, 74}";
type = Stem;
},
{
place = "{195, 132}";
type = Stem;
}
);
layerId = "D215EC84-7FFD-4436-99F3-284D9B779A16";
paths = (
{
closed = 1;
nodes = (
"601 0 LINE",
"712 111 LINE",
"712 737 LINE",
"525 737 LINE",
"525 177 LINE",
"490 142 LINE",
"287 142 LINE",
"252 177 LINE",
"252 737 LINE",
"65 737 LINE",
"65 111 LINE",
"173.72 0 LINE"
);
},
{
closed = 1;
nodes = (
"496 795 LINE",
"582 873 LINE",
"582 947 LINE",
"450 947 LINE",
"450 902 LINE",
"436 889 LINE",
"341 889 LINE",
"327 902 LINE",
"327 947 LINE",
"195 947 LINE",
"195 873 LINE",
"280 795 LINE"
);
}
);
width = 777;
}
);
note = Ubreve;
unicode = 016C;
},
{
glyphname = Ucircumflex;
lastChange = "2019-09-24 19:26:15 +0000";
layers = (
{
hints = (
{
horizontal = 1;
place = "{0, 142}";
type = Stem;
},
{
horizontal = 1;
place = "{795, 152}";
type = Stem;
},
{
place = "{65, 187}";
type = Stem;
},
{
place = "{525, 187}";
type = Stem;
}
);
layerId = "D215EC84-7FFD-4436-99F3-284D9B779A16";
paths = (
{
closed = 1;
nodes = (
"601 0 LINE",
"712 111 LINE",
"712 737 LINE",
"525 737 LINE",
"525 177 LINE",
"490 142 LINE",
"287 142 LINE",
"252 177 LINE",
"252 737 LINE",
"65 737 LINE",
"65 111 LINE",
"173.72 0 LINE"
);
},
{
closed = 1;
nodes = (
"317.5 795 LINE",
"388.5 867 LINE",
"458.5 795 LINE",
"600.5 795 LINE",
"487.5 947 LINE",
"289.5 947 LINE",
"176.5 795 LINE"
);
}
);
width = 777;
}
);
note = Ucircumflex;
unicode = 00DB;
},
{
glyphname = uni0214;
lastChange = "2019-09-24 19:26:15 +0000";
layers = (
{
hints = (
{
horizontal = 1;
place = "{0, 142}";
type = Stem;
},
{
horizontal = 1;
place = "{795, 157}";
type = Stem;
},
{
place = "{65, 187}";
type = Stem;
},
{
place = "{525, 187}";
type = Stem;
}
);
layerId = "D215EC84-7FFD-4436-99F3-284D9B779A16";
paths = (
{
closed = 1;
nodes = (
"601 0 LINE",
"712 111 LINE",
"712 737 LINE",
"525 737 LINE",
"525 177 LINE",
"490 142 LINE",
"287 142 LINE",
"252 177 LINE",
"252 737 LINE",
"65 737 LINE",
"65 111 LINE",
"173.72 0 LINE"
);
},
{
closed = 1;
nodes = (
"349.5 795 LINE",
"244.5 952 LINE",
"62.5 952 LINE",
"212.5 795 LINE"
);
},
{
closed = 1;
nodes = (
"559.5 795 LINE",
"454.5 952 LINE",
"272.5 952 LINE",
"422.5 795 LINE"
);
}
);
width = 777;
}
);
note = uni0214;
unicode = 0214;
},
{
glyphname = Udieresis;
lastChange = "2019-09-24 19:26:15 +0000";
layers = (
{
hints = (
{
horizontal = 1;
place = "{0, 142}";
type = Stem;
},
{
horizontal = 1;
place = "{795, 140}";
type = Stem;
},
{
place = "{65, 187}";
type = Stem;
},
{
place = "{525, 187}";
type = Stem;
},
{
place = "{158.5, 175}";
type = Stem;
},
{
place = "{443.5, 175}";
type = Stem;
},
{
horizontal = 1;
place = "{795, 140}";
type = Stem;
},
{
place = "{282, 175}";
type = Stem;
},
{
place = "{567, 175}";
type = Stem;
},
{
horizontal = 1;
place = "{795, 118}";
type = Stem;
},
{
place = "{253, 460}";
type = Stem;
},
{
horizontal = 1;
place = "{795, 140}";
type = Stem;
},
{
place = "{-350, 175}";
type = Stem;
},
{
place = "{-65, 175}";
type = Stem;
},
{
horizontal = 1;
place = "{795, 140}";
type = Stem;
},
{
place = "{190, 187}";
type = Stem;
},
{
horizontal = 1;
place = "{795, 140}";
type = Stem;
},
{
place = "{-83, 187}";
type = Stem;
}
);
layerId = "D215EC84-7FFD-4436-99F3-284D9B779A16";
paths = (
{
closed = 1;
nodes = (
"601 0 LINE",
"712 111 LINE",
"712 737 LINE",
"525 737 LINE",
"525 177 LINE",
"490 142 LINE",
"287 142 LINE",
"252 177 LINE",
"252 737 LINE",
"65 737 LINE",
"65 111 LINE",
"173.72 0 LINE"
);
},
{
closed = 1;
nodes = (
"619 795 LINE",
"619 935 LINE",
"432 935 LINE",
"432 795 LINE"
);
},
{
closed = 1;
nodes = (
"346 795 LINE",
"346 935 LINE",
"159 935 LINE",
"159 795 LINE"
);
}
);
width = 777;
}
);
note = Udieresis;
unicode = 00DC;
},
{
glyphname = uni1EE4;
lastChange = "2019-09-24 19:26:15 +0000";
layers = (
{
hints = (
{
horizontal = 1;
place = "{-197, 140}";
type = Stem;
},
{
horizontal = 1;
place = "{0, 142}";
type = Stem;
},
{
place = "{65, 187}";
type = Stem;
},
{
place = "{293.22, 187}";
type = Stem;
},
{
place = "{525, 187}";
type = Stem;
}
);
layerId = "D215EC84-7FFD-4436-99F3-284D9B779A16";
paths = (
{
closed = 1;
nodes = (
"601 0 LINE",
"712 111 LINE",
"712 737 LINE",
"525 737 LINE",
"525 177 LINE",
"490 142 LINE",
"287 142 LINE",
"252 177 LINE",
"252 737 LINE",
"65 737 LINE",
"65 111 LINE",
"173.72 0 LINE"
);
},
{
closed = 1;
nodes = (
"480.22 -197 LINE",
"480.22 -57 LINE",
"293.22 -57 LINE",
"293.22 -197 LINE"
);
}
);
width = 777;
}
);
note = uni1EE4;
unicode = 1EE4;
},
{
glyphname = Ugrave;
lastChange = "2019-09-24 19:26:15 +0000";
layers = (
{
hints = (
{
horizontal = 1;
place = "{0, 142}";
type = Stem;
},
{
horizontal = 1;
place = "{795, 157}";
type = Stem;
},
{
place = "{65, 187}";
type = Stem;
},
{
place = "{525, 187}";
type = Stem;
}
);
layerId = "D215EC84-7FFD-4436-99F3-284D9B779A16";
paths = (
{
closed = 1;
nodes = (
"601 0 LINE",
"712 111 LINE",
"712 737 LINE",
"525 737 LINE",
"525 177 LINE",
"490 142 LINE",
"287 142 LINE",
"252 177 LINE",
"252 737 LINE",
"65 737 LINE",
"65 111 LINE",
"173.72 0 LINE"
);
},
{
closed = 1;
nodes = (
"451.5 795 LINE",
"346.5 952 LINE",
"164.5 952 LINE",
"314.5 795 LINE"
);
}
);
width = 777;
}
);
note = Ugrave;
unicode = 00D9;
},
{
glyphname = uni1EE6;
lastChange = "2019-09-24 19:26:15 +0000";
layers = (
{
hints = (
{
horizontal = 1;
place = "{0, 142}";
type = Stem;
},
{
horizontal = 1;
place = "{795, 80}";
type = Stem;
},
{
horizontal = 1;
place = "{921, 100}";
type = Stem;
},
{
place = "{65, 187}";
type = Stem;
},
{
place = "{323.5, 127}";
type = Stem;
},
{
place = "{525, 187}";
type = Stem;
},
{
place = "{253.5, 113}";
type = Stem;
},
{
place = "{398.5, 125}";
type = Stem;
}
);
layerId = "D215EC84-7FFD-4436-99F3-284D9B779A16";
paths = (
{
closed = 1;
nodes = (
"601 0 LINE",
"712 111 LINE",
"712 737 LINE",
"525 737 LINE",
"525 177 LINE",
"490 142 LINE",
"287 142 LINE",
"252 177 LINE",
"252 737 LINE",
"65 737 LINE",
"65 111 LINE",
"173.72 0 LINE"
);
},
{
closed = 1;
nodes = (
"450.5 795 LINE",
"450.5 836 LINE",
"523.5 878 LINE",
"523.5 981 LINE",
"480.5 1021 LINE",
"296.5 1021 LINE",
"253.5 981 LINE",
"253.5 921 LINE",
"366.5 921 LINE",
"366.5 950 LINE",
"398.5 950 LINE",
"398.5 921 LINE",
"323.5 875 LINE",
"323.5 795 LINE"
);
}
);
width = 777;
}
);
note = uni1EE6;
unicode = 1EE6;
},
{
glyphname = Uhorn;
lastChange = "2019-09-24 19:26:15 +0000";
layers = (
{
hints = (
{
horizontal = 1;
place = "{0, 142}";
type = Stem;
},
{
horizontal = 1;
place = "{596, 88}";
type = Stem;
},
{
place = "{65, 187}";
type = Stem;
},
{
place = "{525, 187}";
type = Stem;
}
);
layerId = "D215EC84-7FFD-4436-99F3-284D9B779A16";
paths = (
{
closed = 1;
nodes = (
"601 0 LINE",
"712 111 LINE",
"712 596 LINE",
"852 596 LINE",
"959 802 LINE",
"779 802 LINE",
"761 684 LINE",
"712 684 LINE",
"712 737 LINE",
"525 737 LINE",
"525 177 LINE",
"490 142 LINE",
"287 142 LINE",
"252 177 LINE",
"252 737 LINE",
"65 737 LINE",
"65 111 LINE",
"173.72 0 LINE"
);
}
);
width = 777;
}
);
note = Uhorn;
unicode = 01AF;
},
{
glyphname = uni1EE8;
lastChange = "2019-09-24 19:26:15 +0000";
layers = (
{
hints = (
{
horizontal = 1;
place = "{0, 142}";
type = Stem;
},
{
horizontal = 1;
place = "{596, 88}";
type = Stem;
},
{
horizontal = 1;
place = "{795, 157}";
type = Stem;
},
{
place = "{65, 187}";
type = Stem;
},
{
place = "{525, 187}";
type = Stem;
}
);
layerId = "D215EC84-7FFD-4436-99F3-284D9B779A16";
paths = (
{
closed = 1;
nodes = (
"601 0 LINE",
"712 111 LINE",
"712 596 LINE",
"852 596 LINE",
"959 802 LINE",
"779 802 LINE",
"761 684 LINE",
"712 684 LINE",
"712 737 LINE",
"525 737 LINE",
"525 177 LINE",
"490 142 LINE",
"287 142 LINE",
"252 177 LINE",
"252 737 LINE",
"65 737 LINE",
"65 111 LINE",
"173.72 0 LINE"
);
},
{
closed = 1;
nodes = (
"464.5 795 LINE",
"614.5 952 LINE",
"432.5 952 LINE",
"327.5 795 LINE"
);
}
);
width = 777;
}
);
note = uni1EE8;
unicode = 1EE8;
},
{
glyphname = uni1EF0;
lastChange = "2019-09-24 19:26:15 +0000";
layers = (
{
hints = (
{
horizontal = 1;
place = "{-197, 140}";
type = Stem;
},
{
horizontal = 1;
place = "{0, 142}";
type = Stem;
},
{
horizontal = 1;
place = "{596, 88}";
type = Stem;
},
{
place = "{65, 187}";
type = Stem;
},
{
place = "{293.22, 187}";
type = Stem;
},
{
place = "{525, 187}";
type = Stem;
}
);
layerId = "D215EC84-7FFD-4436-99F3-284D9B779A16";
paths = (
{
closed = 1;
nodes = (
"601 0 LINE",
"712 111 LINE",
"712 596 LINE",
"852 596 LINE",
"959 802 LINE",
"779 802 LINE",
"761 684 LINE",
"712 684 LINE",
"712 737 LINE",
"525 737 LINE",
"525 177 LINE",
"490 142 LINE",
"287 142 LINE",
"252 177 LINE",
"252 737 LINE",
"65 737 LINE",
"65 111 LINE",
"173.72 0 LINE"
);
},
{
closed = 1;
nodes = (
"480.22 -197 LINE",
"480.22 -57 LINE",
"293.22 -57 LINE",
"293.22 -197 LINE"
);
}
);
width = 777;
}
);
note = uni1EF0;
unicode = 1EF0;
},
{
glyphname = uni1EEA;
lastChange = "2019-09-24 19:26:15 +0000";
layers = (
{
hints = (
{
horizontal = 1;
place = "{0, 142}";
type = Stem;
},
{
horizontal = 1;
place = "{596, 88}";
type = Stem;
},
{
horizontal = 1;
place = "{795, 157}";
type = Stem;
},
{
place = "{65, 187}";
type = Stem;
},
{
place = "{525, 187}";
type = Stem;
}
);
layerId = "D215EC84-7FFD-4436-99F3-284D9B779A16";
paths = (
{
closed = 1;
nodes = (
"601 0 LINE",
"712 111 LINE",
"712 596 LINE",
"852 596 LINE",
"959 802 LINE",
"779 802 LINE",
"761 684 LINE",
"712 684 LINE",
"712 737 LINE",
"525 737 LINE",
"525 177 LINE",
"490 142 LINE",
"287 142 LINE",
"252 177 LINE",
"252 737 LINE",
"65 737 LINE",
"65 111 LINE",
"173.72 0 LINE"
);
},
{
closed = 1;
nodes = (
"451.5 795 LINE",
"346.5 952 LINE",
"164.5 952 LINE",
"314.5 795 LINE"
);
}
);
width = 777;
}
);
note = uni1EEA;
unicode = 1EEA;
},
{
glyphname = uni1EEC;
lastChange = "2019-09-24 19:26:15 +0000";
layers = (
{
hints = (
{
horizontal = 1;
place = "{0, 142}";
type = Stem;
},
{
horizontal = 1;
place = "{596, 88}";
type = Stem;
},
{
horizontal = 1;
place = "{921, 100}";
type = Stem;
},
{
place = "{65, 187}";
type = Stem;
},
{
place = "{323.5, 127}";
type = Stem;
},
{
place = "{525, 187}";
type = Stem;
},
{
horizontal = 1;
place = "{795, 80}";
type = Stem;
},
{
place = "{398.5, 125}";
type = Stem;
},
{
place = "{253.5, 113}";
type = Stem;
}
);
layerId = "D215EC84-7FFD-4436-99F3-284D9B779A16";
paths = (
{
closed = 1;
nodes = (
"601 0 LINE",
"712 111 LINE",
"712 596 LINE",
"852 596 LINE",
"959 802 LINE",
"779 802 LINE",
"761 684 LINE",
"712 684 LINE",
"712 737 LINE",
"525 737 LINE",
"525 177 LINE",
"490 142 LINE",
"287 142 LINE",
"252 177 LINE",
"252 737 LINE",
"65 737 LINE",
"65 111 LINE",
"173.72 0 LINE"
);
},
{
closed = 1;
nodes = (
"450.5 795 LINE",
"450.5 836 LINE",
"523.5 878 LINE",
"523.5 981 LINE",
"480.5 1021 LINE",
"296.5 1021 LINE",
"253.5 981 LINE",
"253.5 921 LINE",
"366.5 921 LINE",
"366.5 950 LINE",
"398.5 950 LINE",
"398.5 921 LINE",
"323.5 875 LINE",
"323.5 795 LINE"
);
}
);
width = 777;
}
);
note = uni1EEC;
unicode = 1EEC;
},
{
glyphname = uni1EEE;
lastChange = "2019-09-24 19:26:15 +0000";
layers = (
{
hints = (
{
horizontal = 1;
place = "{0, 142}";
type = Stem;
},
{
horizontal = 1;
place = "{596, 88}";
type = Stem;
},
{
horizontal = 1;
place = "{802, 150}";
type = Stem;
},
{
place = "{166.5, 125}";
type = Stem;
},
{
place = "{525, 187}";
type = Stem;
},
{
horizontal = 1;
place = "{795, 151}";
type = Stem;
},
{
place = "{65, 187}";
type = Stem;
},
{
place = "{493.5, 125.5}";
type = Stem;
}
);
layerId = "D215EC84-7FFD-4436-99F3-284D9B779A16";
paths = (
{
closed = 1;
nodes = (
"601 0 LINE",
"712 111 LINE",
"712 596 LINE",
"852 596 LINE",
"959 802 LINE",
"779 802 LINE",
"761 684 LINE",
"712 684 LINE",
"712 737 LINE",
"525 737 LINE",
"525 177 LINE",
"490 142 LINE",
"287 142 LINE",
"252 177 LINE",
"252 737 LINE",
"65 737 LINE",
"65 111 LINE",
"173.72 0 LINE"
);
},
{
closed = 1;
nodes = (
"550.5 795 LINE",
"618.5 867 LINE",
"619.5 946 LINE",
"493.5 946 LINE",
"493.5 919 LINE",
"479.5 893 LINE",
"459.5 893 LINE",
"412.5 952 LINE",
"234.5 952 LINE",
"167.5 883 LINE",
"165.5 802 LINE",
"291.5 802 LINE",
"291.5 827 LINE",
"305.5 858 LINE",
"325.5 858 LINE",
"372.5 795 LINE"
);
}
);
width = 777;
}
);
note = uni1EEE;
unicode = 1EEE;
},
{
glyphname = Uhungarumlaut;
lastChange = "2019-09-24 19:26:15 +0000";
layers = (
{
hints = (
{
horizontal = 1;
place = "{0, 142}";
type = Stem;
},
{
horizontal = 1;
place = "{795, 157}";
type = Stem;
},
{
place = "{65, 187}";
type = Stem;
},
{
place = "{525, 187}";
type = Stem;
}
);
layerId = "D215EC84-7FFD-4436-99F3-284D9B779A16";
paths = (
{
closed = 1;
nodes = (
"601 0 LINE",
"712 111 LINE",
"712 737 LINE",
"525 737 LINE",
"525 177 LINE",
"490 142 LINE",
"287 142 LINE",
"252 177 LINE",
"252 737 LINE",
"65 737 LINE",
"65 111 LINE",
"173.72 0 LINE"
);
},
{
closed = 1;
nodes = (
"363.5 795 LINE",
"513.5 952 LINE",
"331.5 952 LINE",
"226.5 795 LINE"
);
},
{
closed = 1;
nodes = (
"573.5 795 LINE",
"723.5 952 LINE",
"541.5 952 LINE",
"436.5 795 LINE"
);
}
);
width = 777;
}
);
note = Uhungarumlaut;
unicode = 0170;
},
{
glyphname = uni0216;
lastChange = "2019-09-24 19:26:15 +0000";
layers = (
{
hints = (
{
horizontal = 1;
place = "{0, 142}";
type = Stem;
},
{
horizontal = 1;
place = "{853, 93}";
type = Stem;
},
{
place = "{65, 187}";
type = Stem;
},
{
place = "{525, 187}";
type = Stem;
}
);
layerId = "D215EC84-7FFD-4436-99F3-284D9B779A16";
paths = (
{
closed = 1;
nodes = (
"601 0 LINE",
"712 111 LINE",
"712 737 LINE",
"525 737 LINE",
"525 177 LINE",
"490 142 LINE",
"287 142 LINE",
"252 177 LINE",
"252 737 LINE",
"65 737 LINE",
"65 111 LINE",
"173.72 0 LINE"
);
},
{
closed = 1;
nodes = (
"327 795 LINE",
"327 840 LINE",
"341 853 LINE",
"436 853 LINE",
"450 840 LINE",
"450 795 LINE",
"582 795 LINE",
"582 868 LINE",
"496 946 LINE",
"280 946 LINE",
"195 868 LINE",
"195 795 LINE"
);
}
);
width = 777;
}
);
note = uni0216;
unicode = 0216;
},
{
glyphname = Umacron;
lastChange = "2019-09-24 19:26:15 +0000";
layers = (
{
hints = (
{
horizontal = 1;
place = "{0, 142}";
type = Stem;
},
{
horizontal = 1;
place = "{795, 118}";
type = Stem;
},
{
place = "{65, 187}";
type = Stem;
},
{
place = "{525, 187}";
type = Stem;
}
);
layerId = "D215EC84-7FFD-4436-99F3-284D9B779A16";
paths = (
{
closed = 1;
nodes = (
"601 0 LINE",
"712 111 LINE",
"712 737 LINE",
"525 737 LINE",
"525 177 LINE",
"490 142 LINE",
"287 142 LINE",
"252 177 LINE",
"252 737 LINE",
"65 737 LINE",
"65 111 LINE",
"173.72 0 LINE"
);
},
{
closed = 1;
nodes = (
"618.5 795 LINE",
"618.5 913 LINE",
"158.5 913 LINE",
"158.5 795 LINE"
);
}
);
width = 777;
}
);
note = Umacron;
unicode = 016A;
},
{
glyphname = Uogonek;
lastChange = "2019-09-24 19:26:15 +0000";
layers = (
{
hints = (
{
horizontal = 1;
place = "{-180, 102}";
type = Stem;
},
{
horizontal = 1;
place = "{0, 142}";
type = Stem;
},
{
place = "{65, 187}";
type = Stem;
},
{
place = "{321, 149}";
type = Stem;
},
{
place = "{525, 187}";
type = Stem;
}
);
layerId = "D215EC84-7FFD-4436-99F3-284D9B779A16";
paths = (
{
closed = 1;
nodes = (
"470 -180 LINE",
"470 -78 LINE",
"443 -78 LINE",
"424 -60 LINE",
"424 -33 LINE",
"458 0 LINE",
"601 0 LINE",
"712 111 LINE",
"712 737 LINE",
"525 737 LINE",
"525 177 LINE",
"490 142 LINE",
"287 142 LINE",
"252 177 LINE",
"252 737 LINE",
"65 737 LINE",
"65 111 LINE",
"173.72 0 LINE",
"366 0 LINE",
"321 -33 LINE",
"321 -114 LINE",
"393 -180 LINE"
);
}
);
width = 777;
}
);
note = Uogonek;
unicode = 0172;
},
{
glyphname = Uring;
lastChange = "2019-09-24 19:26:15 +0000";
layers = (
{
hints = (
{
horizontal = 1;
place = "{0, 142}";
type = Stem;
},
{
horizontal = 1;
place = "{795, 79}";
type = Stem;
},
{
horizontal = 1;
place = "{940, 80}";
type = Stem;
},
{
place = "{65, 187}";
type = Stem;
},
{
place = "{525, 187}";
type = Stem;
},
{
place = "{258.5, 97}";
type = Stem;
},
{
place = "{421.5, 97}";
type = Stem;
}
);
layerId = "D215EC84-7FFD-4436-99F3-284D9B779A16";
paths = (
{
closed = 1;
nodes = (
"601 0 LINE",
"712 111 LINE",
"712 737 LINE",
"525 737 LINE",
"525 177 LINE",
"490 142 LINE",
"287 142 LINE",
"252 177 LINE",
"252 737 LINE",
"65 737 LINE",
"65 111 LINE",
"173.72 0 LINE"
);
},
{
closed = 1;
nodes = (
"446.5 795 LINE",
"518.5 867 LINE",
"518.5 948 LINE",
"446.5 1020 LINE",
"330.5 1020 LINE",
"258.5 948 LINE",
"258.5 867 LINE",
"330.5 795 LINE"
);
},
{
closed = 1;
nodes = (
"355.5 895 LINE",
"355.5 919 LINE",
"376.5 940 LINE",
"400.5 940 LINE",
"421.5 919 LINE",
"421.5 895 LINE",
"400.5 874 LINE",
"376.5 874 LINE"
);
}
);
width = 777;
}
);
note = Uring;
unicode = 016E;
},
{
glyphname = Utilde;
lastChange = "2019-09-24 19:26:15 +0000";
layers = (
{
hints = (
{
horizontal = 1;
place = "{0, 142}";
type = Stem;
},
{
horizontal = 1;
place = "{802, 150}";
type = Stem;
},
{
place = "{65, 187}";
type = Stem;
},
{
place = "{525, 187}";
type = Stem;
},
{
place = "{166.5, 125}";
type = Stem;
},
{
horizontal = 1;
place = "{795, 151}";
type = Stem;
},
{
place = "{493.5, 125.5}";
type = Stem;
}
);
layerId = "D215EC84-7FFD-4436-99F3-284D9B779A16";
paths = (
{
closed = 1;
nodes = (
"601 0 LINE",
"712 111 LINE",
"712 737 LINE",
"525 737 LINE",
"525 177 LINE",
"490 142 LINE",
"287 142 LINE",
"252 177 LINE",
"252 737 LINE",
"65 737 LINE",
"65 111 LINE",
"173.72 0 LINE"
);
},
{
closed = 1;
nodes = (
"550.5 795 LINE",
"618.5 867 LINE",
"619.5 946 LINE",
"493.5 946 LINE",
"493.5 919 LINE",
"479.5 893 LINE",
"459.5 893 LINE",
"412.5 952 LINE",
"234.5 952 LINE",
"167.5 883 LINE",
"165.5 802 LINE",
"291.5 802 LINE",
"291.5 827 LINE",
"305.5 858 LINE",
"325.5 858 LINE",
"372.5 795 LINE"
);
}
);
width = 777;
}
);
note = Utilde;
unicode = 0168;
},
{
glyphname = V;
lastChange = "2019-09-24 19:26:15 +0000";
layers = (
{
hints = (
{
horizontal = 1;
place = "{0, 141}";
type = Stem;
},
{
place = "{0, 708}";
type = Stem;
}
);
layerId = "D215EC84-7FFD-4436-99F3-284D9B779A16";
paths = (
{
closed = 1;
nodes = (
"519 0 LINE",
"708 737 LINE",
"494 737 LINE",
"372 141 LINE",
"336 141 LINE",
"214 737 LINE",
"0 737 LINE",
"189 0 LINE"
);
}
);
width = 708;
}
);
leftKerningGroup = V;
note = V;
rightKerningGroup = V;
unicode = 0056;
},
{
glyphname = W;
lastChange = "2019-09-24 19:26:15 +0000";
layers = (
{
hints = (
{
horizontal = 1;
place = "{0, 141}";
type = Stem;
},
{
place = "{0, 1010}";
type = Stem;
}
);
layerId = "D215EC84-7FFD-4436-99F3-284D9B779A16";
paths = (
{
closed = 1;
nodes = (
"453 0 LINE",
"505 340 LINE",
"557 0 LINE",
"854 0 LINE",
"1010 737 LINE",
"795 737 LINE",
"716 141 LINE",
"681 141 LINE",
"601 737 LINE",
"409 737 LINE",
"329 141 LINE",
"294 141 LINE",
"215 737 LINE",
"0 737 LINE",
"156 0 LINE"
);
}
);
width = 1010;
}
);
leftKerningGroup = W;
note = W;
rightKerningGroup = W;
unicode = 0057;
},
{
glyphname = Wacute;
lastChange = "2019-09-24 19:26:15 +0000";
layers = (
{
hints = (
{
horizontal = 1;
place = "{0, 141}";
type = Stem;
},
{
horizontal = 1;
place = "{795, 157}";
type = Stem;
},
{
place = "{0, 1010}";
type = Stem;
}
);
layerId = "D215EC84-7FFD-4436-99F3-284D9B779A16";
paths = (
{
closed = 1;
nodes = (
"453 0 LINE",
"505 340 LINE",
"557 0 LINE",
"854 0 LINE",
"1010 737 LINE",
"795 737 LINE",
"716 141 LINE",
"681 141 LINE",
"601 737 LINE",
"409 737 LINE",
"329 141 LINE",
"294 141 LINE",
"215 737 LINE",
"0 737 LINE",
"156 0 LINE"
);
},
{
closed = 1;
nodes = (
"581 795 LINE",
"731 952 LINE",
"549 952 LINE",
"444 795 LINE"
);
}
);
width = 1010;
}
);
leftKerningGroup = W;
note = Wacute;
rightKerningGroup = W;
unicode = 1E82;
},
{
glyphname = Wcircumflex;
lastChange = "2019-09-24 19:26:15 +0000";
layers = (
{
hints = (
{
horizontal = 1;
place = "{0, 141}";
type = Stem;
},
{
horizontal = 1;
place = "{795, 152}";
type = Stem;
},
{
place = "{0, 1010}";
type = Stem;
}
);
layerId = "D215EC84-7FFD-4436-99F3-284D9B779A16";
paths = (
{
closed = 1;
nodes = (
"453 0 LINE",
"505 340 LINE",
"557 0 LINE",
"854 0 LINE",
"1010 737 LINE",
"795 737 LINE",
"716 141 LINE",
"681 141 LINE",
"601 737 LINE",
"409 737 LINE",
"329 141 LINE",
"294 141 LINE",
"215 737 LINE",
"0 737 LINE",
"156 0 LINE"
);
},
{
closed = 1;
nodes = (
"434 795 LINE",
"505 867 LINE",
"575 795 LINE",
"717 795 LINE",
"604 947 LINE",
"406 947 LINE",
"293 795 LINE"
);
}
);
width = 1010;
}
);
leftKerningGroup = W;
note = Wcircumflex;
rightKerningGroup = W;
unicode = 0174;
},
{
glyphname = Wdieresis;
lastChange = "2019-09-24 19:26:15 +0000";
layers = (
{
hints = (
{
horizontal = 1;
place = "{0, 141}";
type = Stem;
},
{
horizontal = 1;
place = "{795, 140}";
type = Stem;
},
{
place = "{275, 175}";
type = Stem;
},
{
place = "{560, 175}";
type = Stem;
},
{
horizontal = 1;
place = "{795, 140}";
type = Stem;
},
{
place = "{398, 175}";
type = Stem;
},
{
place = "{683, 175}";
type = Stem;
},
{
horizontal = 1;
place = "{795, 118}";
type = Stem;
},
{
place = "{369, 460}";
type = Stem;
},
{
horizontal = 1;
place = "{795, 140}";
type = Stem;
},
{
place = "{-234, 175}";
type = Stem;
},
{
place = "{51, 175}";
type = Stem;
},
{
horizontal = 1;
place = "{795, 140}";
type = Stem;
},
{
place = "{306, 187}";
type = Stem;
},
{
horizontal = 1;
place = "{795, 140}";
type = Stem;
},
{
place = "{33, 187}";
type = Stem;
}
);
layerId = "D215EC84-7FFD-4436-99F3-284D9B779A16";
paths = (
{
closed = 1;
nodes = (
"453 0 LINE",
"505 340 LINE",
"557 0 LINE",
"854 0 LINE",
"1010 737 LINE",
"795 737 LINE",
"716 141 LINE",
"681 141 LINE",
"601 737 LINE",
"409 737 LINE",
"329 141 LINE",
"294 141 LINE",
"215 737 LINE",
"0 737 LINE",
"156 0 LINE"
);
},
{
closed = 1;
nodes = (
"735 795 LINE",
"735 935 LINE",
"548 935 LINE",
"548 795 LINE"
);
},
{
closed = 1;
nodes = (
"462 795 LINE",
"462 935 LINE",
"275 935 LINE",
"275 795 LINE"
);
}
);
width = 1010;
}
);
leftKerningGroup = W;
note = Wdieresis;
rightKerningGroup = W;
unicode = 1E84;
},
{
glyphname = Wgrave;
lastChange = "2019-09-24 19:26:15 +0000";
layers = (
{
hints = (
{
horizontal = 1;
place = "{0, 141}";
type = Stem;
},
{
horizontal = 1;
place = "{795, 157}";
type = Stem;
},
{
place = "{0, 1010}";
type = Stem;
}
);
layerId = "D215EC84-7FFD-4436-99F3-284D9B779A16";
paths = (
{
closed = 1;
nodes = (
"453 0 LINE",
"505 340 LINE",
"557 0 LINE",
"854 0 LINE",
"1010 737 LINE",
"795 737 LINE",
"716 141 LINE",
"681 141 LINE",
"601 737 LINE",
"409 737 LINE",
"329 141 LINE",
"294 141 LINE",
"215 737 LINE",
"0 737 LINE",
"156 0 LINE"
);
},
{
closed = 1;
nodes = (
"568 795 LINE",
"463 952 LINE",
"281 952 LINE",
"431 795 LINE"
);
}
);
width = 1010;
}
);
leftKerningGroup = W;
note = Wgrave;
rightKerningGroup = W;
unicode = 1E80;
},
{
glyphname = X;
lastChange = "2019-09-24 19:26:15 +0000";
layers = (
{
hints = (
{
horizontal = 1;
place = "{293, 168}";
type = Stem;
},
{
place = "{0, 702}";
type = Stem;
}
);
layerId = "D215EC84-7FFD-4436-99F3-284D9B779A16";
paths = (
{
closed = 1;
nodes = (
"216 0 LINE",
"333 293 LINE",
"369 293 LINE",
"486 0 LINE",
"702 0 LINE",
"525 386 LINE",
"701 737 LINE",
"486 737 LINE",
"369 461 LINE",
"333 461 LINE",
"216 737 LINE",
"1 737 LINE",
"177 386 LINE",
"0 0 LINE"
);
}
);
width = 702;
}
);
leftKerningGroup = X;
note = X;
rightKerningGroup = X;
unicode = 0058;
},
{
glyphname = Y;
lastChange = "2019-09-24 19:26:15 +0000";
layers = (
{
hints = (
{
horizontal = 1;
place = "{0, 737}";
type = Stem;
},
{
place = "{246, 186}";
type = Stem;
}
);
layerId = "D215EC84-7FFD-4436-99F3-284D9B779A16";
paths = (
{
closed = 1;
nodes = (
"432 0 LINE",
"432 258 LINE",
"506 322 LINE",
"678 737 LINE",
"463 737 LINE",
"357 398 LINE",
"321 398 LINE",
"215 737 LINE",
"0 737 LINE",
"172 322 LINE",
"246 258 LINE",
"246 0 LINE"
);
}
);
width = 678;
}
);
leftKerningGroup = Y;
note = Y;
rightKerningGroup = Y;
unicode = 0059;
},
{
glyphname = Yacute;
lastChange = "2019-09-24 19:26:15 +0000";
layers = (
{
hints = (
{
horizontal = 1;
place = "{795, 157}";
type = Stem;
},
{
place = "{246, 186}";
type = Stem;
}
);
layerId = "D215EC84-7FFD-4436-99F3-284D9B779A16";
paths = (
{
closed = 1;
nodes = (
"432 0 LINE",
"432 258 LINE",
"506 322 LINE",
"678 737 LINE",
"463 737 LINE",
"357 398 LINE",
"321 398 LINE",
"215 737 LINE",
"0 737 LINE",
"172 322 LINE",
"246 258 LINE",
"246 0 LINE"
);
},
{
closed = 1;
nodes = (
"415 795 LINE",
"565 952 LINE",
"383 952 LINE",
"278 795 LINE"
);
}
);
width = 678;
}
);
leftKerningGroup = Y;
note = Yacute;
rightKerningGroup = Y;
unicode = 00DD;
},
{
glyphname = Ycircumflex;
lastChange = "2019-09-24 19:26:15 +0000";
layers = (
{
hints = (
{
horizontal = 1;
place = "{795, 152}";
type = Stem;
},
{
place = "{246, 186}";
type = Stem;
}
);
layerId = "D215EC84-7FFD-4436-99F3-284D9B779A16";
paths = (
{
closed = 1;
nodes = (
"432 0 LINE",
"432 258 LINE",
"506 322 LINE",
"678 737 LINE",
"463 737 LINE",
"357 398 LINE",
"321 398 LINE",
"215 737 LINE",
"0 737 LINE",
"172 322 LINE",
"246 258 LINE",
"246 0 LINE"
);
},
{
closed = 1;
nodes = (
"268 795 LINE",
"339 867 LINE",
"409 795 LINE",
"551 795 LINE",
"438 947 LINE",
"240 947 LINE",
"127 795 LINE"
);
}
);
width = 678;
}
);
leftKerningGroup = Y;
note = Ycircumflex;
rightKerningGroup = Y;
unicode = 0176;
},
{
glyphname = Ydieresis;
lastChange = "2019-09-24 19:26:15 +0000";
layers = (
{
hints = (
{
horizontal = 1;
place = "{795, 140}";
type = Stem;
},
{
place = "{109, 175}";
type = Stem;
},
{
place = "{394, 175}";
type = Stem;
},
{
place = "{246, 186}";
type = Stem;
},
{
horizontal = 1;
place = "{795, 140}";
type = Stem;
},
{
place = "{232, 175}";
type = Stem;
},
{
place = "{517, 175}";
type = Stem;
},
{
horizontal = 1;
place = "{795, 118}";
type = Stem;
},
{
place = "{203, 460}";
type = Stem;
},
{
horizontal = 1;
place = "{795, 140}";
type = Stem;
},
{
place = "{-400, 175}";
type = Stem;
},
{
place = "{-115, 175}";
type = Stem;
},
{
horizontal = 1;
place = "{795, 140}";
type = Stem;
},
{
place = "{140, 187}";
type = Stem;
},
{
horizontal = 1;
place = "{795, 140}";
type = Stem;
},
{
place = "{-133, 187}";
type = Stem;
}
);
layerId = "D215EC84-7FFD-4436-99F3-284D9B779A16";
paths = (
{
closed = 1;
nodes = (
"432 0 LINE",
"432 258 LINE",
"506 322 LINE",
"678 737 LINE",
"463 737 LINE",
"357 398 LINE",
"321 398 LINE",
"215 737 LINE",
"0 737 LINE",
"172 322 LINE",
"246 258 LINE",
"246 0 LINE"
);
},
{
closed = 1;
nodes = (
"569 795 LINE",
"569 935 LINE",
"382 935 LINE",
"382 795 LINE"
);
},
{
closed = 1;
nodes = (
"296 795 LINE",
"296 935 LINE",
"109 935 LINE",
"109 795 LINE"
);
}
);
width = 678;
}
);
leftKerningGroup = Y;
note = Ydieresis;
rightKerningGroup = Y;
unicode = 0178;
},
{
glyphname = uni1EF4;
lastChange = "2019-09-24 19:26:15 +0000";
layers = (
{
hints = (
{
horizontal = 1;
place = "{-197, 140}";
type = Stem;
},
{
place = "{246, 186}";
type = Stem;
}
);
layerId = "D215EC84-7FFD-4436-99F3-284D9B779A16";
paths = (
{
closed = 1;
nodes = (
"432 0 LINE",
"432 258 LINE",
"506 322 LINE",
"678 737 LINE",
"463 737 LINE",
"357 398 LINE",
"321 398 LINE",
"215 737 LINE",
"0 737 LINE",
"172 322 LINE",
"246 258 LINE",
"246 0 LINE"
);
},
{
closed = 1;
nodes = (
"432.5 -197 LINE",
"432.5 -57 LINE",
"245.5 -57 LINE",
"245.5 -197 LINE"
);
}
);
width = 678;
}
);
leftKerningGroup = Y;
note = uni1EF4;
rightKerningGroup = Y;
unicode = 1EF4;
},
{
glyphname = Ygrave;
lastChange = "2019-09-24 19:26:15 +0000";
layers = (
{
hints = (
{
horizontal = 1;
place = "{795, 157}";
type = Stem;
},
{
place = "{246, 186}";
type = Stem;
}
);
layerId = "D215EC84-7FFD-4436-99F3-284D9B779A16";
paths = (
{
closed = 1;
nodes = (
"432 0 LINE",
"432 258 LINE",
"506 322 LINE",
"678 737 LINE",
"463 737 LINE",
"357 398 LINE",
"321 398 LINE",
"215 737 LINE",
"0 737 LINE",
"172 322 LINE",
"246 258 LINE",
"246 0 LINE"
);
},
{
closed = 1;
nodes = (
"402 795 LINE",
"297 952 LINE",
"115 952 LINE",
"265 795 LINE"
);
}
);
width = 678;
}
);
leftKerningGroup = Y;
note = Ygrave;
rightKerningGroup = Y;
unicode = 1EF2;
},
{
glyphname = uni1EF6;
lastChange = "2019-09-24 19:26:15 +0000";
layers = (
{
hints = (
{
horizontal = 1;
place = "{795, 80}";
type = Stem;
},
{
horizontal = 1;
place = "{921, 100}";
type = Stem;
},
{
place = "{274, 127}";
type = Stem;
},
{
place = "{204, 113}";
type = Stem;
},
{
place = "{349, 125}";
type = Stem;
},
{
place = "{246, 186}";
type = Stem;
}
);
layerId = "D215EC84-7FFD-4436-99F3-284D9B779A16";
paths = (
{
closed = 1;
nodes = (
"432 0 LINE",
"432 258 LINE",
"506 322 LINE",
"678 737 LINE",
"463 737 LINE",
"357 398 LINE",
"321 398 LINE",
"215 737 LINE",
"0 737 LINE",
"172 322 LINE",
"246 258 LINE",
"246 0 LINE"
);
},
{
closed = 1;
nodes = (
"401 795 LINE",
"401 836 LINE",
"474 878 LINE",
"474 981 LINE",
"431 1021 LINE",
"247 1021 LINE",
"204 981 LINE",
"204 921 LINE",
"317 921 LINE",
"317 950 LINE",
"349 950 LINE",
"349 921 LINE",
"274 875 LINE",
"274 795 LINE"
);
}
);
width = 678;
}
);
leftKerningGroup = Y;
note = uni1EF6;
rightKerningGroup = Y;
unicode = 1EF6;
},
{
glyphname = uni0232;
lastChange = "2019-09-24 19:26:15 +0000";
layers = (
{
hints = (
{
horizontal = 1;
place = "{795, 118}";
type = Stem;
},
{
place = "{246, 186}";
type = Stem;
}
);
layerId = "D215EC84-7FFD-4436-99F3-284D9B779A16";
paths = (
{
closed = 1;
nodes = (
"432 0 LINE",
"432 258 LINE",
"506 322 LINE",
"678 737 LINE",
"463 737 LINE",
"357 398 LINE",
"321 398 LINE",
"215 737 LINE",
"0 737 LINE",
"172 322 LINE",
"246 258 LINE",
"246 0 LINE"
);
},
{
closed = 1;
nodes = (
"569 795 LINE",
"569 913 LINE",
"109 913 LINE",
"109 795 LINE"
);
}
);
width = 678;
}
);
leftKerningGroup = Y;
note = uni0232;
rightKerningGroup = Y;
unicode = 0232;
},
{
glyphname = uni1EF8;
lastChange = "2019-09-24 19:26:15 +0000";
layers = (
{
hints = (
{
horizontal = 1;
place = "{802, 150}";
type = Stem;
},
{
place = "{117, 125}";
type = Stem;
},
{
horizontal = 1;
place = "{795, 151}";
type = Stem;
},
{
place = "{246, 186}";
type = Stem;
},
{
place = "{444, 125.5}";
type = Stem;
}
);
layerId = "D215EC84-7FFD-4436-99F3-284D9B779A16";
paths = (
{
closed = 1;
nodes = (
"432 0 LINE",
"432 258 LINE",
"506 322 LINE",
"678 737 LINE",
"463 737 LINE",
"357 398 LINE",
"321 398 LINE",
"215 737 LINE",
"0 737 LINE",
"172 322 LINE",
"246 258 LINE",
"246 0 LINE"
);
},
{
closed = 1;
nodes = (
"501 795 LINE",
"569 867 LINE",
"570 946 LINE",
"444 946 LINE",
"444 919 LINE",
"430 893 LINE",
"410 893 LINE",
"363 952 LINE",
"185 952 LINE",
"118 883 LINE",
"116 802 LINE",
"242 802 LINE",
"242 827 LINE",
"256 858 LINE",
"276 858 LINE",
"323 795 LINE"
);
}
);
width = 678;
}
);
leftKerningGroup = Y;
note = uni1EF8;
rightKerningGroup = Y;
unicode = 1EF8;
},
{
glyphname = Z;
lastChange = "2019-09-24 19:26:15 +0000";
layers = (
{
hints = (
{
horizontal = 1;
place = "{0, 152}";
type = Stem;
},
{
horizontal = 1;
place = "{585, 152}";
type = Stem;
},
{
place = "{45, 251}";
type = Stem;
},
{
place = "{385, 250}";
type = Stem;
}
);
layerId = "D215EC84-7FFD-4436-99F3-284D9B779A16";
paths = (
{
closed = 1;
nodes = (
"635 0 LINE",
"635 152 LINE",
"296 152 LINE",
"296 187 LINE",
"635 580 LINE",
"635 737 LINE",
"69 737 LINE",
"69 585 LINE",
"385 585 LINE",
"385 550 LINE",
"45 157 LINE",
"45 0 LINE"
);
}
);
width = 680;
}
);
leftKerningGroup = Z;
note = Z;
rightKerningGroup = uni01C4;
unicode = 005A;
},
{
glyphname = Zacute;
lastChange = "2019-09-24 19:26:15 +0000";
layers = (
{
hints = (
{
horizontal = 1;
place = "{0, 152}";
type = Stem;
},
{
horizontal = 1;
place = "{585, 152}";
type = Stem;
},
{
horizontal = 1;
place = "{795, 157}";
type = Stem;
},
{
place = "{45, 590}";
type = Stem;
},
{
place = "{45, 251}";
type = Stem;
},
{
place = "{385, 250}";
type = Stem;
}
);
layerId = "D215EC84-7FFD-4436-99F3-284D9B779A16";
paths = (
{
closed = 1;
nodes = (
"635 0 LINE",
"635 152 LINE",
"296 152 LINE",
"296 187 LINE",
"635 580 LINE",
"635 737 LINE",
"69 737 LINE",
"69 585 LINE",
"385 585 LINE",
"385 550 LINE",
"45 157 LINE",
"45 0 LINE"
);
},
{
closed = 1;
nodes = (
"432 795 LINE",
"582 952 LINE",
"400 952 LINE",
"295 795 LINE"
);
}
);
width = 680;
}
);
leftKerningGroup = Z;
note = Zacute;
rightKerningGroup = uni01C4;
unicode = 0179;
},
{
glyphname = Zcaron;
lastChange = "2019-09-24 19:26:15 +0000";
layers = (
{
hints = (
{
horizontal = 1;
place = "{0, 152}";
type = Stem;
},
{
horizontal = 1;
place = "{585, 152}";
type = Stem;
},
{
horizontal = 1;
place = "{795, 152}";
type = Stem;
},
{
place = "{45, 590}";
type = Stem;
},
{
place = "{45, 251}";
type = Stem;
},
{
place = "{385, 250}";
type = Stem;
}
);
layerId = "D215EC84-7FFD-4436-99F3-284D9B779A16";
paths = (
{
closed = 1;
nodes = (
"635 0 LINE",
"635 152 LINE",
"296 152 LINE",
"296 187 LINE",
"635 580 LINE",
"635 737 LINE",
"69 737 LINE",
"69 585 LINE",
"385 585 LINE",
"385 550 LINE",
"45 157 LINE",
"45 0 LINE"
);
},
{
closed = 1;
nodes = (
"455 795 LINE",
"568 947 LINE",
"426 947 LINE",
"356 875 LINE",
"285 947 LINE",
"144 947 LINE",
"257 795 LINE"
);
}
);
width = 680;
}
);
leftKerningGroup = Z;
note = Zcaron;
rightKerningGroup = uni01C4;
unicode = 017D;
},
{
glyphname = Zdotaccent;
lastChange = "2019-09-24 19:26:15 +0000";
layers = (
{
hints = (
{
horizontal = 1;
place = "{0, 152}";
type = Stem;
},
{
horizontal = 1;
place = "{585, 152}";
type = Stem;
},
{
horizontal = 1;
place = "{795, 140}";
type = Stem;
},
{
place = "{262.5, 187}";
type = Stem;
},
{
place = "{45, 251}";
type = Stem;
},
{
place = "{385, 250}";
type = Stem;
}
);
layerId = "D215EC84-7FFD-4436-99F3-284D9B779A16";
paths = (
{
closed = 1;
nodes = (
"635 0 LINE",
"635 152 LINE",
"296 152 LINE",
"296 187 LINE",
"635 580 LINE",
"635 737 LINE",
"69 737 LINE",
"69 585 LINE",
"385 585 LINE",
"385 550 LINE",
"45 157 LINE",
"45 0 LINE"
);
},
{
closed = 1;
nodes = (
"449.5 795 LINE",
"449.5 935 LINE",
"262.5 935 LINE",
"262.5 795 LINE"
);
}
);
width = 680;
}
);
leftKerningGroup = Z;
note = Zdotaccent;
rightKerningGroup = uni01C4;
unicode = 017B;
},
{
glyphname = a;
lastChange = "2019-09-24 19:26:15 +0000";
layers = (
{
hints = (
{
horizontal = 1;
place = "{0, 102}";
type = Stem;
},
{
horizontal = 1;
place = "{240, 93}";
type = Stem;
},
{
horizontal = 1;
place = "{404, 118}";
type = Stem;
},
{
place = "{30, 186}";
type = Stem;
},
{
place = "{390, 187}";
type = Stem;
}
);
layerId = "D215EC84-7FFD-4436-99F3-284D9B779A16";
paths = (
{
closed = 1;
nodes = (
"321 0 LINE",
"390 70.8 LINE",
"390 0 LINE",
"577 0 LINE",
"577 411 LINE",
"465 522 LINE",
"92 522 LINE",
"92 404 LINE",
"354 404 LINE",
"390 368 LINE",
"390 333 LINE",
"141 333 LINE",
"30 222 LINE",
"30 111 LINE",
"141 0 LINE"
);
},
{
closed = 1;
nodes = (
"216 137 LINE",
"216 205 LINE",
"251 240 LINE",
"390 240 LINE",
"390 187 LINE",
"305 102 LINE",
"251 102 LINE"
);
}
);
width = 632;
}
);
leftKerningGroup = a;
note = a;
rightKerningGroup = a;
unicode = 0061;
},
{
glyphname = aacute;
lastChange = "2019-09-24 19:26:15 +0000";
layers = (
{
hints = (
{
horizontal = 1;
place = "{0, 102}";
type = Stem;
},
{
horizontal = 1;
place = "{240, 93}";
type = Stem;
},
{
horizontal = 1;
place = "{404, 118}";
type = Stem;
},
{
horizontal = 1;
place = "{580, 157}";
type = Stem;
},
{
place = "{30, 186}";
type = Stem;
},
{
place = "{390, 187}";
type = Stem;
}
);
layerId = "D215EC84-7FFD-4436-99F3-284D9B779A16";
paths = (
{
closed = 1;
nodes = (
"321 0 LINE",
"390 70.8 LINE",
"390 0 LINE",
"577 0 LINE",
"577 411 LINE",
"465 522 LINE",
"92 522 LINE",
"92 404 LINE",
"354 404 LINE",
"390 368 LINE",
"390 333 LINE",
"141 333 LINE",
"30 222 LINE",
"30 111 LINE",
"141 0 LINE"
);
},
{
closed = 1;
nodes = (
"216 137 LINE",
"216 205 LINE",
"251 240 LINE",
"390 240 LINE",
"390 187 LINE",
"305 102 LINE",
"251 102 LINE"
);
},
{
closed = 1;
nodes = (
"378 580 LINE",
"528 737 LINE",
"346 737 LINE",
"241 580 LINE"
);
}
);
width = 632;
}
);
leftKerningGroup = a;
note = aacute;
rightKerningGroup = a;
unicode = 00E1;
},
{
glyphname = abreve;
lastChange = "2019-09-24 19:26:15 +0000";
layers = (
{
hints = (
{
horizontal = 1;
place = "{0, 102}";
type = Stem;
},
{
horizontal = 1;
place = "{240, 93}";
type = Stem;
},
{
horizontal = 1;
place = "{404, 118}";
type = Stem;
},
{
horizontal = 1;
place = "{580, 94}";
type = Stem;
},
{
place = "{108.5, 132}";
type = Stem;
},
{
place = "{363.5, 132}";
type = Stem;
},
{
horizontal = 1;
place = "{658, 74}";
type = Stem;
},
{
place = "{390, 187}";
type = Stem;
},
{
place = "{30, 186}";
type = Stem;
}
);
layerId = "D215EC84-7FFD-4436-99F3-284D9B779A16";
paths = (
{
closed = 1;
nodes = (
"321 0 LINE",
"390 70.8 LINE",
"390 0 LINE",
"577 0 LINE",
"577 411 LINE",
"465 522 LINE",
"92 522 LINE",
"92 404 LINE",
"354 404 LINE",
"390 368 LINE",
"390 333 LINE",
"141 333 LINE",
"30 222 LINE",
"30 111 LINE",
"141 0 LINE"
);
},
{
closed = 1;
nodes = (
"216 137 LINE",
"216 205 LINE",
"251 240 LINE",
"390 240 LINE",
"390 187 LINE",
"305 102 LINE",
"251 102 LINE"
);
},
{
closed = 1;
nodes = (
"409.5 580 LINE",
"495.5 658 LINE",
"495.5 732 LINE",
"363.5 732 LINE",
"363.5 687 LINE",
"349.5 674 LINE",
"254.5 674 LINE",
"240.5 687 LINE",
"240.5 732 LINE",
"108.5 732 LINE",
"108.5 658 LINE",
"193.5 580 LINE"
);
}
);
width = 632;
}
);
leftKerningGroup = a;
note = abreve;
rightKerningGroup = a;
unicode = 0103;
},
{
glyphname = uni1EAF;
lastChange = "2019-09-24 19:26:15 +0000";
layers = (
{
hints = (
{
horizontal = 1;
place = "{0, 102}";
type = Stem;
},
{
horizontal = 1;
place = "{240, 93}";
type = Stem;
},
{
horizontal = 1;
place = "{404, 118}";
type = Stem;
},
{
horizontal = 1;
place = "{580, 94}";
type = Stem;
},
{
horizontal = 1;
place = "{764, 157}";
type = Stem;
},
{
place = "{108.5, 132}";
type = Stem;
},
{
place = "{390, 187}";
type = Stem;
},
{
place = "{363.5, 132}";
type = Stem;
},
{
horizontal = 1;
place = "{658, 74}";
type = Stem;
},
{
place = "{30, 186}";
type = Stem;
}
);
layerId = "D215EC84-7FFD-4436-99F3-284D9B779A16";
paths = (
{
closed = 1;
nodes = (
"321 0 LINE",
"390 70.8 LINE",
"390 0 LINE",
"577 0 LINE",
"577 411 LINE",
"465 522 LINE",
"92 522 LINE",
"92 404 LINE",
"354 404 LINE",
"390 368 LINE",
"390 333 LINE",
"141 333 LINE",
"30 222 LINE",
"30 111 LINE",
"141 0 LINE"
);
},
{
closed = 1;
nodes = (
"216 137 LINE",
"216 205 LINE",
"251 240 LINE",
"390 240 LINE",
"390 187 LINE",
"305 102 LINE",
"251 102 LINE"
);
},
{
closed = 1;
nodes = (
"409.5 580 LINE",
"495.5 658 LINE",
"495.5 732 LINE",
"363.5 732 LINE",
"363.5 687 LINE",
"349.5 674 LINE",
"254.5 674 LINE",
"240.5 687 LINE",
"240.5 732 LINE",
"108.5 732 LINE",
"108.5 658 LINE",
"193.5 580 LINE"
);
},
{
closed = 1;
nodes = (
"373.75 764 LINE",
"523.75 921 LINE",
"341.75 921 LINE",
"236.75 764 LINE"
);
}
);
width = 632;
}
);
leftKerningGroup = a;
note = uni1EAF;
rightKerningGroup = a;
unicode = 1EAF;
},
{
glyphname = uni1EB7;
lastChange = "2019-09-24 19:26:15 +0000";
layers = (
{
hints = (
{
horizontal = 1;
place = "{-197, 140}";
type = Stem;
},
{
horizontal = 1;
place = "{0, 102}";
type = Stem;
},
{
horizontal = 1;
place = "{240, 93}";
type = Stem;
},
{
horizontal = 1;
place = "{404, 118}";
type = Stem;
},
{
horizontal = 1;
place = "{580, 94}";
type = Stem;
},
{
place = "{108.5, 132}";
type = Stem;
},
{
place = "{363.5, 132}";
type = Stem;
},
{
horizontal = 1;
place = "{658, 74}";
type = Stem;
},
{
place = "{390, 187}";
type = Stem;
},
{
place = "{30, 186}";
type = Stem;
},
{
place = "{215.5, 187}";
type = Stem;
}
);
layerId = "D215EC84-7FFD-4436-99F3-284D9B779A16";
paths = (
{
closed = 1;
nodes = (
"321 0 LINE",
"390 70.8 LINE",
"390 0 LINE",
"577 0 LINE",
"577 411 LINE",
"465 522 LINE",
"92 522 LINE",
"92 404 LINE",
"354 404 LINE",
"390 368 LINE",
"390 333 LINE",
"141 333 LINE",
"30 222 LINE",
"30 111 LINE",
"141 0 LINE"
);
},
{
closed = 1;
nodes = (
"402.5 -197 LINE",
"402.5 -57 LINE",
"215.5 -57 LINE",
"215.5 -197 LINE"
);
},
{
closed = 1;
nodes = (
"216 137 LINE",
"216 205 LINE",
"251 240 LINE",
"390 240 LINE",
"390 187 LINE",
"305 102 LINE",
"251 102 LINE"
);
},
{
closed = 1;
nodes = (
"409.5 580 LINE",
"495.5 658 LINE",
"495.5 732 LINE",
"363.5 732 LINE",
"363.5 687 LINE",
"349.5 674 LINE",
"254.5 674 LINE",
"240.5 687 LINE",
"240.5 732 LINE",
"108.5 732 LINE",
"108.5 658 LINE",
"193.5 580 LINE"
);
}
);
width = 632;
}
);
leftKerningGroup = a;
note = uni1EB7;
rightKerningGroup = a;
unicode = 1EB7;
},
{
glyphname = uni1EB1;
lastChange = "2019-09-24 19:26:15 +0000";
layers = (
{
hints = (
{
horizontal = 1;
place = "{0, 102}";
type = Stem;
},
{
horizontal = 1;
place = "{240, 93}";
type = Stem;
},
{
horizontal = 1;
place = "{404, 118}";
type = Stem;
},
{
horizontal = 1;
place = "{580, 94}";
type = Stem;
},
{
horizontal = 1;
place = "{764, 157}";
type = Stem;
},
{
place = "{108.5, 132}";
type = Stem;
},
{
place = "{390, 187}";
type = Stem;
},
{
horizontal = 1;
place = "{658, 74}";
type = Stem;
},
{
place = "{363.5, 132}";
type = Stem;
},
{
place = "{30, 186}";
type = Stem;
}
);
layerId = "D215EC84-7FFD-4436-99F3-284D9B779A16";
paths = (
{
closed = 1;
nodes = (
"321 0 LINE",
"390 70.8 LINE",
"390 0 LINE",
"577 0 LINE",
"577 411 LINE",
"465 522 LINE",
"92 522 LINE",
"92 404 LINE",
"354 404 LINE",
"390 368 LINE",
"390 333 LINE",
"141 333 LINE",
"30 222 LINE",
"30 111 LINE",
"141 0 LINE"
);
},
{
closed = 1;
nodes = (
"216 137 LINE",
"216 205 LINE",
"251 240 LINE",
"390 240 LINE",
"390 187 LINE",
"305 102 LINE",
"251 102 LINE"
);
},
{
closed = 1;
nodes = (
"409.5 580 LINE",
"495.5 658 LINE",
"495.5 732 LINE",
"363.5 732 LINE",
"363.5 687 LINE",
"349.5 674 LINE",
"254.5 674 LINE",
"240.5 687 LINE",
"240.5 732 LINE",
"108.5 732 LINE",
"108.5 658 LINE",
"193.5 580 LINE"
);
},
{
closed = 1;
nodes = (
"359.5 764 LINE",
"254.5 921 LINE",
"72.5 921 LINE",
"222.5 764 LINE"
);
}
);
width = 632;
}
);
leftKerningGroup = a;
note = uni1EB1;
rightKerningGroup = a;
unicode = 1EB1;
},
